{
copyright = "Jonas Schneider";
designer = "Jonas Schneider";
designerURL = "http://jonasschneider.de";
familyName = "Urlaub Grotesk";
customParameters = (
{
name = glyphOrder;
value = (
.notdef,
NULL,
CR,
space,
uni000A,
exclam,
quotedbl,
numbersign,
dollar,
percent,
ampersand,
quotesingle,
parenleft,
parenright,
asterisk,
plus,
comma,
hyphen,
period,
slash,
zero,
one,
two,
three,
four,
five,
six,
seven,
eight,
nine,
colon,
semicolon,
less,
equal,
greater,
question,
at,
A,
B,
C,
D,
E,
F,
G,
H,
I,
J,
K,
L,
M,
N,
O,
P,
Q,
R,
S,
T,
U,
V,
W,
X,
Y,
Z,
bracketleft,
backslash,
bracketright,
asciicircum,
underscore,
grave,
a,
b,
c,
d,
e,
f,
g,
h,
i,
j,
k,
l,
m,
n,
o,
p,
q,
r,
s,
t,
u,
v,
w,
x,
y,
z,
braceleft,
bar,
braceright,
asciitilde,
cent,
sterling,
currency,
yen,
section,
dieresis,
guillemotleft,
logicalnot,
macron,
degree,
plusminus,
acute,
periodcentered,
cedilla,
onesuperior,
guillemotright,
Agrave,
Aacute,
Acircumflex,
Atilde,
Adieresis,
Aring,
AE,
Ccedilla,
Egrave,
Eacute,
Ecircumflex,
Edieresis,
Igrave,
Iacute,
Icircumflex,
Idieresis,
Eth,
Ntilde,
Ograve,
Oacute,
Ocircumflex,
Otilde,
Odieresis,
multiply,
Oslash,
Ugrave,
Uacute,
Ucircumflex,
Udieresis,
Yacute,
Thorn,
germandbls,
agrave,
aacute,
acircumflex,
atilde,
adieresis,
aring,
ae,
ccedilla,
egrave,
eacute,
ecircumflex,
edieresis,
igrave,
iacute,
icircumflex,
idieresis,
eth,
ntilde,
ograve,
oacute,
ocircumflex,
otilde,
odieresis,
divide,
oslash,
ugrave,
uacute,
ucircumflex,
udieresis,
yacute,
thorn,
ydieresis,
Amacron,
amacron,
Abreve,
abreve,
Aogonek,
aogonek,
Cacute,
cacute,
Ccircumflex,
ccircumflex,
Cdotaccent,
cdotaccent,
Ccaron,
ccaron,
Dcaron,
dcaron,
Dcroat,
dcroat,
Emacron,
emacron,
Ebreve,
ebreve,
Edotaccent,
edotaccent,
Eogonek,
eogonek,
Ecaron,
ecaron,
Gcircumflex,
gcircumflex,
Gbreve,
gbreve,
Gdotaccent,
gdotaccent,
Gcommaaccent,
gcommaaccent,
Hcircumflex,
hcircumflex,
Hbar,
hbar,
Itilde,
itilde,
Imacron,
imacron,
Ibreve,
ibreve,
Iogonek,
iogonek,
Idotaccent,
dotlessi,
IJ,
ij,
Jcircumflex,

glyphs = (
{
glyphname = exclam;
layers = (
{
layerId = "C26E6862-625E-4D03-9322-DC3496ADAC37";
name = Backup;
width = 270;
},
{
components = (
{
name = period;
transform = "{1, 0, 0, 1, 14, 0}";
alignment = -1;
}
);
hints = (
{
place = "{80, 110}";
type = Stem;
},
{
place = "{94, 82}";
type = Stem;
},
{
horizontal = 1;
place = "{0, 120}";
type = Stem;
},
{
horizontal = 1;
place = "{740, -20}";
target = down;
type = TopGhost;
}
);
layerId = "2B03D00A-B4C8-4D37-BEFC-80CF5F8B5BB8";
paths = (
{
closed = 1;
nodes = (
"94 179 LINE",
"176 179 LINE",
"176 740. LINE",
"94 740. LINE"
);
}
);
width = 270;
},
{
components = (
{
name = period;
transform = "{1, 0, 0, 1, 14, 0}";
alignment = -1;
}
);
hints = (
{
place = "{80, 110}";
type = Stem;
},
{
place = "{94, 82}";
type = Stem;
},
{
horizontal = 1;
place = "{0, 120}";
type = Stem;
},
{
horizontal = 1;
place = "{740, -20}";
target = down;
type = TopGhost;
}
);
layerId = "C9474598-BCEA-4A64-AEC8-6AD11FF1C3BE";
paths = (
{
closed = 1;
nodes = (
"94 179 LINE",
"176 179 LINE",
"176 740. LINE",
"94 740. LINE"
);
}
);
width = 270;
}
);
unicode = 0021;
},
{
glyphname = dollar;
layers = (
{
components = (
{
name = bar;
alignment = -1;
}
);
layerId = "C26E6862-625E-4D03-9322-DC3496ADAC37";
name = Backup;
paths = (
{
closed = 1;
nodes = (
"101 -120 LINE",
"161 -120 LINE",
"161 802 LINE",
"101 802 LINE"
);
},
{
closed = 1;
nodes = (
"101 -120 LINE",
"161 -120 LINE",
"161 802 LINE",
"101 802 LINE"
);
}
);
width = 262;
},
{
components = (
{
name = S;
transform = "{1, 0, 0, 1, 35, 0}";
alignment = -1;
},
{
name = bar;
transform = "{0.9, 0, 0, 1, 274, 0}";
alignment = -1;
},
{
name = bar;
alignment = -1;
}
);
hints = (
{
place = "{137, 86}";
type = Stem;
},
{
place = "{551, 87}";
type = Stem;
},
{
place = "{588, 90}";
type = Stem;
},
{
horizontal = 1;
place = "{-15, 84}";
type = Stem;
},
{
horizontal = 1;
place = "{669, 80}";
type = Stem;
},
{
place = "{365, 54}";
type = Stem;
},
{
horizontal = 1;
place = "{-120, 21}";
target = up;
type = BottomGhost;
},
{
horizontal = 1;
place = "{802, -20}";
target = down;
type = TopGhost;
},
{
place = "{101, 60}";
type = Stem;
}
);
layerId = "2B03D00A-B4C8-4D37-BEFC-80CF5F8B5BB8";
paths = (
{
closed = 1;
nodes = (
"101 -120 LINE",
"161 -120 LINE",
"161 802 LINE",
"101 802 LINE"
);
},
{
closed = 1;
nodes = (
"101 -120 LINE",
"161 -120 LINE",
"161 802 LINE",
"101 802 LINE"
);
}
);
width = 782;
},
{
components = (
{
name = S;
transform = "{1, 0, 0, 1, 68, 0}";
alignment = -1;
}
);
guideLines = (
{
angle = 90;
position = "{446, 0}";
showMeasurement = 1;
}
);
hints = (
{
place = "{189, 86}";
type = Stem;
},
{
place = "{603, 87}";
type = Stem;
},
{
place = "{640, 90}";
type = Stem;
},
{
horizontal = 1;
place = "{-15, 84}";
type = Stem;
},
{
horizontal = 1;
place = "{669, 80}";
type = Stem;
}
);
layerId = "C9474598-BCEA-4A64-AEC8-6AD11FF1C3BE";
paths = (
{
closed = 1;
nodes = (
"416 -120 LINE",
"476 -120 LINE",
"476 802 LINE",
"416 802 LINE"
);
}
);
width = 782;
}
);
unicode = 0024;
},
{
color = (255, 153, 153, 255);
glyphname = percent;
layers = (
{
layerId = "C26E6862-625E-4D03-9322-DC3496ADAC37";
name = Backup;
width = 871;
},
{
hints = (
{
place = "{91, 60}";
type = Stem;
},
{
place = "{348, 60}";
type = Stem;
},
{
horizontal = 1;
place = "{415, 57}";
type = Stem;
},
{
horizontal = 1;
place = "{694, 56}";
type = Stem;
}
);
layerId = "2B03D00A-B4C8-4D37-BEFC-80CF5F8B5BB8";
paths = (
{
closed = 1;
nodes = (
"178 0 LINE",
"250 0 LINE",
"697 740 LINE",
"625 740 LINE"
);
},
{
closed = 1;
nodes = (
"526 232 OFFCURVE",
"574 265 OFFCURVE",
"625 265 CURVE SMOOTH",
"676 265 OFFCURVE",
"723 232 OFFCURVE",
"723 154 CURVE SMOOTH",
"723 77 OFFCURVE",
"676 43 OFFCURVE",
"625 43 CURVE SMOOTH",
"574 43 OFFCURVE",
"526 76 OFFCURVE",
"526 154 CURVE SMOOTH"
);
},
{
closed = 1;
nodes = (
"466 53 OFFCURVE",
"531 -14 OFFCURVE",
"625 -14 CURVE SMOOTH",
"719 -14 OFFCURVE",
"783 54 OFFCURVE",
"783 154 CURVE SMOOTH",
"783 254 OFFCURVE",
"719 321 OFFCURVE",
"625 321 CURVE SMOOTH",
"531 321 OFFCURVE",
"466 254 OFFCURVE",
"466 154 CURVE SMOOTH"
);
},
{
closed = 1;
nodes = (
"151 661 OFFCURVE",
"199 694 OFFCURVE",
"250 694 CURVE SMOOTH",
"301 694 OFFCURVE",
"348 661 OFFCURVE",
"348 583 CURVE SMOOTH",
"348 506 OFFCURVE",
"301 472 OFFCURVE",
"250 472 CURVE SMOOTH",
"199 472 OFFCURVE",
"151 505 OFFCURVE",
"151 583 CURVE SMOOTH"
);
},
{
closed = 1;
nodes = (
"91 482 OFFCURVE",
"156 415 OFFCURVE",
"250 415 CURVE SMOOTH",
"344 415 OFFCURVE",
"408 483 OFFCURVE",
"408 583 CURVE SMOOTH",
"408 683 OFFCURVE",
"344 750 OFFCURVE",
"250 750 CURVE SMOOTH",
"156 750 OFFCURVE",
"91 683 OFFCURVE",
"91 583 CURVE SMOOTH"
);
}
);
width = 871;
},
{
hints = (
{
place = "{91, 60}";
type = Stem;
},
{
place = "{348, 60}";
type = Stem;
},
{
horizontal = 1;
place = "{415, 57}";
type = Stem;
},
{
horizontal = 1;
place = "{694, 56}";
type = Stem;
}
);
layerId = "C9474598-BCEA-4A64-AEC8-6AD11FF1C3BE";
paths = (
{
closed = 1;
nodes = (
"178 0 LINE",
"250 0 LINE",
"697 740 LINE",
"625 740 LINE"
);
},
{
closed = 1;
nodes = (
"526 232 OFFCURVE",
"574 265 OFFCURVE",
"625 265 CURVE SMOOTH",
"676 265 OFFCURVE",
"723 232 OFFCURVE",
"723 154 CURVE SMOOTH",
"723 77 OFFCURVE",
"676 43 OFFCURVE",
"625 43 CURVE SMOOTH",
"574 43 OFFCURVE",
"526 76 OFFCURVE",
"526 154 CURVE SMOOTH"
);
},
{
closed = 1;
nodes = (
"466 53 OFFCURVE",
"531 -14 OFFCURVE",
"625 -14 CURVE",
"719 -14 OFFCURVE",
"783 54 OFFCURVE",
"783 154 CURVE SMOOTH",
"783 254 OFFCURVE",
"719 321 OFFCURVE",
"625 321 CURVE SMOOTH",
"531 321 OFFCURVE",
"466 254 OFFCURVE",
"466 154 CURVE SMOOTH"
);
},
{
closed = 1;
nodes = (
"151 661 OFFCURVE",
"199 694 OFFCURVE",
"250 694 CURVE SMOOTH",
"301 694 OFFCURVE",
"348 661 OFFCURVE",
"348 583 CURVE SMOOTH",
"348 506 OFFCURVE",
"301 472 OFFCURVE",
"250 472 CURVE SMOOTH",
"199 472 OFFCURVE",
"151 505 OFFCURVE",
"151 583 CURVE SMOOTH"
);
},
{
closed = 1;
nodes = (
"91 482 OFFCURVE",
"156 415 OFFCURVE",
"250 415 CURVE",
"344 415 OFFCURVE",
"408 483 OFFCURVE",
"408 583 CURVE SMOOTH",
"408 683 OFFCURVE",
"344 750 OFFCURVE",
"250 750 CURVE SMOOTH",
"156 750 OFFCURVE",
"91 683 OFFCURVE",
"91 583 CURVE SMOOTH"
);
}
);
width = 871;
}
);
unicode = 0025;
},
{
glyphname = ampersand;
layers = (
{
layerId = "C26E6862-625E-4D03-9322-DC3496ADAC37";
name = Backup;
paths = (
{
closed = 1;
nodes = (
"571 73 LINE",
"158 483 LINE SMOOTH",
"139 501 OFFCURVE",
"121 536 OFFCURVE",
"121 596 CURVE SMOOTH",
"121 687 OFFCURVE",
"205 749 OFFCURVE",
"307 749 CURVE SMOOTH",
"406 749 OFFCURVE",
"493 681 OFFCURVE",
"493 572 CURVE SMOOTH",
"493 493 OFFCURVE",
"444 438 OFFCURVE",
"396 405 CURVE SMOOTH",
"233 292 LINE SMOOTH",
"188 261 OFFCURVE",
"165 226 OFFCURVE",
"165 177 CURVE",
"165 114 OFFCURVE",
"232 69 OFFCURVE",
"325 69 CURVE",
"468 69 OFFCURVE",
"530 131 OFFCURVE",
"531 273 CURVE",
"620 253 LINE",
"602 70 OFFCURVE",
"509 -15 OFFCURVE",
"325 -15 CURVE",
"163 -15 OFFCURVE",
"60 58 OFFCURVE",
"60 172 CURVE",
"60 234 OFFCURVE",
"98 300 OFFCURVE",
"171 351 CURVE SMOOTH",
"342 469 LINE SMOOTH",
"386 499 OFFCURVE",
"407 527 OFFCURVE",
"407 572 CURVE SMOOTH",
"407 634 OFFCURVE",
"373 669 OFFCURVE",
"307 669 CURVE SMOOTH",
"241 669 OFFCURVE",
"207 631 OFFCURVE",
"207 585 CURVE SMOOTH",
"207 542 OFFCURVE",
"249 519 OFFCURVE",
"249 519 CURVE SMOOTH",
"624 130 LINE"
);
}
);
width = 709;
},
{
hints = (
{
place = "{57, 90}";
type = Stem;
},
{
place = "{122, 84}";
type = Stem;
},
{
place = "{412, 84}";
type = Stem;
},
{
horizontal = 1;
place = "{-15, 84}";
type = Stem;
},
{
horizontal = 1;
place = "{670, 80}";
type = Stem;
}
);
layerId = "2B03D00A-B4C8-4D37-BEFC-80CF5F8B5BB8";
paths = (
{
closed = 1;
nodes = (
"652 314 LINE",
"624 215 OFFCURVE",
"529 -15 OFFCURVE",
"291 -15 CURVE SMOOTH",
"138 -15 OFFCURVE",
"57 78 OFFCURVE",
"57 188 CURVE SMOOTH",
"57 273 OFFCURVE",
"106 342 OFFCURVE",
"201 396 CURVE SMOOTH",
"295 449 LINE SMOOTH",
"373 493 OFFCURVE",
"412 537 OFFCURVE",
"412 581 CURVE SMOOTH",
"412 624 OFFCURVE",
"376 670 OFFCURVE",
"314 670 CURVE SMOOTH",
"249 670 OFFCURVE",
"206 625 OFFCURVE",
"206 577 CURVE SMOOTH",
"206 542 OFFCURVE",
"230 513 OFFCURVE",
"252 490 CURVE SMOOTH",
"666 46 LINE",
"606 -15 LINE",
"179 442 LINE SMOOTH",
"158 464 OFFCURVE",
"122 515 OFFCURVE",
"122 578 CURVE SMOOTH",
"122 673 OFFCURVE",
"202 750 OFFCURVE",
"315 750 CURVE SMOOTH",
"427 750 OFFCURVE",
"496 674 OFFCURVE",
"496 585 CURVE SMOOTH",
"496 507 OFFCURVE",
"443 442 OFFCURVE",
"343 386 CURVE SMOOTH",
"254 336 LINE SMOOTH",
"201 306 OFFCURVE",
"147 266 OFFCURVE",
"147 193 CURVE SMOOTH",
"147 123 OFFCURVE",
"197 69 OFFCURVE",
"291 69 CURVE SMOOTH",
"476 69 OFFCURVE",
"559 273 OFFCURVE",
"559 336 CURVE"
);
}
);
width = 709;
},
{
hints = (
{
place = "{57, 90}";
type = Stem;
},
{
place = "{122, 84}";
type = Stem;
},
{
place = "{412, 84}";
type = Stem;
},
{
horizontal = 1;
place = "{-15, 84}";
type = Stem;
},
{
horizontal = 1;
place = "{670, 80}";
type = Stem;
}
);
layerId = "C9474598-BCEA-4A64-AEC8-6AD11FF1C3BE";
paths = (
{
closed = 1;
nodes = (
"652 314 LINE",
"624 215 OFFCURVE",
"529 -15 OFFCURVE",
"291 -15 CURVE SMOOTH",
"138 -15 OFFCURVE",
"57 78 OFFCURVE",
"57 188 CURVE SMOOTH",
"57 273 OFFCURVE",
"106 342 OFFCURVE",
"201 396 CURVE SMOOTH",
"295 449 LINE SMOOTH",
"373 493 OFFCURVE",
"412 537 OFFCURVE",
"412 581 CURVE SMOOTH",
"412 624 OFFCURVE",
"376 670 OFFCURVE",
"314 670 CURVE SMOOTH",
"249 670 OFFCURVE",
"206 625 OFFCURVE",
"206 577 CURVE SMOOTH",
"206 542 OFFCURVE",
"230 513 OFFCURVE",
"252 490 CURVE SMOOTH",
"666 46 LINE",
"606 -15 LINE",
"179 442 LINE SMOOTH",
"158 464 OFFCURVE",
"122 515 OFFCURVE",
"122 578 CURVE SMOOTH",
"122 673 OFFCURVE",
"202 750 OFFCURVE",
"315 750 CURVE SMOOTH",
"427 750 OFFCURVE",
"496 674 OFFCURVE",
"496 585 CURVE SMOOTH",
"496 507 OFFCURVE",
"443 442 OFFCURVE",
"343 386 CURVE SMOOTH",
"254 336 LINE SMOOTH",
"201 306 OFFCURVE",
"147 266 OFFCURVE",
"147 193 CURVE SMOOTH",
"147 123 OFFCURVE",
"197 69 OFFCURVE",
"291 69 CURVE SMOOTH",
"476 69 OFFCURVE",
"559 273 OFFCURVE",
"559 336 CURVE"
);
}
);
width = 709;
}
);
unicode = 0026;
},
{
glyphname = parenleft;
layers = (
{
layerId = "C26E6862-625E-4D03-9322-DC3496ADAC37";
name = Backup;
width = 359;
},
{
hints = (
{
place = "{92, 66}";
type = Stem;
}
);
layerId = "2B03D00A-B4C8-4D37-BEFC-80CF5F8B5BB8";
paths = (
{
closed = 1;
nodes = (
"92 492 OFFCURVE",
"131 660 OFFCURVE",
"257 802 CURVE",
"304 763 LINE",
"192 628 OFFCURVE",
"158 479 OFFCURVE",
"158 340 CURVE SMOOTH",
"158 201 OFFCURVE",
"192 52 OFFCURVE",
"304 -83 CURVE",
"257 -122 LINE",
"131 20 OFFCURVE",
"92 188 OFFCURVE",
"92 340 CURVE SMOOTH"
);
}
);
width = 359;
},
{
hints = (
{
place = "{92, 66}";
type = Stem;
}
);
layerId = "C9474598-BCEA-4A64-AEC8-6AD11FF1C3BE";
paths = (
{
closed = 1;
nodes = (
"92 492 OFFCURVE",
"131 660 OFFCURVE",
"257 802 CURVE",
"304 763 LINE",
"192 628 OFFCURVE",
"158 479 OFFCURVE",
"158 340 CURVE SMOOTH",
"158 201 OFFCURVE",
"192 52 OFFCURVE",
"304 -83 CURVE",
"257 -122 LINE",
"131 20 OFFCURVE",
"92 188 OFFCURVE",
"92 340 CURVE SMOOTH"
);
}
);
width = 359;
}
);
unicode = 0028;
},
{
color = (255, 153, 153, 255);
glyphname = asterisk;
layers = (
{
guideLines = (
{
angle = 90;
position = "{261, 0}";
},
{
position = "{0, 570}";
}
);
hints = (
{
place = "{72, 56}";
type = Stem;
},
{
horizontal = 1;
place = "{686, -20}";
target = down;
type = TopGhost;
}
);
layerId = "2B03D00A-B4C8-4D37-BEFC-80CF5F8B5BB8";
paths = (
{
closed = 1;
nodes = (
"235 570 LINE",
"225 740 LINE",
"299 740 LINE",
"287 570 LINE",
"289 400 LINE",
"231 400 LINE"
);
},
{
closed = 1;
nodes = (
"274.22 592.523 LINE",
"426.44 516.183 LINE",
"389.44 452.099 LINE",
"248.22 547.491 LINE",
"100. 630.759 LINE",
"129. 680.987 LINE"
);
},
{
closed = 1;
nodes = (
"248.22 592.523 LINE",
"390.44 686.183 LINE",
"427.44 622.099 LINE",
"274.22 547.491 LINE",
"128. 460.759 LINE",
"99. 510.987 LINE"
);
}
);
width = 526;
},
{
layerId = "C26E6862-625E-4D03-9322-DC3496ADAC37";
name = Backup;
paths = (
{
closed = 1;
nodes = (
"235 570 LINE",
"225 740 LINE",
"299 740 LINE",
"287 570 LINE",
"289 400 LINE",
"231 400 LINE"
);
},
{
closed = 1;
nodes = (
"274.22 592.523 LINE",
"426.44 516.183 LINE",
"389.44 452.099 LINE",
"248.22 547.491 LINE",
"100. 630.759 LINE",
"129. 680.987 LINE"
);
},
{
closed = 1;
nodes = (
"248.22 592.523 LINE",
"390.44 686.183 LINE",
"427.44 622.099 LINE",
"274.22 547.491 LINE",
"128. 460.759 LINE",
"99. 510.987 LINE"
);
}
);
width = 551;
},
{
guideLines = (
{
angle = 90;
position = "{261, 0}";
},
{
position = "{0, 570}";
}
);
hints = (
{
place = "{72, 56}";
type = Stem;
},
{
horizontal = 1;
place = "{686, -20}";
target = down;
type = TopGhost;
}
);
layerId = "C9474598-BCEA-4A64-AEC8-6AD11FF1C3BE";
paths = (
{
closed = 1;
nodes = (
"235 570 LINE",
"223 740 LINE",
"301 740 LINE",
"287 570 LINE"
);
},
{
closed = 1;
nodes = (
"253.626 544.322 LINE",
"88.231 585.439 LINE",
"112.333 659.625 LINE",
"269.694 593.78 LINE"
);
},
{
closed = 1;
nodes = (
"283.857 585.874 LINE",
"393.491 455.398 LINE",
"330.389 409.549 LINE",
"241.789 555.309 LINE"
);
},
{
closed = 1;
nodes = (
"283.839 554.141 LINE",
"193.621 409.558 LINE",
"130.519 455.406 LINE",
"241.771 584.707 LINE"
);
},
{
closed = 1;
nodes = (
"253.678 595.657 LINE",
"411.657 659.6 LINE",
"435.759 585.414 LINE",
"269.746 546.2 LINE"
);
}
);
width = 526;
}
);
unicode = 002A;
},
{
color = (154, 153, 255, 255);
glyphname = comma;
layers = (
{
layerId = "C26E6862-625E-4D03-9322-DC3496ADAC37";
name = Backup;
width = 260;
},
{
components = (
{
name = period;
transform = "{1, 0, 0, 1, 18, 0}";
alignment = -1;
}
);
hints = (
{
place = "{84, 110}";
type = Stem;
},
{
horizontal = 1;
place = "{-92, 35}";
type = Stem;
},
{
horizontal = 1;
place = "{0, 120}";
type = Stem;
}
);
layerId = "2B03D00A-B4C8-4D37-BEFC-80CF5F8B5BB8";
paths = (
{
closed = 1;
nodes = (
"154 0 LINE",
"154 -37 OFFCURVE",
"151 -57 OFFCURVE",
"130 -57 CURVE SMOOTH",
"119 -57 OFFCURVE",
"107 -51 OFFCURVE",
"107 -26 CURVE",
"66 -25 LINE",
"66 -68 OFFCURVE",
"98 -92 OFFCURVE",
"129 -92 CURVE SMOOTH",
"180 -92 OFFCURVE",
"194 -60 OFFCURVE",
"194 0 CURVE"
);
}
);
width = 260;
},
{
components = (
{
name = period;
transform = "{1, 0, 0, 1, 18, 0}";
alignment = -1;
}
);
hints = (
{
place = "{84, 110}";
type = Stem;
},
{
horizontal = 1;
place = "{-92, 35}";
type = Stem;
},
{
horizontal = 1;
place = "{0, 120}";
type = Stem;
}
);
layerId = "C9474598-BCEA-4A64-AEC8-6AD11FF1C3BE";
paths = (
{
closed = 1;
nodes = (
"154 0 LINE",
"154 -37 OFFCURVE",
"151 -57 OFFCURVE",
"130 -57 CURVE SMOOTH",
"119 -57 OFFCURVE",
"107 -51 OFFCURVE",
"107 -26 CURVE",
"66 -25 LINE",
"66 -68 OFFCURVE",
"98 -92 OFFCURVE",
"129 -92 CURVE SMOOTH",
"180 -92 OFFCURVE",
"194 -60 OFFCURVE",
"194 0 CURVE"
);
}
);
width = 260;
}
);
leftKerningGroup = comma;
rightKerningGroup = comma1;
unicode = 002C;
},
{
color = (153, 254, 255, 255);
glyphname = period;
layers = (
{
layerId = "C26E6862-625E-4D03-9322-DC3496ADAC37";
name = Backup;
width = 242;
},
{
hints = (
{
place = "{66, 110}";
type = Stem;
},
{
horizontal = 1;
place = "{0, 120}";
type = Stem;
}
);
layerId = "2B03D00A-B4C8-4D37-BEFC-80CF5F8B5BB8";
paths = (
{
closed = 1;
nodes = (
"66 0 LINE",
"176 0 LINE",
"176 120 LINE",
"66 120 LINE"
);
}
);
width = 242;
},
{
hints = (
{
place = "{66, 110}";
type = Stem;
},
{
horizontal = 1;
place = "{0, 120}";
type = Stem;
}
);
layerId = "C9474598-BCEA-4A64-AEC8-6AD11FF1C3BE";
paths = (
{
closed = 1;
nodes = (
"66 0 LINE",
"176 0 LINE",
"176 120 LINE",
"66 120 LINE"
);
}
);
width = 242;
}
);
leftKerningGroup = period;
rightKerningGroup = period1;
unicode = 002E;
},
{
glyphname = slash;
layers = (
{
layerId = "C26E6862-625E-4D03-9322-DC3496ADAC37";
name = Backup;
width = 361;
},
{
hints = (
{
horizontal = 1;
place = "{0, 21}";
target = up;
type = BottomGhost;
},
{
horizontal = 1;
place = "{740, -20}";
target = down;
type = TopGhost;
}
);
layerId = "2B03D00A-B4C8-4D37-BEFC-80CF5F8B5BB8";
paths = (
{
closed = 1;
nodes = (
"22 0 LINE",
"86 0 LINE",
"336 740 LINE",
"272 740 LINE"
);
}
);
width = 361;
},
{
hints = (
{
horizontal = 1;
place = "{0, 21}";
target = up;
type = BottomGhost;
},
{
horizontal = 1;
place = "{740, -20}";
target = down;
type = TopGhost;
}
);
layerId = "C9474598-BCEA-4A64-AEC8-6AD11FF1C3BE";
paths = (
{
closed = 1;
nodes = (
"22 0 LINE",
"86 0 LINE",
"336 740 LINE",
"272 740 LINE"
);
}
);
width = 361;
}
);
unicode = 002F;
},
{
glyphname = zero;
layers = (
{
layerId = "C26E6862-625E-4D03-9322-DC3496ADAC37";
name = Backup;
paths = (
{
closed = 1;
nodes = (
"172 159 OFFCURVE",
"311 68 OFFCURVE",
"448 68 CURVE SMOOTH",
"585 68 OFFCURVE",
"724 159 OFFCURVE",
"724 368 CURVE SMOOTH",
"724 577 OFFCURVE",
"585 668 OFFCURVE",
"448 668 CURVE SMOOTH",
"311 668 OFFCURVE",
"172 577 OFFCURVE",
"172 368 CURVE SMOOTH"
);
},
{
closed = 1;
nodes = (
"88 598 OFFCURVE",
"232 750 OFFCURVE",
"448 750 CURVE SMOOTH",
"664 750 OFFCURVE",
"808 598 OFFCURVE",
"808 368 CURVE SMOOTH",
"808 138 OFFCURVE",
"664 -14 OFFCURVE",
"448 -14 CURVE SMOOTH",
"232 -14 OFFCURVE",
"88 138 OFFCURVE",
"88 368 CURVE SMOOTH"
);
},
{
closed = 1;
nodes = (
"172 159 OFFCURVE",
"311 68 OFFCURVE",
"448 68 CURVE SMOOTH",
"585 68 OFFCURVE",
"724 159 OFFCURVE",
"724 368 CURVE SMOOTH",
"724 577 OFFCURVE",
"585 668 OFFCURVE",
"448 668 CURVE SMOOTH",
"311 668 OFFCURVE",
"172 577 OFFCURVE",
"172 368 CURVE SMOOTH"
);
},
{
closed = 1;
nodes = (
"88 598 OFFCURVE",
"232 750 OFFCURVE",
"448 750 CURVE SMOOTH",
"664 750 OFFCURVE",
"808 598 OFFCURVE",
"808 368 CURVE SMOOTH",
"808 138 OFFCURVE",
"664 -14 OFFCURVE",
"448 -14 CURVE SMOOTH",
"232 -14 OFFCURVE",
"88 138 OFFCURVE",
"88 368 CURVE SMOOTH"
);
}
);
width = 896;
},
{
hints = (
{
place = "{88, 86}";
type = Stem;
},
{
place = "{554, 86}";
type = Stem;
},
{
horizontal = 1;
place = "{-15, 82}";
type = Stem;
},
{
horizontal = 1;
place = "{673, 82}";
type = Stem;
}
);
layerId = "2B03D00A-B4C8-4D37-BEFC-80CF5F8B5BB8";
paths = (
{
closed = 1;
nodes = (
"201 754 OFFCURVE",
"88 602 OFFCURVE",
"88 371 CURVE SMOOTH",
"88 138 OFFCURVE",
"201 -14 OFFCURVE",
"369 -14 CURVE SMOOTH",
"538 -14 OFFCURVE",
"650 138 OFFCURVE",
"650 371 CURVE SMOOTH",
"650 602 OFFCURVE",
"538 754 OFFCURVE",
"369 754 CURVE SMOOTH"
);
},
{
closed = 1;
nodes = (
"290 103 OFFCURVE",
"209 184 OFFCURVE",
"209 372 CURVE SMOOTH",
"209 558 OFFCURVE",
"290 637 OFFCURVE",
"369 637 CURVE SMOOTH",
"449 637 OFFCURVE",
"529 557 OFFCURVE",
"529 371 CURVE SMOOTH",
"529 183 OFFCURVE",
"449 103 OFFCURVE",
"369 103 CURVE SMOOTH"
);
}
);
width = 738;
},
{
hints = (
{
place = "{88, 86}";
type = Stem;
},
{
place = "{554, 86}";
type = Stem;
},
{
horizontal = 1;
place = "{-15, 82}";
type = Stem;
},
{
horizontal = 1;
place = "{673, 82}";
type = Stem;
}
);
layerId = "C9474598-BCEA-4A64-AEC8-6AD11FF1C3BE";
paths = (
{
closed = 1;
nodes = (
"174 158 OFFCURVE",
"270 67 OFFCURVE",
"364 67 CURVE SMOOTH",
"458 67 OFFCURVE",
"554 157 OFFCURVE",
"554 371 CURVE SMOOTH",
"554 583 OFFCURVE",
"458 673 OFFCURVE",
"364 673 CURVE SMOOTH",
"270 673 OFFCURVE",
"174 584 OFFCURVE",
"174 372 CURVE SMOOTH"
);
},
{
closed = 1;
nodes = (
"88 602 OFFCURVE",
"199 755 OFFCURVE",
"364 755 CURVE SMOOTH",
"529 755 OFFCURVE",
"640 602 OFFCURVE",
"640 371 CURVE SMOOTH",
"640 138 OFFCURVE",
"529 -15 OFFCURVE",
"364 -15 CURVE SMOOTH",
"199 -15 OFFCURVE",
"88 138 OFFCURVE",
"88 371 CURVE SMOOTH"
);
}
);
width = 728;
}
);
unicode = 0030;
},
{
glyphname = one;
layers = (
{
layerId = "C26E6862-625E-4D03-9322-DC3496ADAC37";
name = Backup;
width = 473;
},
{
hints = (
{
place = "{221, 128}";
type = Stem;
},
{
horizontal = 1;
place = "{-21, 63}";
type = Stem;
},
{
horizontal = 1;
place = "{761, -20}";
target = down;
type = TopGhost;
}
);
layerId = "2B03D00A-B4C8-4D37-BEFC-80CF5F8B5BB8";
paths = (
{
closed = 1;
nodes = (
"66 643 LINE",
"66 509 LINE",
"229 598 LINE",
"229 0 LINE",
"350 0 LINE",
"350 740 LINE",
"244 740 LINE"
);
}
);
width = 498;
},
{
hints = (
{
place = "{239, 86}";
type = Stem;
},
{
horizontal = 1;
place = "{0, 21}";
target = up;
type = BottomGhost;
},
{
horizontal = 1;
place = "{740, -20}";
target = down;
type = TopGhost;
}
);
layerId = "C9474598-BCEA-4A64-AEC8-6AD11FF1C3BE";
paths = (
{
closed = 1;
nodes = (
"239 0 LINE",
"325 0 LINE",
"325 740 LINE",
"239 740 LINE"
);
},
{
closed = 1;
nodes = (
"66 553 LINE",
"239 647 LINE",
"239 740 LINE",
"66 646 LINE"
);
}
);
width = 473;
}
);
unicode = 0031;
},
{
glyphname = two;
layers = (
{
layerId = "C26E6862-625E-4D03-9322-DC3496ADAC37";
name = Backup;
width = 667;
},
{
hints = (
{
place = "{456, 128}";
type = Stem;
},
{
horizontal = 1;
place = "{-20, 128}";
type = Stem;
},
{
horizontal = 1;
place = "{648, 124}";
type = Stem;
}
);
layerId = "2B03D00A-B4C8-4D37-BEFC-80CF5F8B5BB8";
paths = (
{
closed = 1;
nodes = (
"99 1 LINE",
"582 1 LINE",
"582 122 LINE",
"303 122 LINE",
"549 316 OFFCURVE",
"573 437 OFFCURVE",
"573 526 CURVE SMOOTH",
"573 665 OFFCURVE",
"482 750 OFFCURVE",
"346 750 CURVE SMOOTH",
"203 750 OFFCURVE",
"117 657 OFFCURVE",
"117 513 CURVE",
"239 524 LINE",
"239 590 OFFCURVE",
"279 633 OFFCURVE",
"346 633 CURVE SMOOTH",
"410 633 OFFCURVE",
"452 592 OFFCURVE",
"452 527 CURVE SMOOTH",
"452 519 LINE SMOOTH",
"452 466 OFFCURVE",
"439 356 OFFCURVE",
"99 113 CURVE"
);
}
);
width = 681;
},
{
hints = (
{
place = "{472, 86}";
type = Stem;
},
{
horizontal = 1;
place = "{1, 86}";
type = Stem;
},
{
horizontal = 1;
place = "{669, 82}";
type = Stem;
}
);
layerId = "C9474598-BCEA-4A64-AEC8-6AD11FF1C3BE";
paths = (
{
closed = 1;
nodes = (
"205 552 LINE",
"205 623 OFFCURVE",
"256 669 OFFCURVE",
"339 669 CURVE SMOOTH",
"420 669 OFFCURVE",
"472 618 OFFCURVE",
"472 536 CURVE SMOOTH",
"472 479 OFFCURVE",
"481 360 OFFCURVE",
"99 87 CURVE",
"99 1 LINE",
"568 1 LINE",
"568 87 LINE",
"182 87 LINE",
"182 52 LINE",
"530 297 OFFCURVE",
"558 435 OFFCURVE",
"558 535 CURVE SMOOTH",
"558 669 OFFCURVE",
"470 751 OFFCURVE",
"339 751 CURVE SMOOTH",
"201 751 OFFCURVE",
"118 669 OFFCURVE",
"118 544 CURVE"
);
}
);
width = 667;
}
);
unicode = 0032;
},
{
glyphname = three;
layers = (
{
layerId = "C26E6862-625E-4D03-9322-DC3496ADAC37";
name = Backup;
width = 742;
},
{
guideLines = (
{
angle = 90;
position = "{346, 0}";
}
);
hints = (
{
place = "{112, 86}";
type = Stem;
},
{
place = "{537, 86}";
type = Stem;
},
{
place = "{501, 85}";
type = Stem;
},
{
horizontal = 1;
place = "{-13, 82}";
type = Stem;
},
{
horizontal = 1;
place = "{356, 86}";
type = Stem;
},
{
horizontal = 1;
place = "{669, 82}";
type = Stem;
}
);
layerId = "2B03D00A-B4C8-4D37-BEFC-80CF5F8B5BB8";
paths = (
{
closed = 1;
nodes = (
"530 -12 OFFCURVE",
"635 79 OFFCURVE",
"635 216 CURVE SMOOTH",
"635 299 OFFCURVE",
"595 365 OFFCURVE",
"528 404 CURVE",
"575 440 OFFCURVE",
"600 491 OFFCURVE",
"600 554 CURVE SMOOTH",
"600 672 OFFCURVE",
"509 750 OFFCURVE",
"373 750 CURVE SMOOTH",
"237 750 OFFCURVE",
"146 672 OFFCURVE",
"146 554 CURVE SMOOTH",
"146 549 OFFCURVE",
"147 536 OFFCURVE",
"149 517 CURVE",
"266 523 LINE",
"266 546 LINE",
"267 598 OFFCURVE",
"309 633 OFFCURVE",
"373 633 CURVE SMOOTH",
"437 633 OFFCURVE",
"480 599 OFFCURVE",
"480 546 CURVE SMOOTH",
"480 492 OFFCURVE",
"430 458 OFFCURVE",
"328 458 CURVE",
"328 337 LINE",
"451 337 OFFCURVE",
"514 292 OFFCURVE",
"514 221 CURVE SMOOTH",
"514 151 OFFCURVE",
"457 105 OFFCURVE",
"373 105 CURVE SMOOTH",
"291 105 OFFCURVE",
"236 153 OFFCURVE",
"232 218 CURVE",
"112 222 LINE",
"112 200 LINE SMOOTH",
"112 79 OFFCURVE",
"216 -12 OFFCURVE",
"373 -12 CURVE SMOOTH"
);
}
);
width = 754;
},
{
guideLines = (
{
angle = 90;
position = "{340, 0}";
}
);
hints = (
{
place = "{112, 86}";
type = Stem;
},
{
place = "{537, 86}";
type = Stem;
},
{
place = "{501, 85}";
type = Stem;
},
{
horizontal = 1;
place = "{-13, 82}";
type = Stem;
},
{
horizontal = 1;
place = "{356, 86}";
type = Stem;
},
{
horizontal = 1;
place = "{669, 82}";
type = Stem;
}
);
layerId = "C9474598-BCEA-4A64-AEC8-6AD11FF1C3BE";
paths = (
{
closed = 1;
nodes = (
"112 192 LINE",
"111 75 OFFCURVE",
"213 -13 OFFCURVE",
"367 -13 CURVE SMOOTH",
"520 -13 OFFCURVE",
"623 75 OFFCURVE",
"623 207 CURVE SMOOTH",
"623 338 OFFCURVE",
"520 426 OFFCURVE",
"367 426 CURVE",
"367 377 LINE",
"497 377 OFFCURVE",
"586 453 OFFCURVE",
"586 565 CURVE SMOOTH",
"586 676 OFFCURVE",
"498 751 OFFCURVE",
"367 751 CURVE SMOOTH",
"229 751 OFFCURVE",
"139 668 OFFCURVE",
"149 547 CURVE",
"233 552 LINE",
"231 623 OFFCURVE",
"284 669 OFFCURVE",
"367 669 CURVE SMOOTH",
"448 669 OFFCURVE",
"501 625 OFFCURVE",
"501 556 CURVE SMOOTH",
"501 486 OFFCURVE",
"448 442 OFFCURVE",
"340 442 CURVE",
"340 356 LINE",
"470 356 OFFCURVE",
"537 301 OFFCURVE",
"537 213 CURVE SMOOTH",
"537 125 OFFCURVE",
"469 69 OFFCURVE",
"367 69 CURVE SMOOTH",
"268 69 OFFCURVE",
"202 120 OFFCURVE",
"198 189 CURVE"
);
}
);
width = 742;
}
);
unicode = 0033;
},
{
glyphname = four;
layers = (
{
layerId = "C26E6862-625E-4D03-9322-DC3496ADAC37";
name = Backup;
width = 685;
},
{
hints = (
{
place = "{419, 86}";
type = Stem;
},
{
horizontal = 1;
place = "{191, 80}";
type = Stem;
},
{
horizontal = 1;
place = "{740, -20}";
target = down;
type = TopGhost;
},
{
horizontal = 1;
place = "{0, 42}";
type = Stem;
}
);
layerId = "2B03D00A-B4C8-4D37-BEFC-80CF5F8B5BB8";
paths = (
{
closed = 1;
nodes = (
"88 181 LINE",
"401 181 LINE",
"401 0 LINE",
"523 0 LINE",
"523 181 LINE",
"610 181 LINE",
"610 296 LINE",
"523 296 LINE",
"523 740 LINE",
"401 740 LINE",
"88 283 LINE"
);
},
{
closed = 1;
nodes = (
"238 296 LINE",
"401 536 LINE",
"401 296 LINE"
);
}
);
width = 698;
},
{
hints = (
{
place = "{419, 86}";
type = Stem;
},
{
horizontal = 1;
place = "{191, 80}";
type = Stem;
},
{
horizontal = 1;
place = "{740, -20}";
target = down;
type = TopGhost;
},
{
horizontal = 1;
place = "{0, 21}";
target = up;
type = BottomGhost;
}
);
layerId = "C9474598-BCEA-4A64-AEC8-6AD11FF1C3BE";
paths = (
{
closed = 1;
nodes = (
"88 271 LINE",
"185 271 LINE",
"505 740 LINE",
"408 740 LINE"
);
},
{
closed = 1;
nodes = (
"597 271 LINE",
"88 271 LINE",
"88 191 LINE",
"597 191 LINE"
);
},
{
closed = 1;
nodes = (
"419 0 LINE",
"505 0 LINE",
"505 740 LINE",
"419 740 LINE"
);
}
);
width = 685;
}
);
unicode = 0034;
},
{
glyphname = five;
layers = (
{
layerId = "C26E6862-625E-4D03-9322-DC3496ADAC37";
name = Backup;
width = 684;
},
{
hints = (
{
place = "{88, 86}";
type = Stem;
},
{
place = "{510, 86}";
type = Stem;
},
{
horizontal = 1;
place = "{-13, 82}";
type = Stem;
},
{
horizontal = 1;
place = "{398, 78}";
type = Stem;
},
{
horizontal = 1;
place = "{660, 80}";
type = Stem;
}
);
layerId = "2B03D00A-B4C8-4D37-BEFC-80CF5F8B5BB8";
paths = (
{
closed = 1;
nodes = (
"512 -12 OFFCURVE",
"609 88 OFFCURVE",
"609 240 CURVE SMOOTH",
"609 393 OFFCURVE",
"503 490 OFFCURVE",
"359 490 CURVE SMOOTH",
"320 490 OFFCURVE",
"288 484 OFFCURVE",
"260 469 CURVE",
"279 624 LINE",
"566 624 LINE",
"566 740 LINE",
"172 740 LINE",
"125 377 LINE",
"226 304 LINE",
"259 353 OFFCURVE",
"306 377 OFFCURVE",
"352 377 CURVE SMOOTH",
"422 377 OFFCURVE",
"488 335 OFFCURVE",
"488 240 CURVE SMOOTH",
"488 146 OFFCURVE",
"420 105 OFFCURVE",
"350 105 CURVE SMOOTH",
"268 105 OFFCURVE",
"212 153 OFFCURVE",
"209 218 CURVE",
"88 222 LINE",
"88 200 LINE SMOOTH",
"88 79 OFFCURVE",
"193 -12 OFFCURVE",
"350 -12 CURVE SMOOTH"
);
}
);
width = 697;
},
{
hints = (
{
place = "{88, 86}";
type = Stem;
},
{
place = "{510, 86}";
type = Stem;
},
{
horizontal = 1;
place = "{-13, 82}";
type = Stem;
},
{
horizontal = 1;
place = "{398, 78}";
type = Stem;
},
{
horizontal = 1;
place = "{660, 80}";
type = Stem;
}
);
layerId = "C9474598-BCEA-4A64-AEC8-6AD11FF1C3BE";
paths = (
{
closed = 1;
nodes = (
"215 660 LINE",
"551 660 LINE",
"551 740 LINE",
"215 740 LINE"
);
},
{
closed = 1;
nodes = (
"129 387 LINE",
"207 330 LINE",
"260 740 LINE",
"174 740 LINE"
);
},
{
closed = 1;
nodes = (
"502 -13 OFFCURVE",
"596 85 OFFCURVE",
"596 233 CURVE SMOOTH",
"596 381 OFFCURVE",
"493 476 OFFCURVE",
"353 476 CURVE SMOOTH",
"281 476 OFFCURVE",
"228 448 OFFCURVE",
"192 409 CURVE",
"207 330 LINE",
"237 376 OFFCURVE",
"290 398 OFFCURVE",
"346 398 CURVE SMOOTH",
"431 398 OFFCURVE",
"510 348 OFFCURVE",
"510 233 CURVE SMOOTH",
"510 118 OFFCURVE",
"429 69 OFFCURVE",
"344 69 CURVE SMOOTH",
"245 69 OFFCURVE",
"178 120 OFFCURVE",
"174 189 CURVE",
"88 192 LINE",
"87 75 OFFCURVE",
"190 -13 OFFCURVE",
"344 -13 CURVE SMOOTH"
);
}
);
width = 684;
}
);
unicode = 0035;
},
{
glyphname = six;
layers = (
{
layerId = "C26E6862-625E-4D03-9322-DC3496ADAC37";
name = Backup;
paths = (
{
closed = 1;
nodes = (
"-447 354 OFFCURVE",
"-528 406 OFFCURVE",
"-615 406 CURVE SMOOTH",
"-703 406 OFFCURVE",
"-784 353 OFFCURVE",
"-784 233 CURVE",
"-784 112 OFFCURVE",
"-705 61 OFFCURVE",
"-617 61 CURVE SMOOTH",
"-530 61 OFFCURVE",
"-447 112 OFFCURVE",
"-447 233 CURVE SMOOTH"
);
},
{
closed = 1;
nodes = (
"-834 233 LINE",
"-838 327 OFFCURVE",
"-775 479 OFFCURVE",
"-608 479 CURVE SMOOTH",
"-468 479 OFFCURVE",
"-365 381 OFFCURVE",
"-365 233 CURVE SMOOTH",
"-365 85 OFFCURVE",
"-459 -13 OFFCURVE",
"-617 -13 CURVE SMOOTH",
"-752 -13 OFFCURVE",
"-873 62 OFFCURVE",
"-873 317 CURVE SMOOTH",
"-873 618 OFFCURVE",
"-766 750 OFFCURVE",
"-599 750 CURVE SMOOTH",
"-448 750 OFFCURVE",
"-365 643 OFFCURVE",
"-365 482 CURVE",
"-447 482 LINE",
"-447 618 OFFCURVE",
"-516 676 OFFCURVE",
"-599 676 CURVE SMOOTH",
"-694 676 OFFCURVE",
"-791 601 OFFCURVE",
"-791 318 CURVE"
);
},
{
closed = 1;
nodes = (
"251 552 LINE",
"251 629 OFFCURVE",
"266 670 OFFCURVE",
"364 670 CURVE SMOOTH",
"415 670 OFFCURVE",
"468 640 OFFCURVE",
"468 552 CURVE",
"554 549 LINE",
"554 693 OFFCURVE",
"459 750 OFFCURVE",
"360 750 CURVE SMOOTH",
"206 750 OFFCURVE",
"165 676 OFFCURVE",
"165 552 CURVE"
);
}
);
width = 572;
},
{
guideLines = (
{
position = "{0, 549}";
}
);
layerId = "2B03D00A-B4C8-4D37-BEFC-80CF5F8B5BB8";
paths = (
{
closed = 1;
nodes = (
"55 64 OFFCURVE",
"179 -12 OFFCURVE",
"317 -12 CURVE SMOOTH",
"479 -12 OFFCURVE",
"575 88 OFFCURVE",
"575 240 CURVE SMOOTH",
"575 393 OFFCURVE",
"469 490 OFFCURVE",
"326 490 CURVE SMOOTH",
"267 490 OFFCURVE",
"220 472 OFFCURVE",
"184 444 CURVE",
"207 593 OFFCURVE",
"270 632 OFFCURVE",
"334 632 CURVE SMOOTH",
"373 632 OFFCURVE",
"417 606 OFFCURVE",
"417 523 CURVE",
"539 519 LINE",
"539 684 OFFCURVE",
"440 749 OFFCURVE",
"334 749 CURVE SMOOTH",
"164 749 OFFCURVE",
"55 619 OFFCURVE",
"55 320 CURVE SMOOTH"
);
},
{
closed = 1;
nodes = (
"183 334 OFFCURVE",
"248 377 OFFCURVE",
"319 377 CURVE SMOOTH",
"389 377 OFFCURVE",
"454 335 OFFCURVE",
"454 240 CURVE SMOOTH",
"454 146 OFFCURVE",
"387 105 OFFCURVE",
"317 105 CURVE SMOOTH",
"246 105 OFFCURVE",
"183 146 OFFCURVE",
"183 240 CURVE SMOOTH"
);
}
);
width = 630;
},
{
components = (
{
name = nine;
transform = "{-1, 0, 0, -1, 618, 737}";
alignment = -1;
}
);
guideLines = (
{
position = "{0, 549}";
}
);
hints = (
{
place = "{477, 86}";
type = Stem;
},
{
place = "{438, 86}";
type = Stem;
},
{
place = "{55, 93}";
type = Stem;
},
{
horizontal = 1;
place = "{668, 82}";
type = Stem;
},
{
horizontal = 1;
place = "{398, 78}";
type = Stem;
},
{
horizontal = 1;
place = "{-13, 82}";
type = Stem;
}
);
layerId = "C9474598-BCEA-4A64-AEC8-6AD11FF1C3BE";
width = 618;
}
);
unicode = 0036;
},
{
glyphname = seven;
layers = (
{
layerId = "C26E6862-625E-4D03-9322-DC3496ADAC37";
name = Backup;
width = 667;
},
{
hints = (
{
horizontal = 1;
place = "{671, 80}";
type = Stem;
},
{
horizontal = 1;
place = "{0, 42}";
type = Stem;
}
);
layerId = "2B03D00A-B4C8-4D37-BEFC-80CF5F8B5BB8";
paths = (
{
closed = 1;
nodes = (
"434 635 LINE",
"217 374 OFFCURVE",
"234 11 OFFCURVE",
"234 11 CURVE",
"346 0 LINE",
"346 0 OFFCURVE",
"352 379 OFFCURVE",
"582 647 CURVE",
"582 750 LINE",
"99 750 LINE",
"99 635 LINE"
);
}
);
width = 681;
},
{
hints = (
{
horizontal = 1;
place = "{671, 80}";
type = Stem;
},
{
horizontal = 1;
place = "{0, 21}";
target = up;
type = BottomGhost;
}
);
layerId = "C9474598-BCEA-4A64-AEC8-6AD11FF1C3BE";
paths = (
{
closed = 1;
nodes = (
"318 0 LINE",
"318 0 OFFCURVE",
"325 388 OFFCURVE",
"568 671 CURVE",
"568 751 LINE",
"99 751 LINE",
"99 671 LINE",
"485 671 LINE",
"485 683 LINE",
"246 407 OFFCURVE",
"232 0 OFFCURVE",
"232 0 CURVE"
);
}
);
width = 667;
}
);
unicode = 0037;
},
{
glyphname = eight;
layers = (
{
layerId = "C26E6862-625E-4D03-9322-DC3496ADAC37";
name = Backup;
width = 750;
},
{
hints = (
{
place = "{119, 86}";
type = Stem;
},
{
place = "{156, 85}";
type = Stem;
},
{
place = "{509, 85}";
type = Stem;
},
{
place = "{545, 86}";
type = Stem;
},
{
horizontal = 1;
place = "{-13, 82}";
type = Stem;
},
{
horizontal = 1;
place = "{356, 86}";
type = Stem;
},
{
horizontal = 1;
place = "{669, 82}";
type = Stem;
}
);
layerId = "2B03D00A-B4C8-4D37-BEFC-80CF5F8B5BB8";
paths = (
{
closed = 1;
nodes = (
"119 79 OFFCURVE",
"223 -12 OFFCURVE",
"381 -12 CURVE SMOOTH",
"538 -12 OFFCURVE",
"643 79 OFFCURVE",
"643 216 CURVE SMOOTH",
"643 299 OFFCURVE",
"603 365 OFFCURVE",
"536 404 CURVE",
"582 440 OFFCURVE",
"608 491 OFFCURVE",
"608 554 CURVE SMOOTH",
"608 672 OFFCURVE",
"517 750 OFFCURVE",
"381 750 CURVE SMOOTH",
"245 750 OFFCURVE",
"154 672 OFFCURVE",
"154 554 CURVE SMOOTH",
"154 492 OFFCURVE",
"180 439 OFFCURVE",
"225 404 CURVE",
"157 365 OFFCURVE",
"119 299 OFFCURVE",
"119 216 CURVE SMOOTH"
);
},
{
closed = 1;
nodes = (
"240 292 OFFCURVE",
"296 337 OFFCURVE",
"381 337 CURVE SMOOTH",
"466 337 OFFCURVE",
"522 292 OFFCURVE",
"522 221 CURVE SMOOTH",
"522 151 OFFCURVE",
"465 105 OFFCURVE",
"381 105 CURVE SMOOTH",
"296 105 OFFCURVE",
"240 150 OFFCURVE",
"240 221 CURVE SMOOTH"
);
},
{
closed = 1;
nodes = (
"315 458 OFFCURVE",
"274 491 OFFCURVE",
"274 546 CURVE SMOOTH",
"274 599 OFFCURVE",
"316 633 OFFCURVE",
"381 633 CURVE SMOOTH",
"445 633 OFFCURVE",
"488 599 OFFCURVE",
"488 546 CURVE SMOOTH",
"488 492 OFFCURVE",
"445 458 OFFCURVE",
"381 458 CURVE SMOOTH"
);
}
);
width = 762;
},
{
hints = (
{
place = "{119, 86}";
type = Stem;
},
{
place = "{156, 85}";
type = Stem;
},
{
place = "{509, 85}";
type = Stem;
},
{
place = "{545, 86}";
type = Stem;
},
{
horizontal = 1;
place = "{-13, 82}";
type = Stem;
},
{
horizontal = 1;
place = "{356, 86}";
type = Stem;
},
{
horizontal = 1;
place = "{669, 82}";
type = Stem;
}
);
layerId = "C9474598-BCEA-4A64-AEC8-6AD11FF1C3BE";
paths = (
{
closed = 1;
nodes = (
"205 124 OFFCURVE",
"272 69 OFFCURVE",
"375 69 CURVE SMOOTH",
"477 69 OFFCURVE",
"545 125 OFFCURVE",
"545 213 CURVE SMOOTH",
"545 301 OFFCURVE",
"478 356 OFFCURVE",
"375 356 CURVE SMOOTH",
"272 356 OFFCURVE",
"205 301 OFFCURVE",
"205 213 CURVE SMOOTH"
);
},
{
closed = 1;
nodes = (
"119 338 OFFCURVE",
"222 426 OFFCURVE",
"375 426 CURVE SMOOTH",
"528 426 OFFCURVE",
"631 338 OFFCURVE",
"631 207 CURVE SMOOTH",
"631 75 OFFCURVE",
"528 -13 OFFCURVE",
"375 -13 CURVE SMOOTH",
"221 -13 OFFCURVE",
"119 75 OFFCURVE",
"119 207 CURVE SMOOTH"
);
},
{
closed = 1;
nodes = (
"241 485 OFFCURVE",
"293 442 OFFCURVE",
"375 442 CURVE SMOOTH",
"456 442 OFFCURVE",
"509 486 OFFCURVE",
"509 556 CURVE SMOOTH",
"509 625 OFFCURVE",
"456 669 OFFCURVE",
"375 669 CURVE SMOOTH",
"294 669 OFFCURVE",
"241 625 OFFCURVE",
"241 556 CURVE SMOOTH"
);
},
{
closed = 1;
nodes = (
"156 676 OFFCURVE",
"244 751 OFFCURVE",
"375 751 CURVE SMOOTH",
"506 751 OFFCURVE",
"594 676 OFFCURVE",
"594 565 CURVE SMOOTH",
"594 453 OFFCURVE",
"505 377 OFFCURVE",
"375 377 CURVE SMOOTH",
"244 377 OFFCURVE",
"156 452 OFFCURVE",
"156 565 CURVE SMOOTH"
);
}
);
width = 750;
}
);
unicode = 0038;
},
{
glyphname = nine;
layers = (
{
layerId = "C26E6862-625E-4D03-9322-DC3496ADAC37";
name = Backup;
paths = (
{
closed = 1;
nodes = (
"128 383 OFFCURVE",
"209 331 OFFCURVE",
"296 331 CURVE SMOOTH",
"384 331 OFFCURVE",
"465 384 OFFCURVE",
"465 504 CURVE",
"465 625 OFFCURVE",
"386 676 OFFCURVE",
"298 676 CURVE SMOOTH",
"211 676 OFFCURVE",
"128 625 OFFCURVE",
"128 504 CURVE SMOOTH"
);
},
{
closed = 1;
nodes = (
"515 504 LINE",
"519 410 OFFCURVE",
"456 258 OFFCURVE",
"289 258 CURVE SMOOTH",
"149 258 OFFCURVE",
"46 356 OFFCURVE",
"46 504 CURVE SMOOTH",
"46 652 OFFCURVE",
"140 750 OFFCURVE",
"298 750 CURVE SMOOTH",
"433 750 OFFCURVE",
"554 675 OFFCURVE",
"554 420 CURVE SMOOTH",
"554 119 OFFCURVE",
"447 -13 OFFCURVE",
"280 -13 CURVE SMOOTH",
"129 -13 OFFCURVE",
"46 94 OFFCURVE",
"46 255 CURVE",
"128 255 LINE",
"128 119 OFFCURVE",
"197 61 OFFCURVE",
"280 61 CURVE SMOOTH",
"375 61 OFFCURVE",
"472 136 OFFCURVE",
"472 419 CURVE"
);
},
{
closed = 1;
nodes = (
"-570 185 LINE",
"-570 108 OFFCURVE",
"-585 67 OFFCURVE",
"-683 67 CURVE SMOOTH",
"-734 67 OFFCURVE",
"-787 97 OFFCURVE",
"-787 185 CURVE",
"-873 188 LINE",
"-873 44 OFFCURVE",
"-778 -13 OFFCURVE",
"-679 -13 CURVE SMOOTH",
"-525 -13 OFFCURVE",
"-484 61 OFFCURVE",
"-484 185 CURVE"
);
}
);
width = 572;
},
{
hints = (
{
place = "{37, 128}";
type = Stem;
},
{
place = "{76, 128}";
type = Stem;
},
{
place = "{452, 135}";
type = Stem;
},
{
horizontal = 1;
place = "{-34, 124}";
type = Stem;
},
{
horizontal = 1;
place = "{240, 120}";
type = Stem;
},
{
horizontal = 1;
place = "{647, 124}";
type = Stem;
}
);
layerId = "2B03D00A-B4C8-4D37-BEFC-80CF5F8B5BB8";
paths = (
{
closed = 1;
nodes = (
"364 247 OFFCURVE",
"411 265 OFFCURVE",
"447 293 CURVE",
"424 144 OFFCURVE",
"361 105 OFFCURVE",
"296 105 CURVE SMOOTH",
"258 105 OFFCURVE",
"213 132 OFFCURVE",
"213 214 CURVE",
"92 219 LINE",
"92 53 OFFCURVE",
"190 -12 OFFCURVE",
"296 -12 CURVE SMOOTH",
"467 -12 OFFCURVE",
"575 118 OFFCURVE",
"575 417 CURVE SMOOTH",
"575 674 OFFCURVE",
"452 749 OFFCURVE",
"313 749 CURVE SMOOTH",
"152 749 OFFCURVE",
"55 649 OFFCURVE",
"55 497 CURVE SMOOTH",
"55 344 OFFCURVE",
"161 247 OFFCURVE",
"305 247 CURVE SMOOTH"
);
},
{
closed = 1;
nodes = (
"384 632 OFFCURVE",
"448 591 OFFCURVE",
"448 497 CURVE SMOOTH",
"448 403 OFFCURVE",
"382 361 OFFCURVE",
"312 361 CURVE SMOOTH",
"242 361 OFFCURVE",
"176 402 OFFCURVE",
"176 497 CURVE SMOOTH",
"176 591 OFFCURVE",
"243 632 OFFCURVE",
"313 632 CURVE SMOOTH"
);
}
);
width = 630;
},
{
hints = (
{
place = "{55, 86}";
type = Stem;
},
{
place = "{94, 86}";
type = Stem;
},
{
place = "{470, 93}";
type = Stem;
},
{
horizontal = 1;
place = "{-13, 82}";
type = Stem;
},
{
horizontal = 1;
place = "{261, 78}";
type = Stem;
},
{
horizontal = 1;
place = "{668, 82}";
type = Stem;
}
);
layerId = "C9474598-BCEA-4A64-AEC8-6AD11FF1C3BE";
paths = (
{
closed = 1;
nodes = (
"381 261 OFFCURVE",
"439 298 OFFCURVE",
"475 347 CURVE",
"460 124 OFFCURVE",
"375 69 OFFCURVE",
"289 69 CURVE SMOOTH",
"238 69 OFFCURVE",
"180 97 OFFCURVE",
"180 185 CURVE",
"94 188 LINE",
"94 44 OFFCURVE",
"188 -13 OFFCURVE",
"289 -13 CURVE SMOOTH",
"456 -13 OFFCURVE",
"563 119 OFFCURVE",
"563 420 CURVE SMOOTH",
"563 675 OFFCURVE",
"442 750 OFFCURVE",
"307 750 CURVE SMOOTH",
"149 750 OFFCURVE",
"55 652 OFFCURVE",
"55 504 CURVE SMOOTH",
"55 356 OFFCURVE",
"158 261 OFFCURVE",
"298 261 CURVE SMOOTH"
);
},
{
closed = 1;
nodes = (
"220 339 OFFCURVE",
"141 389 OFFCURVE",
"141 504 CURVE SMOOTH",
"141 619 OFFCURVE",
"222 668 OFFCURVE",
"307 668 CURVE SMOOTH",
"393 668 OFFCURVE",
"470 619 OFFCURVE",
"470 504 CURVE SMOOTH",
"470 390 OFFCURVE",
"391 339 OFFCURVE",
"305 339 CURVE SMOOTH"
);
}
);
width = 618;
}
);
unicode = 0039;
},
{
glyphname = less;
layers = (
{
layerId = "C26E6862-625E-4D03-9322-DC3496ADAC37";
name = Backup;
width = 570;
},
{
layerId = "2B03D00A-B4C8-4D37-BEFC-80CF5F8B5BB8";
paths = (
{
closed = 1;
nodes = (
"55 311 LINE",
"504 510 LINE",
"504 427 LINE",
"55 235 LINE"
);
},
{
closed = 1;
nodes = (
"504 119 LINE",
"504 36 LINE",
"55 235 LINE",
"55 311 LINE"
);
}
);
width = 570;
},
{
layerId = "C9474598-BCEA-4A64-AEC8-6AD11FF1C3BE";
paths = (
{
closed = 1;
nodes = (
"55 311 LINE",
"504 510 LINE",
"504 427 LINE",
"55 235 LINE"
);
},
{
closed = 1;
nodes = (
"504 119 LINE",
"504 36 LINE",
"55 235 LINE",
"55 311 LINE"
);
}
);
width = 570;
}
);
unicode = 003C;
},
{
glyphname = equal;
leftMetricsKey = minus;
rightMetricsKey = minus;
layers = (
{
components = (
{
name = endash;
alignment = -1;
}
);
layerId = "C26E6862-625E-4D03-9322-DC3496ADAC37";
name = Backup;
width = 517;
},
{
components = (
{
name = endash;
transform = "{1, 0, 0, 1, 0, -76}";
alignment = -1;
},
{
name = endash;
transform = "{1, 0, 0, 1, 0, 76}";
alignment = -1;
},
{
name = endash;
alignment = -1;
}
);
hints = (
{
horizontal = 1;
place = "{159, 76}";
type = Stem;
},
{
horizontal = 1;
place = "{311, 76}";
type = Stem;
},
{
horizontal = 1;
place = "{235, 76}";
type = Stem;
}
);
layerId = "2B03D00A-B4C8-4D37-BEFC-80CF5F8B5BB8";
width = 517;
},
{
layerId = "C9474598-BCEA-4A64-AEC8-6AD11FF1C3BE";
paths = (
{
closed = 1;
nodes = (
"66 318 LINE",
"560 318 LINE",
"560 394 LINE",
"66 394 LINE"
);
},
{
closed = 1;
nodes = (
"66 152 LINE",
"560 152 LINE",
"560 228 LINE",
"66 228 LINE"
);
}
);
width = 626;
}
);
unicode = 003D;
},
{
color = (255, 153, 153, 255);
glyphname = at;
layers = (
{
layerId = "C26E6862-625E-4D03-9322-DC3496ADAC37";
name = Backup;
width = 900;
},
{
hints = (
{
place = "{88, 64}";
type = Stem;
},
{
place = "{278, 64}";
type = Stem;
},
{
place = "{558, 64}";
type = Stem;
},
{
place = "{748, 64}";
type = Stem;
},
{
place = "{278, 77}";
type = Stem;
},
{
horizontal = 1;
place = "{-13, 60}";
type = Stem;
},
{
horizontal = 1;
place = "{162, 49}";
type = Stem;
},
{
horizontal = 1;
place = "{353, 53}";
type = Stem;
},
{
horizontal = 1;
place = "{521, 58}";
type = Stem;
},
{
horizontal = 1;
place = "{671, 58}";
type = Stem;
}
);
layerId = "2B03D00A-B4C8-4D37-BEFC-80CF5F8B5BB8";
paths = (
{
closed = 1;
nodes = (
"278 351 OFFCURVE",
"334 406 OFFCURVE",
"452 406 CURVE SMOOTH",
"557 406 OFFCURVE",
"601 377 OFFCURVE",
"601 377 CURVE",
"606 326 LINE",
"606 326 OFFCURVE",
"530 353 OFFCURVE",
"467 353 CURVE SMOOTH",
"387 353 OFFCURVE",
"342 325 OFFCURVE",
"342 280 CURVE SMOOTH",
"342 229 OFFCURVE",
"390 211 OFFCURVE",
"427 211 CURVE SMOOTH",
"503 211 OFFCURVE",
"558 261 OFFCURVE",
"558 340 CURVE",
"561 353 LINE",
"610 353 LINE",
"610 237 OFFCURVE",
"527 155 OFFCURVE",
"411 155 CURVE SMOOTH",
"335 155 OFFCURVE",
"278 201 OFFCURVE",
"278 284 CURVE SMOOTH"
);
},
{
closed = 1;
nodes = (
"405 521 OFFCURVE",
"355 496 OFFCURVE",
"355 442 CURVE",
"288 437 LINE",
"288 529 OFFCURVE",
"371 579 OFFCURVE",
"455 579 CURVE SMOOTH",
"580 579 OFFCURVE",
"622 489 OFFCURVE",
"622 389 CURVE SMOOTH",
"622 235 LINE",
"558 235 LINE",
"558 257 LINE",
"558 346 LINE",
"558 394 LINE SMOOTH",
"558 464 OFFCURVE",
"533 521 OFFCURVE",
"453 521 CURVE SMOOTH"
);
},
{
closed = 1;
nodes = (
"705 57 LINE",
"705 57 OFFCURVE",
"610 -13 OFFCURVE",
"450 -13 CURVE SMOOTH",
"256 -13 OFFCURVE",
"88 141 OFFCURVE",
"88 352 CURVE SMOOTH",
"88 569 OFFCURVE",
"236 729 OFFCURVE",
"450 729 CURVE SMOOTH",
"670 729 OFFCURVE",
"812 554 OFFCURVE",
"812 384 CURVE SMOOTH",
"812 237 OFFCURVE",
"757 162 OFFCURVE",
"667 162 CURVE SMOOTH",
"601 162 OFFCURVE",
"558 199 OFFCURVE",
"558 300 CURVE",
"622 293 LINE",
"622 231 OFFCURVE",
"640 220 OFFCURVE",
"671 220 CURVE SMOOTH",
"720 220 OFFCURVE",
"748 265 OFFCURVE",
"748 385 CURVE SMOOTH",
"748 541 OFFCURVE",
"625 671 OFFCURVE",
"450 671 CURVE SMOOTH",
"268 671 OFFCURVE",
"152 537 OFFCURVE",
"152 352 CURVE SMOOTH",
"152 180 OFFCURVE",
"285 47 OFFCURVE",
"450 47 CURVE SMOOTH",
"608 47 OFFCURVE",
"667 107 OFFCURVE",
"667 107 CURVE"
);
}
);
width = 900;
},
{
hints = (
{
place = "{88, 64}";
type = Stem;
},
{
place = "{278, 64}";
type = Stem;
},
{
place = "{558, 64}";
type = Stem;
},
{
place = "{748, 64}";
type = Stem;
},
{
place = "{278, 77}";
type = Stem;
},
{
horizontal = 1;
place = "{-13, 60}";
type = Stem;
},
{
horizontal = 1;
place = "{162, 49}";
type = Stem;
},
{
horizontal = 1;
place = "{353, 53}";
type = Stem;
},
{
horizontal = 1;
place = "{521, 58}";
type = Stem;
},
{
horizontal = 1;
place = "{671, 58}";
type = Stem;
}
);
layerId = "C9474598-BCEA-4A64-AEC8-6AD11FF1C3BE";
paths = (
{
closed = 1;
nodes = (
"278 351 OFFCURVE",
"334 406 OFFCURVE",
"452 406 CURVE SMOOTH",
"557 406 OFFCURVE",
"601 377 OFFCURVE",
"601 377 CURVE",
"606 326 LINE",
"606 326 OFFCURVE",
"530 353 OFFCURVE",
"467 353 CURVE SMOOTH",
"387 353 OFFCURVE",
"342 325 OFFCURVE",
"342 280 CURVE SMOOTH",
"342 229 OFFCURVE",
"390 211 OFFCURVE",
"427 211 CURVE SMOOTH",
"503 211 OFFCURVE",
"558 261 OFFCURVE",
"558 340 CURVE",
"561 353 LINE",
"610 353 LINE",
"610 237 OFFCURVE",
"527 155 OFFCURVE",
"411 155 CURVE SMOOTH",
"335 155 OFFCURVE",
"278 201 OFFCURVE",
"278 284 CURVE SMOOTH"
);
},
{
closed = 1;
nodes = (
"405 521 OFFCURVE",
"355 496 OFFCURVE",
"355 442 CURVE",
"288 437 LINE",
"288 529 OFFCURVE",
"371 579 OFFCURVE",
"455 579 CURVE SMOOTH",
"580 579 OFFCURVE",
"622 489 OFFCURVE",
"622 389 CURVE SMOOTH",
"622 235 LINE",
"558 235 LINE",
"558 257 LINE",
"558 346 LINE",
"558 394 LINE SMOOTH",
"558 464 OFFCURVE",
"533 521 OFFCURVE",
"453 521 CURVE SMOOTH"
);
},
{
closed = 1;
nodes = (
"705 57 LINE",
"705 57 OFFCURVE",
"610 -13 OFFCURVE",
"450 -13 CURVE SMOOTH",
"256 -13 OFFCURVE",
"88 141 OFFCURVE",
"88 352 CURVE SMOOTH",
"88 569 OFFCURVE",
"236 729 OFFCURVE",
"450 729 CURVE SMOOTH",
"670 729 OFFCURVE",
"812 554 OFFCURVE",
"812 384 CURVE SMOOTH",
"812 237 OFFCURVE",
"757 162 OFFCURVE",
"667 162 CURVE SMOOTH",
"601 162 OFFCURVE",
"558 199 OFFCURVE",
"558 300 CURVE",
"622 293 LINE",
"622 231 OFFCURVE",
"640 220 OFFCURVE",
"671 220 CURVE",
"720 220 OFFCURVE",
"748 265 OFFCURVE",
"748 385 CURVE SMOOTH",
"748 541 OFFCURVE",
"625 671 OFFCURVE",
"450 671 CURVE SMOOTH",
"268 671 OFFCURVE",
"152 537 OFFCURVE",
"152 352 CURVE SMOOTH",
"152 180 OFFCURVE",
"285 47 OFFCURVE",
"450 47 CURVE SMOOTH",
"608 47 OFFCURVE",
"667 107 OFFCURVE",
"667 107 CURVE"
);
}
);
width = 900;
}
);
unicode = 0040;
},
{
color = (153, 254, 255, 255);
glyphname = A;
leftMetricsKey = "=lsb("O") * 0.7";
rightMetricsKey = "=lsb("A")";
layers = (
{
anchors = (
{
name = top;
position = "{0, 75}";
}
);
layerId = "C26E6862-625E-4D03-9322-DC3496ADAC37";
name = Backup;
paths = (
{
closed = 1;
nodes = (
"393 740 LINE",
"139 0 LINE",
"48 0 LINE",
"306 740 LINE"
);
}
);
width = 441;
},
{
anchors = (
{
name = top;
position = "{359, 730}";
}
);
hints = (
{
horizontal = 1;
place = "{199, 80}";
type = Stem;
},
{
horizontal = 1;
place = "{761, -20}";
target = down;
type = TopGhost;
},
{
horizontal = 1;
place = "{-21, 63}";
type = Stem;
}
);
layerId = "2B03D00A-B4C8-4D37-BEFC-80CF5F8B5BB8";
paths = (
{
closed = 1;
nodes = (
"48 0 LINE",
"177 0 LINE",
"241 188 LINE",
"485 188 LINE",
"550 0 LINE",
"679 0 LINE",
"419 740 LINE",
"306 740 LINE"
);
},
{
closed = 1;
nodes = (
"363 542 LINE",
"445 304 LINE",
"282 304 LINE"
);
},
{
closed = 1;
nodes = (
"306 740 LINE",
"48 0 LINE",
"139 0 LINE",
"393 740 LINE"
);
}
);
width = 734;
},
{
anchors = (
{
name = top;
position = "{357, 730}";
}
);
hints = (
{
horizontal = 1;
place = "{199, 80}";
type = Stem;
},
{
horizontal = 1;
place = "{740, -20}";
target = down;
type = TopGhost;
},
{
horizontal = 1;
place = "{0, 21}";
target = up;
type = BottomGhost;
},
{
horizontal = 1;
place = "{698, 21}";
target = up;
type = BottomGhost;
},
{
horizontal = 1;
place = "{0, -20}";
target = down;
type = TopGhost;
}
);
layerId = "C9474598-BCEA-4A64-AEC8-6AD11FF1C3BE";
paths = (
{
closed = 1;
nodes = (
"182 199 LINE",
"554 199 LINE",
"554 279 LINE",
"182 279 LINE"
);
},
{
closed = 1;
nodes = (
"53.2 0 LINE",
"144.2 0 LINE",
"398.2 740 LINE",
"311.2 740 LINE"
);
},
{
closed = 1;
nodes = (
"402.2 740 LINE",
"315.2 740 LINE",
"569.2 0 LINE",
"660.2 0 LINE"
);
}
);
width = 714;
}
);
leftKerningGroup = A;
rightKerningGroup = A1;
unicode = 0041;
},
{
color = (154, 153, 255, 255);
glyphname = B;
leftMetricsKey = "=H-22";
rightMetricsKey = O;
layers = (
{
components = (
{
name = P;
alignment = -1;
}
);
layerId = "C26E6862-625E-4D03-9322-DC3496ADAC37";
name = Backup;
width = 500;
},
{
hints = (
{
place = "{144, 86}";
type = Stem;
},
{
place = "{536, 86}";
type = Stem;
},
{
place = "{568, 86}";
type = Stem;
},
{
horizontal = 1;
place = "{0, 80}";
type = Stem;
},
{
horizontal = 1;
place = "{342, 80}";
type = Stem;
},
{
horizontal = 1;
place = "{660, 80}";
type = Stem;
}
);
layerId = "2B03D00A-B4C8-4D37-BEFC-80CF5F8B5BB8";
paths = (
{
closed = 1;
nodes = (
"144 0 LINE",
"407 0 LINE SMOOTH",
"584 0 OFFCURVE",
"667 87 OFFCURVE",
"667 220 CURVE SMOOTH",
"667 294 OFFCURVE",
"642 354 OFFCURVE",
"585 393 CURVE",
"619 429 OFFCURVE",
"636 477 OFFCURVE",
"636 532 CURVE SMOOTH",
"636 658 OFFCURVE",
"554 740 OFFCURVE",
"377 740 CURVE SMOOTH",
"144 740 LINE"
);
},
{
closed = 1;
nodes = (
"265 324 LINE",
"407 324 LINE SMOOTH",
"497 324 OFFCURVE",
"545 293 OFFCURVE",
"545 220 CURVE SMOOTH",
"545 146 OFFCURVE",
"497 116 OFFCURVE",
"407 116 CURVE SMOOTH",
"265 116 LINE"
);
},
{
closed = 1;
nodes = (
"265 439 LINE",
"265 624 LINE",
"377 624 LINE SMOOTH",
"467 624 OFFCURVE",
"515 597 OFFCURVE",
"515 532 CURVE SMOOTH",
"515 466 OFFCURVE",
"467 439 OFFCURVE",
"377 439 CURVE SMOOTH"
);
}
);
width = 811;
},
{
components = (
{
name = P;
alignment = -1;
}
);
hints = (
{
place = "{90, 86}";
type = Stem;
},
{
place = "{494, 74}";
type = Stem;
},
{
horizontal = 1;
place = "{0, 80}";
type = Stem;
},
{
horizontal = 1;
place = "{342, 80}";
type = Stem;
},
{
horizontal = 1;
place = "{660, 80}";
type = Stem;
},
{
place = "{80, 86}";
type = Stem;
},
{
place = "{454, 84}";
type = Stem;
},
{
horizontal = 1;
place = "{342, 80}";
type = Stem;
},
{
horizontal = 1;
place = "{0, 21}";
target = up;
type = BottomGhost;
}
);
layerId = "C9474598-BCEA-4A64-AEC8-6AD11FF1C3BE";
paths = (
{
closed = 1;
nodes = (
"128 0 LINE",
"325 0 LINE SMOOTH",
"498 0 OFFCURVE",
"578 84 OFFCURVE",
"578 211 CURVE SMOOTH",
"578 338 OFFCURVE",
"498 422 OFFCURVE",
"325 422 CURVE SMOOTH",
"128 422 LINE",
"128 342 LINE",
"325 342 LINE SMOOTH",
"434 342 OFFCURVE",
"494 304 OFFCURVE",
"494 211 CURVE SMOOTH",
"494 118 OFFCURVE",
"434 80 OFFCURVE",
"325 80 CURVE SMOOTH",
"128 80 LINE"
);
}
);
width = 654;
}
);
leftKerningGroup = B;
unicode = 0042;
},
{
color = (154, 153, 255, 255);
glyphname = C;
leftMetricsKey = "=H-12";
rightMetricsKey = "=O-1";
layers = (
{
layerId = "C26E6862-625E-4D03-9322-DC3496ADAC37";
name = Backup;
paths = (
{
closed = 1;
nodes = (
"172 159 OFFCURVE",
"311 68 OFFCURVE",
"448 68 CURVE SMOOTH",
"585 68 OFFCURVE",
"724 159 OFFCURVE",
"724 368 CURVE SMOOTH",
"724 577 OFFCURVE",
"585 668 OFFCURVE",
"448 668 CURVE SMOOTH",
"311 668 OFFCURVE",
"172 577 OFFCURVE",
"172 368 CURVE SMOOTH"
);
},
{
closed = 1;
nodes = (
"88 598 OFFCURVE",
"232 750 OFFCURVE",
"448 750 CURVE SMOOTH",
"664 750 OFFCURVE",
"808 598 OFFCURVE",
"808 368 CURVE SMOOTH",
"808 138 OFFCURVE",
"664 -14 OFFCURVE",
"448 -14 CURVE SMOOTH",
"232 -14 OFFCURVE",
"88 138 OFFCURVE",
"88 368 CURVE SMOOTH"
);
},
{
closed = 1;
nodes = (
"172 159 OFFCURVE",
"311 68 OFFCURVE",
"448 68 CURVE SMOOTH",
"585 68 OFFCURVE",
"724 159 OFFCURVE",
"724 368 CURVE SMOOTH",
"724 577 OFFCURVE",
"585 668 OFFCURVE",
"448 668 CURVE SMOOTH",
"311 668 OFFCURVE",
"172 577 OFFCURVE",
"172 368 CURVE SMOOTH"
);
},
{
closed = 1;
nodes = (
"88 598 OFFCURVE",
"232 750 OFFCURVE",
"448 750 CURVE SMOOTH",
"664 750 OFFCURVE",
"808 598 OFFCURVE",
"808 368 CURVE SMOOTH",
"808 138 OFFCURVE",
"664 -14 OFFCURVE",
"448 -14 CURVE SMOOTH",
"232 -14 OFFCURVE",
"88 138 OFFCURVE",
"88 368 CURVE SMOOTH"
);
}
);
width = 896;
},
{
hints = (
{
place = "{86, 86}";
type = Stem;
},
{
horizontal = 1;
place = "{-14, 82}";
type = Stem;
},
{
horizontal = 1;
place = "{673, 82}";
type = Stem;
}
);
layerId = "2B03D00A-B4C8-4D37-BEFC-80CF5F8B5BB8";
paths = (
{
closed = 1;
nodes = (
"86 139 OFFCURVE",
"216 -13 OFFCURVE",
"408 -13 CURVE SMOOTH",
"557 -13 OFFCURVE",
"666 88 OFFCURVE",
"718 253 CURVE",
"594 261 LINE",
"554 152 OFFCURVE",
"482 104 OFFCURVE",
"407 104 CURVE SMOOTH",
"308 104 OFFCURVE",
"208 185 OFFCURVE",
"208 372 CURVE SMOOTH",
"208 556 OFFCURVE",
"308 637 OFFCURVE",
"406 637 CURVE SMOOTH",
"476 637 OFFCURVE",
"552 591 OFFCURVE",
"582 496 CURVE",
"709 486 LINE",
"679 649 OFFCURVE",
"559 754 OFFCURVE",
"407 754 CURVE SMOOTH",
"213 754 OFFCURVE",
"86 602 OFFCURVE",
"86 372 CURVE SMOOTH"
);
}
);
width = 804;
},
{
anchors = (
{
name = top;
position = "{407, 730}";
},
{
name = bottom;
position = "{409, 0}";
}
);
hints = (
{
place = "{90, 86}";
type = Stem;
},
{
horizontal = 1;
place = "{-14, 82}";
type = Stem;
},
{
horizontal = 1;
place = "{673, 82}";
type = Stem;
}
);
layerId = "C9474598-BCEA-4A64-AEC8-6AD11FF1C3BE";
paths = (
{
closed = 1;
nodes = (
"409 68 LINE",
"293 68 OFFCURVE",
"176 159 OFFCURVE",
"176 371 CURVE SMOOTH",
"176 582 OFFCURVE",
"292 673 OFFCURVE",
"407 673 CURVE SMOOTH",
"502 673 OFFCURVE",
"604 609 OFFCURVE",
"620 473 CURVE",
"705 492 LINE",
"686 651 OFFCURVE",
"566 755 OFFCURVE",
"408 755 CURVE SMOOTH",
"216 755 OFFCURVE",
"90 602 OFFCURVE",
"90 372 CURVE SMOOTH",
"90 139 OFFCURVE",
"219 -14 OFFCURVE",
"409 -14 CURVE"
);
},
{
closed = 1;
nodes = (
"409 -14 LINE",
"556 -14 OFFCURVE",
"659 78 OFFCURVE",
"706 227 CURVE",
"620 233 LINE",
"578 119 OFFCURVE",
"496 68 OFFCURVE",
"409 68 CURVE"
);
}
);
width = 781;
}
);
leftKerningGroup = C;
unicode = 0043;
},
{
color = (154, 153, 255, 255);
glyphname = D;
leftMetricsKey = B;
rightMetricsKey = "=O-10";
layers = (
{
components = (
{
name = C;
alignment = -1;
}
);
layerId = "C26E6862-625E-4D03-9322-DC3496ADAC37";
name = Backup;
paths = (
{
closed = 1;
nodes = (
"404 68 LINE",
"289 68 OFFCURVE",
"172 159 OFFCURVE",
"172 372 CURVE SMOOTH",
"172 582 OFFCURVE",
"288 673 OFFCURVE",
"403 673 CURVE SMOOTH",
"490 673 OFFCURVE",
"583 619 OFFCURVE",
"610 504 CURVE",
"695 516 LINE",
"668 661 OFFCURVE",
"552 755 OFFCURVE",
"404 755 CURVE SMOOTH",
"214 755 OFFCURVE",
"88 602 OFFCURVE",
"88 372 CURVE SMOOTH",
"88 139 OFFCURVE",
"215 -14 OFFCURVE",
"405 -14 CURVE"
);
},
{
closed = 1;
nodes = (
"50 0 LINE",
"132 0 LINE",
"132 740 LINE",
"50 740 LINE"
);
}
);
width = 896;
},
{
hints = (
{
place = "{131, 128}";
type = Stem;
},
{
place = "{613, 86}";
type = Stem;
},
{
horizontal = 1;
place = "{0, 80}";
type = Stem;
},
{
horizontal = 1;
place = "{660, 80}";
type = Stem;
}
);
layerId = "2B03D00A-B4C8-4D37-BEFC-80CF5F8B5BB8";
paths = (
{
closed = 1;
nodes = (
"144 740 LINE",
"144 0 LINE",
"374 0 LINE SMOOTH",
"602 0 OFFCURVE",
"709 147 OFFCURVE",
"709 370 CURVE SMOOTH",
"709 593 OFFCURVE",
"602 740 OFFCURVE",
"374 740 CURVE SMOOTH"
);
},
{
closed = 1;
nodes = (
"374 624 LINE SMOOTH",
"506 624 OFFCURVE",
"588 551 OFFCURVE",
"588 370 CURVE SMOOTH",
"588 189 OFFCURVE",
"506 116 OFFCURVE",
"374 116 CURVE SMOOTH",
"265 116 LINE",
"265 624 LINE"
);
}
);
width = 817;
},
{
hints = (
{
place = "{80, 86}";
type = Stem;
},
{
place = "{549, 86}";
type = Stem;
},
{
horizontal = 1;
place = "{0, 80}";
type = Stem;
},
{
horizontal = 1;
place = "{660, 80}";
type = Stem;
}
);
layerId = "C9474598-BCEA-4A64-AEC8-6AD11FF1C3BE";
paths = (
{
closed = 1;
nodes = (
"140 0 LINE",
"302 0 LINE",
"529 0 OFFCURVE",
"635 147 OFFCURVE",
"635 370 CURVE SMOOTH",
"635 593 OFFCURVE",
"529 740 OFFCURVE",
"302 740 CURVE",
"140 740 LINE",
"140 660 LINE",
"302 660 LINE",
"454 660 OFFCURVE",
"549 576 OFFCURVE",
"549 370 CURVE SMOOTH",
"549 164 OFFCURVE",
"454 80 OFFCURVE",
"302 80 CURVE",
"140 80 LINE"
);
},
{
closed = 1;
nodes = (
"80 0 LINE",
"166 0 LINE",
"166 740 LINE",
"80 740 LINE"
);
}
);
width = 701;
}
);
leftKerningGroup = B;
unicode = 0044;
},
{
color = (154, 153, 255, 255);
glyphname = E;
leftMetricsKey = B;
rightMetricsKey = "=O+13";
layers = (
{
anchors = (
{
name = top;
position = "{0, 75}";
}
);
layerId = "C26E6862-625E-4D03-9322-DC3496ADAC37";
name = Backup;
width = 574;
},
{
anchors = (
{
name = top;
position = "{395, 730}";
}
);
hints = (
{
place = "{131, 128}";
type = Stem;
},
{
horizontal = 1;
place = "{0, 80}";
type = Stem;
},
{
horizontal = 1;
place = "{342, 80}";
type = Stem;
},
{
horizontal = 1;
place = "{660, 80}";
type = Stem;
}
);
layerId = "2B03D00A-B4C8-4D37-BEFC-80CF5F8B5BB8";
paths = (
{
closed = 1;
nodes = (
"144 740 LINE",
"144 0 LINE",
"643 0 LINE",
"643 116 LINE",
"265 116 LINE",
"265 324 LINE",
"591 324 LINE",
"591 439 LINE",
"265 439 LINE",
"265 624 LINE",
"641 624 LINE",
"641 740 LINE"
);
}
);
width = 743;
},
{
anchors = (
{
name = top;
position = "{323, 730}";
},
{
name = bottom;
position = "{529, 0}";
}
);
hints = (
{
place = "{80, 86}";
type = Stem;
},
{
horizontal = 1;
place = "{0, 80}";
type = Stem;
},
{
horizontal = 1;
place = "{342, 80}";
type = Stem;
},
{
horizontal = 1;
place = "{660, 80}";
type = Stem;
}
);
layerId = "C9474598-BCEA-4A64-AEC8-6AD11FF1C3BE";
paths = (
{
closed = 1;
nodes = (
"140 342 LINE",
"511 342 LINE",
"511 422 LINE",
"140 422 LINE"
);
},
{
closed = 1;
nodes = (
"140 660 LINE",
"563 660 LINE",
"563 740 LINE",
"140 740 LINE"
);
},
{
closed = 1;
nodes = (
"80 0 LINE",
"166 0 LINE",
"166 740 LINE",
"80 740 LINE"
);
},
{
closed = 1;
nodes = (
"140 0 LINE",
"566 0 LINE",
"566 80 LINE",
"140 80 LINE"
);
}
);
width = 655;
}
);
leftKerningGroup = B;
rightKerningGroup = E;
unicode = 0045;
},
{
color = (154, 153, 255, 255);
glyphname = F;
leftMetricsKey = B;
rightMetricsKey = "=O+1";
layers = (
{
layerId = "C26E6862-625E-4D03-9322-DC3496ADAC37";
name = Backup;
width = 715;
},
{
hints = (
{
place = "{131, 124}";
type = Stem;
},
{
horizontal = 1;
place = "{332, 80}";
type = Stem;
},
{
horizontal = 1;
place = "{660, 80}";
type = Stem;
},
{
horizontal = 1;
place = "{-21, 63}";
type = Stem;
}
);
layerId = "2B03D00A-B4C8-4D37-BEFC-80CF5F8B5BB8";
paths = (
{
closed = 1;
nodes = (
"144 0 LINE",
"262 0 LINE",
"262 314 LINE",
"573 314 LINE",
"573 430 LINE",
"262 430 LINE",
"262 624 LINE",
"641 624 LINE",
"641 740 LINE",
"144 740 LINE"
);
}
);
width = 729;
},
{
hints = (
{
place = "{80, 82}";
type = Stem;
},
{
horizontal = 1;
place = "{332, 80}";
type = Stem;
},
{
horizontal = 1;
place = "{660, 80}";
type = Stem;
},
{
horizontal = 1;
place = "{0, 21}";
target = up;
type = BottomGhost;
}
);
layerId = "C9474598-BCEA-4A64-AEC8-6AD11FF1C3BE";
paths = (
{
closed = 1;
nodes = (
"140 332 LINE",
"491 332 LINE",
"491 412 LINE",
"140 412 LINE"
);
},
{
closed = 1;
nodes = (
"140 660 LINE",
"563 660 LINE",
"563 740 LINE",
"140 740 LINE"
);
},
{
closed = 1;
nodes = (
"80 0 LINE",
"162 0 LINE",
"162 740 LINE",
"80 740 LINE"
);
}
);
width = 640;
}
);
leftKerningGroup = B;
unicode = 0046;
},
{
color = (154, 153, 255, 255);
glyphname = G;
leftMetricsKey = C;
rightMetricsKey = "=H+6";
layers = (
{
layerId = "C26E6862-625E-4D03-9322-DC3496ADAC37";
name = Backup;
width = 820;
},
{
hints = (
{
place = "{86, 86}";
type = Stem;
},
{
place = "{480, 236}";
type = Stem;
},
{
horizontal = 1;
place = "{-14, 82}";
type = Stem;
},
{
horizontal = 1;
place = "{287, 80}";
type = Stem;
},
{
horizontal = 1;
place = "{673, 82}";
type = Stem;
}
);
layerId = "2B03D00A-B4C8-4D37-BEFC-80CF5F8B5BB8";
paths = (
{
closed = 1;
nodes = (
"86 139 OFFCURVE",
"216 -13 OFFCURVE",
"408 -13 CURVE SMOOTH",
"599 -13 OFFCURVE",
"722 147 OFFCURVE",
"722 387 CURVE",
"459 387 LINE",
"459 272 LINE",
"588 272 LINE",
"564 155 OFFCURVE",
"489 104 OFFCURVE",
"407 104 CURVE SMOOTH",
"308 104 OFFCURVE",
"208 185 OFFCURVE",
"208 372 CURVE SMOOTH",
"208 556 OFFCURVE",
"308 637 OFFCURVE",
"406 637 CURVE SMOOTH",
"476 637 OFFCURVE",
"552 591 OFFCURVE",
"582 496 CURVE",
"709 486 LINE",
"679 649 OFFCURVE",
"559 754 OFFCURVE",
"407 754 CURVE SMOOTH",
"213 754 OFFCURVE",
"86 602 OFFCURVE",
"86 372 CURVE SMOOTH"
);
}
);
width = 826;
},
{
hints = (
{
place = "{90, 86}";
type = Stem;
},
{
place = "{624, 96}";
type = Stem;
},
{
horizontal = 1;
place = "{-14, 82}";
type = Stem;
},
{
horizontal = 1;
place = "{287, 80}";
type = Stem;
},
{
horizontal = 1;
place = "{673, 82}";
type = Stem;
}
);
layerId = "C9474598-BCEA-4A64-AEC8-6AD11FF1C3BE";
paths = (
{
closed = 1;
nodes = (
"409 -14 LINE",
"598 -14 OFFCURVE",
"720 138 OFFCURVE",
"720 367 CURVE",
"468 367 LINE",
"468 287 LINE",
"624 287 LINE",
"603 135 OFFCURVE",
"509 68 OFFCURVE",
"408 68 CURVE"
);
},
{
closed = 1;
nodes = (
"409 68 LINE",
"293 68 OFFCURVE",
"176 159 OFFCURVE",
"176 371 CURVE SMOOTH",
"176 582 OFFCURVE",
"292 673 OFFCURVE",
"407 673 CURVE SMOOTH",
"502 673 OFFCURVE",
"604 609 OFFCURVE",
"620 473 CURVE",
"705 492 LINE",
"686 651 OFFCURVE",
"566 755 OFFCURVE",
"408 755 CURVE SMOOTH",
"216 755 OFFCURVE",
"90 602 OFFCURVE",
"90 372 CURVE SMOOTH",
"90 139 OFFCURVE",
"219 -14 OFFCURVE",
"409 -14 CURVE"
);
}
);
width = 828;
}
);
leftKerningGroup = C;
unicode = 0047;
},
{
color = (153, 254, 255, 255);
glyphname = H;
rightMetricsKey = "=lsb("H")";
layers = (
{
layerId = "C26E6862-625E-4D03-9322-DC3496ADAC37";
name = Backup;
width = 834;
},
{
hints = (
{
place = "{591, 128}";
type = Stem;
},
{
place = "{591, 128}";
type = Stem;
},
{
horizontal = 1;
place = "{321, 122}";
type = Stem;
},
{
horizontal = 1;
place = "{761, -20}";
target = down;
type = TopGhost;
},
{
horizontal = 1;
place = "{-21, 63}";
type = Stem;
}
);
layerId = "2B03D00A-B4C8-4D37-BEFC-80CF5F8B5BB8";
paths = (
{
closed = 1;
nodes = (
"144 740 LINE",
"144 0 LINE",
"265 0 LINE",
"265 324 LINE",
"579 324 LINE",
"579 0 LINE",
"701 0 LINE",
"701 740 LINE",
"579 740 LINE",
"579 439 LINE",
"265 439 LINE",
"265 740 LINE"
);
}
);
width = 845;
},
{
hints = (
{
place = "{102, 86}";
type = Stem;
},
{
place = "{562, 86}";
type = Stem;
},
{
horizontal = 1;
place = "{342, 80}";
type = Stem;
},
{
horizontal = 1;
place = "{740, -20}";
target = down;
type = TopGhost;
},
{
horizontal = 1;
place = "{0, 21}";
target = up;
type = BottomGhost;
}
);
layerId = "C9474598-BCEA-4A64-AEC8-6AD11FF1C3BE";
paths = (
{
closed = 1;
nodes = (
"102 0 LINE",
"188 0 LINE",
"188 740 LINE",
"102 740 LINE"
);
},
{
closed = 1;
nodes = (
"172 342 LINE",
"579 342 LINE",
"579 422 LINE",
"172 422 LINE"
);
},
{
closed = 1;
nodes = (
"648 740 LINE",
"562 740 LINE",
"562 0 LINE",
"648 0 LINE"
);
}
);
width = 750;
}
);
leftKerningGroup = B;
rightKerningGroup = H;
unicode = 0048;
},
{
color = (154, 153, 255, 255);
glyphname = I;
leftMetricsKey = B;
rightMetricsKey = "=H-4";
layers = (
{
layerId = "C26E6862-625E-4D03-9322-DC3496ADAC37";
name = Backup;
width = 0;
},
{
hints = (
{
place = "{131, 128}";
type = Stem;
},
{
horizontal = 1;
place = "{-21, 63}";
type = Stem;
},
{
horizontal = 1;
place = "{761, -20}";
target = down;
type = TopGhost;
}
);
layerId = "2B03D00A-B4C8-4D37-BEFC-80CF5F8B5BB8";
paths = (
{
closed = 1;
nodes = (
"144 0 LINE",
"265 0 LINE",
"265 740 LINE",
"144 740 LINE"
);
}
);
width = 405;
},
{
anchors = (
{
name = top;
position = "{123, 730}";
}
);
hints = (
{
place = "{80, 86}";
type = Stem;
},
{
horizontal = 1;
place = "{0, 21}";
target = up;
type = BottomGhost;
},
{
horizontal = 1;
place = "{740, -20}";
target = down;
type = TopGhost;
}
);
layerId = "C9474598-BCEA-4A64-AEC8-6AD11FF1C3BE";
paths = (
{
closed = 1;
nodes = (
"80 0 LINE",
"166 0 LINE",
"166 740 LINE",
"80 740 LINE"
);
}
);
width = 264;
}
);
leftKerningGroup = B;
rightKerningGroup = H;
unicode = 0049;
},
{
color = (154, 153, 255, 255);
glyphname = J;
leftMetricsKey = "=A-11";
rightMetricsKey = "=O+16";
layers = (
{
components = (
{
name = I;
alignment = -1;
}
);
layerId = "C26E6862-625E-4D03-9322-DC3496ADAC37";
name = Backup;
width = 0;
},
{
hints = (
{
place = "{44, 86}";
type = Stem;
},
{
place = "{347, 86}";
type = Stem;
},
{
horizontal = 1;
place = "{-13, 80}";
type = Stem;
},
{
horizontal = 1;
place = "{740, -20}";
target = down;
type = TopGhost;
}
);
layerId = "2B03D00A-B4C8-4D37-BEFC-80CF5F8B5BB8";
paths = (
{
closed = 1;
nodes = (
"44 219 LINE",
"44 53 OFFCURVE",
"143 -12 OFFCURVE",
"247 -12 CURVE SMOOTH",
"409 -12 OFFCURVE",
"451 65 OFFCURVE",
"451 195 CURVE SMOOTH",
"451 740 LINE",
"330 740 LINE",
"330 195 LINE SMOOTH",
"330 135 OFFCURVE",
"319 103 OFFCURVE",
"243 103 CURVE SMOOTH",
"205 103 OFFCURVE",
"165 132 OFFCURVE",
"165 214 CURVE"
);
}
);
width = 555;
},
{
anchors = (
{
name = top;
position = "{388, 740}";
}
);
hints = (
{
place = "{42, 86}";
type = Stem;
},
{
place = "{345, 86}";
type = Stem;
},
{
horizontal = 1;
place = "{-13, 80}";
type = Stem;
},
{
horizontal = 1;
place = "{740, -20}";
target = down;
type = TopGhost;
}
);
layerId = "C9474598-BCEA-4A64-AEC8-6AD11FF1C3BE";
paths = (
{
closed = 1;
nodes = (
"42 188 LINE",
"42 44 OFFCURVE",
"137 -13 OFFCURVE",
"236 -13 CURVE SMOOTH",
"390 -13 OFFCURVE",
"431 61 OFFCURVE",
"431 185 CURVE",
"345 185 LINE",
"345 108 OFFCURVE",
"330 67 OFFCURVE",
"232 67 CURVE SMOOTH",
"181 67 OFFCURVE",
"128 97 OFFCURVE",
"128 185 CURVE"
);
},
{
closed = 1;
nodes = (
"345 185 LINE",
"431 185 LINE",
"431 740 LINE",
"345 740 LINE"
);
}
);
width = 523;
}
);
unicode = 004A;
},
{
color = (153, 254, 255, 255);
glyphname = K;
leftMetricsKey = "=B-22";
rightMetricsKey = "=A-10";
layers = (
{
layerId = "C26E6862-625E-4D03-9322-DC3496ADAC37";
name = Backup;
width = 0;
},
{
hints = (
{
place = "{144, 86}";
type = Stem;
},
{
horizontal = 1;
place = "{740, -20}";
target = down;
type = TopGhost;
},
{
horizontal = 1;
place = "{0, 42}";
type = Stem;
}
);
layerId = "2B03D00A-B4C8-4D37-BEFC-80CF5F8B5BB8";
paths = (
{
closed = 1;
nodes = (
"144 0 LINE",
"265 0 LINE",
"265 276 LINE",
"315 334 LINE",
"528 0 LINE",
"673 0 LINE",
"397 430 LINE",
"662 740 LINE",
"509 740 LINE",
"265 455 LINE",
"265 740 LINE",
"144 740 LINE"
);
}
);
width = 721;
},
{
anchors = (
{
name = top;
position = "{101, 730}";
}
);
hints = (
{
place = "{68, 86}";
type = Stem;
},
{
horizontal = 1;
place = "{740, -20}";
target = down;
type = TopGhost;
},
{
horizontal = 1;
place = "{0, 21}";
target = up;
type = BottomGhost;
},
{
place = "{58, 86}";
type = Stem;
}
);
layerId = "C9474598-BCEA-4A64-AEC8-6AD11FF1C3BE";
paths = (
{
closed = 1;
nodes = (
"58 0 LINE",
"144 0 LINE",
"144 740 LINE",
"58 740 LINE"
);
},
{
closed = 1;
nodes = (
"464 0 LINE",
"566 0 LINE",
"256 483 LINE",
"188 429 LINE"
);
},
{
closed = 1;
nodes = (
"123 244 LINE",
"547 740 LINE",
"441 740 LINE",
"123 368 LINE"
);
}
);
width = 609;
}
);
leftKerningGroup = B;
unicode = 004B;
},
{
color = (153, 254, 255, 255);
glyphname = L;
leftMetricsKey = B;
rightMetricsKey = "=A-14";
layers = (
{
layerId = "C26E6862-625E-4D03-9322-DC3496ADAC37";
name = Backup;
width = 568;
},
{
hints = (
{
place = "{131, 128}";
type = Stem;
},
{
horizontal = 1;
place = "{0, 80}";
type = Stem;
},
{
horizontal = 1;
place = "{761, -20}";
target = down;
type = TopGhost;
}
);
layerId = "2B03D00A-B4C8-4D37-BEFC-80CF5F8B5BB8";
paths = (
{
closed = 1;
nodes = (
"144 0 LINE",
"544 0 LINE",
"544 116 LINE",
"265 116 LINE",
"265 740 LINE",
"144 740 LINE"
);
}
);
width = 588;
},
{
anchors = (
{
name = right;
position = "{348, 739}";
}
);
guideLines = (
{
angle = 90;
position = "{-949, 0}";
}
);
hints = (
{
place = "{80, 86}";
type = Stem;
},
{
horizontal = 1;
place = "{0, 80}";
type = Stem;
},
{
horizontal = 1;
place = "{740, -20}";
target = down;
type = TopGhost;
}
);
layerId = "C9474598-BCEA-4A64-AEC8-6AD11FF1C3BE";
paths = (
{
closed = 1;
nodes = (
"80 0 LINE",
"166 0 LINE",
"166 740 LINE",
"80 740 LINE"
);
},
{
closed = 1;
nodes = (
"140 0 LINE",
"460 0 LINE",
"460 80 LINE",
"140 80 LINE"
);
}
);
width = 499;
}
);
leftKerningGroup = B;
unicode = 004C;
},
{
color = (154, 153, 255, 255);
glyphname = M;
leftMetricsKey = H;
rightMetricsKey = H;
layers = (
{
components = (
{
name = I;
alignment = -1;
}
);
layerId = "C26E6862-625E-4D03-9322-DC3496ADAC37";
name = Backup;
paths = (
{
closed = 1;
nodes = (
"50 0 LINE",
"136 0 LINE",
"136 740 LINE",
"50 740 LINE"
);
}
);
width = 0;
},
{
hints = (
{
place = "{144, 86}";
type = Stem;
},
{
horizontal = 1;
place = "{0, 42}";
type = Stem;
},
{
horizontal = 1;
place = "{740, -20}";
target = down;
type = TopGhost;
}
);
layerId = "2B03D00A-B4C8-4D37-BEFC-80CF5F8B5BB8";
paths = (
{
closed = 1;
nodes = (
"144 740 LINE",
"144 0 LINE",
"265 0 LINE",
"265 447 LINE",
"422 0 LINE",
"531 0 LINE",
"690 452 LINE",
"690 0 LINE",
"811 0 LINE",
"811 740 LINE",
"668 740 LINE",
"476 192 LINE",
"283 740 LINE"
);
},
{
closed = 1;
nodes = (
"50 0 LINE",
"136 0 LINE",
"136 740 LINE",
"50 740 LINE"
);
}
);
width = 951;
},
{
hints = (
{
place = "{102, 86}";
type = Stem;
},
{
place = "{731, 86}";
type = Stem;
},
{
horizontal = 1;
place = "{740, -20}";
target = down;
type = TopGhost;
},
{
horizontal = 1;
place = "{0, 21}";
target = up;
type = BottomGhost;
}
);
layerId = "C9474598-BCEA-4A64-AEC8-6AD11FF1C3BE";
paths = (
{
closed = 1;
nodes = (
"157 740 LINE",
"417 0 LINE",
"500 0 LINE",
"502 0 LINE",
"762 740 LINE",
"677 740 LINE",
"459 118 LINE",
"240 740 LINE"
);
},
{
closed = 1;
nodes = (
"102 0 LINE",
"188 0 LINE",
"188 740 LINE",
"102 740 LINE"
);
},
{
closed = 1;
nodes = (
"731 0 LINE",
"817 0 LINE",
"817 740 LINE",
"731 740 LINE"
);
}
);
width = 919;
}
);
leftKerningGroup = B;
rightKerningGroup = H;
unicode = 004D;
},
{
color = (154, 153, 255, 255);
glyphname = N;
leftMetricsKey = H;
rightMetricsKey = H;
layers = (
{
anchors = (
{
name = top;
position = "{91, 825}";
}
);
layerId = "C26E6862-625E-4D03-9322-DC3496ADAC37";
name = Backup;
paths = (
{
closed = 1;
nodes = (
"50 0 LINE",
"132 0 LINE",
"132 750 LINE",
"50 750 LINE"
);
},
{
closed = 1;
nodes = (
"50 0 LINE",
"136 0 LINE",
"136 740 LINE",
"50 740 LINE"
);
}
);
width = 182;
},
{
anchors = (
{
name = top;
position = "{451, 730}";
}
);
hints = (
{
place = "{131, 128}";
type = Stem;
},
{
place = "{654, 124}";
type = Stem;
},
{
horizontal = 1;
place = "{0, 42}";
type = Stem;
},
{
horizontal = 1;
place = "{771, -20}";
target = down;
type = TopGhost;
}
);
layerId = "2B03D00A-B4C8-4D37-BEFC-80CF5F8B5BB8";
paths = (
{
closed = 1;
nodes = (
"265 0 LINE",
"265 566 LINE",
"627 0 LINE",
"756 0 LINE",
"756 749 LINE",
"639 749 LINE",
"639 199 LINE",
"294 740 LINE",
"144 740 LINE",
"144 0 LINE"
);
},
{
closed = 1;
nodes = (
"50 0 LINE",
"136 0 LINE",
"136 740 LINE",
"50 740 LINE"
);
}
);
width = 900;
},
{
anchors = (
{
name = top;
position = "{401, 730}";
}
);
hints = (
{
place = "{102, 86}";
type = Stem;
},
{
place = "{603, 86}";
type = Stem;
},
{
horizontal = 1;
place = "{740, -20}";
target = down;
type = TopGhost;
},
{
horizontal = 1;
place = "{0, 21}";
target = up;
type = BottomGhost;
}
);
layerId = "C9474598-BCEA-4A64-AEC8-6AD11FF1C3BE";
paths = (
{
closed = 1;
nodes = (
"603 0 LINE",
"677 36 LINE",
"227 740 LINE",
"130 740 LINE"
);
},
{
closed = 1;
nodes = (
"102 0 LINE",
"188 0 LINE",
"188 740 LINE",
"102 740 LINE"
);
},
{
closed = 1;
nodes = (
"603 0 LINE",
"689 0 LINE",
"689 740 LINE",
"603 740 LINE"
);
}
);
width = 791;
}
);
leftKerningGroup = B;
rightKerningGroup = H;
unicode = 004E;
},
{
color = (154, 153, 255, 255);
glyphname = O;
rightMetricsKey = "=lsb("O")";
layers = (
{
layerId = "C26E6862-625E-4D03-9322-DC3496ADAC37";
name = Backup;
width = 896;
},
{
anchors = (
{
name = top;
position = "{406, 730}";
}
);
hints = (
{
place = "{23, 128}";
type = Stem;
},
{
place = "{661, 128}";
type = Stem;
},
{
horizontal = 1;
place = "{-36, 124}";
type = Stem;
},
{
horizontal = 1;
place = "{652, 124}";
type = Stem;
}
);
layerId = "2B03D00A-B4C8-4D37-BEFC-80CF5F8B5BB8";
paths = (
{
closed = 1;
nodes = (
"188 754 OFFCURVE",
"42 602 OFFCURVE",
"42 371 CURVE SMOOTH",
"42 138 OFFCURVE",
"188 -14 OFFCURVE",
"404 -14 CURVE SMOOTH",
"621 -14 OFFCURVE",
"767 138 OFFCURVE",
"767 371 CURVE SMOOTH",
"767 602 OFFCURVE",
"621 754 OFFCURVE",
"404 754 CURVE SMOOTH"
);
},
{
closed = 1;
nodes = (
"284 103 OFFCURVE",
"163 183 OFFCURVE",
"163 371 CURVE SMOOTH",
"163 557 OFFCURVE",
"284 637 OFFCURVE",
"404 637 CURVE SMOOTH",
"524 637 OFFCURVE",
"646 557 OFFCURVE",
"646 371 CURVE SMOOTH",
"646 183 OFFCURVE",
"524 103 OFFCURVE",
"404 103 CURVE SMOOTH"
);
}
);
width = 809;
},
{
anchors = (
{
name = top;
position = "{438, 730}";
}
);
hints = (
{
place = "{76, 86}";
type = Stem;
},
{
place = "{714, 86}";
type = Stem;
},
{
horizontal = 1;
place = "{-15, 82}";
type = Stem;
},
{
horizontal = 1;
place = "{673, 82}";
type = Stem;
}
);
layerId = "C9474598-BCEA-4A64-AEC8-6AD11FF1C3BE";
paths = (
{
closed = 1;
nodes = (
"575 67 OFFCURVE",
"714 157 OFFCURVE",
"714 371 CURVE SMOOTH",
"714 583 OFFCURVE",
"575 673 OFFCURVE",
"438 673 CURVE SMOOTH",
"301 673 OFFCURVE",
"162 583 OFFCURVE",
"162 371 CURVE SMOOTH",
"162 157 OFFCURVE",
"301 67 OFFCURVE",
"438 67 CURVE SMOOTH"
);
},
{
closed = 1;
nodes = (
"222 -15 OFFCURVE",
"76 138 OFFCURVE",
"76 371 CURVE SMOOTH",
"76 602 OFFCURVE",
"222 755 OFFCURVE",
"438 755 CURVE SMOOTH",
"654 755 OFFCURVE",
"800 602 OFFCURVE",
"800 371 CURVE SMOOTH",
"800 138 OFFCURVE",
"654 -15 OFFCURVE",
"438 -15 CURVE SMOOTH"
);
}
);
width = 876;
}
);
leftKerningGroup = O;
rightKerningGroup = O1;
unicode = 004F;
},
{
color = (154, 153, 255, 255);
glyphname = P;
leftMetricsKey = B;
rightMetricsKey = O;
layers = (
{
layerId = "C26E6862-625E-4D03-9322-DC3496ADAC37";
name = Backup;
paths = (
{
closed = 1;
nodes = (
"204 670 LINE",
"430 670 LINE SMOOTH",
"481 670 OFFCURVE",
"530 634 OFFCURVE",
"530 546 CURVE SMOOTH",
"530 458 OFFCURVE",
"481 422 OFFCURVE",
"430 422 CURVE SMOOTH",
"204 422 LINE",
"204 342 LINE",
"430 342 LINE SMOOTH",
"545 342 OFFCURVE",
"622 423 OFFCURVE",
"622 546 CURVE SMOOTH",
"622 669 OFFCURVE",
"545 750 OFFCURVE",
"430 750 CURVE SMOOTH",
"204 750 LINE"
);
}
);
width = 672;
},
{
hints = (
{
place = "{131, 128}";
type = Stem;
},
{
place = "{536, 86}";
type = Stem;
},
{
horizontal = 1;
place = "{342, 80}";
type = Stem;
},
{
horizontal = 1;
place = "{660, 80}";
type = Stem;
},
{
horizontal = 1;
place = "{-21, 63}";
type = Stem;
}
);
layerId = "2B03D00A-B4C8-4D37-BEFC-80CF5F8B5BB8";
paths = (
{
closed = 1;
nodes = (
"144 740 LINE",
"144 0 LINE",
"265 0 LINE",
"265 324 LINE",
"377 324 LINE SMOOTH",
"554 324 OFFCURVE",
"636 406 OFFCURVE",
"636 532 CURVE SMOOTH",
"636 658 OFFCURVE",
"554 740 OFFCURVE",
"377 740 CURVE SMOOTH"
);
},
{
closed = 1;
nodes = (
"265 439 LINE",
"265 624 LINE",
"377 624 LINE SMOOTH",
"467 624 OFFCURVE",
"515 597 OFFCURVE",
"515 532 CURVE SMOOTH",
"515 466 OFFCURVE",
"467 439 OFFCURVE",
"377 439 CURVE SMOOTH"
);
}
);
width = 686;
},
{
hints = (
{
place = "{80, 86}";
type = Stem;
},
{
place = "{454, 84}";
type = Stem;
},
{
horizontal = 1;
place = "{342, 80}";
type = Stem;
},
{
horizontal = 1;
place = "{660, 80}";
type = Stem;
},
{
horizontal = 1;
place = "{0, 21}";
target = up;
type = BottomGhost;
}
);
layerId = "C9474598-BCEA-4A64-AEC8-6AD11FF1C3BE";
paths = (
{
closed = 1;
nodes = (
"80 0 LINE",
"166 0 LINE",
"166 740 LINE",
"80 740 LINE"
);
},
{
closed = 1;
nodes = (
"146 342 LINE",
"287 342 LINE SMOOTH",
"460 342 OFFCURVE",
"538 421 OFFCURVE",
"538 541 CURVE SMOOTH",
"538 661 OFFCURVE",
"460 740 OFFCURVE",
"287 740 CURVE SMOOTH",
"146 740 LINE",
"146 660 LINE",
"287 660 LINE SMOOTH",
"396 660 OFFCURVE",
"454 625 OFFCURVE",
"454 541 CURVE SMOOTH",
"454 457 OFFCURVE",
"396 422 OFFCURVE",
"287 422 CURVE SMOOTH",
"146 422 LINE"
);
}
);
width = 614;
}
);
leftKerningGroup = B;
unicode = 0050;
},
{
color = (154, 153, 255, 255);
glyphname = Q;
leftMetricsKey = O;
rightMetricsKey = O;
layers = (
{
layerId = "C26E6862-625E-4D03-9322-DC3496ADAC37";
name = Backup;
width = 896;
},
{
hints = (
{
place = "{70, 128}";
type = Stem;
},
{
place = "{394, 82}";
type = Stem;
},
{
place = "{574, 82}";
type = Stem;
},
{
place = "{708, 128}";
type = Stem;
},
{
horizontal = 1;
place = "{-198, 80}";
type = Stem;
},
{
horizontal = 1;
place = "{-36, 124}";
type = Stem;
},
{
horizontal = 1;
place = "{652, 124}";
type = Stem;
},
{
horizontal = 1;
place = "{-198, 167}";
type = Stem;
}
);
layerId = "2B03D00A-B4C8-4D37-BEFC-80CF5F8B5BB8";
paths = (
{
closed = 1;
nodes = (
"232 754 OFFCURVE",
"86 602 OFFCURVE",
"86 371 CURVE SMOOTH",
"86 165 OFFCURVE",
"201 21 OFFCURVE",
"378 -8 CURVE",
"383 -124 OFFCURVE",
"416 -187 OFFCURVE",
"523 -187 CURVE SMOOTH",
"595 -187 OFFCURVE",
"665 -117 OFFCURVE",
"665 -7 CURVE",
"548 -12 LINE",
"548 -59 OFFCURVE",
"536 -72 OFFCURVE",
"524 -72 CURVE SMOOTH",
"505 -72 OFFCURVE",
"498 -50 OFFCURVE",
"496 -11 CURVE",
"685 10 OFFCURVE",
"811 156 OFFCURVE",
"811 371 CURVE SMOOTH",
"811 602 OFFCURVE",
"665 754 OFFCURVE",
"449 754 CURVE SMOOTH"
);
},
{
closed = 1;
nodes = (
"329 103 OFFCURVE",
"208 183 OFFCURVE",
"208 371 CURVE SMOOTH",
"208 557 OFFCURVE",
"329 637 OFFCURVE",
"449 637 CURVE SMOOTH",
"569 637 OFFCURVE",
"690 557 OFFCURVE",
"690 371 CURVE SMOOTH",
"690 183 OFFCURVE",
"569 103 OFFCURVE",
"449 103 CURVE SMOOTH"
);
}
);
width = 897;
},
{
components = (
{
name = O;
alignment = -1;
}
);
hints = (
{
place = "{82, 86}";
type = Stem;
},
{
place = "{384, 82}";
type = Stem;
},
{
place = "{720, 86}";
type = Stem;
},
{
horizontal = 1;
place = "{-198, 80}";
type = Stem;
},
{
horizontal = 1;
place = "{-15, 82}";
type = Stem;
},
{
horizontal = 1;
place = "{673, 82}";
type = Stem;
},
{
place = "{76, 86}";
type = Stem;
},
{
place = "{714, 86}";
type = Stem;
}
);
layerId = "C9474598-BCEA-4A64-AEC8-6AD11FF1C3BE";
paths = (
{
closed = 1;
nodes = (
"384 0 LINE",
"384 -124 OFFCURVE",
"412 -198 OFFCURVE",
"516 -198 CURVE SMOOTH",
"582 -198 OFFCURVE",
"646 -141 OFFCURVE",
"646 -51 CURVE",
"564 -54 LINE",
"564 -105 OFFCURVE",
"540 -118 OFFCURVE",
"516 -118 CURVE SMOOTH",
"473 -118 OFFCURVE",
"466 -77 OFFCURVE",
"466 0 CURVE"
);
}
);
width = 876;
}
);
unicode = 0051;
},
{
color = (154, 153, 255, 255);
glyphname = R;
leftMetricsKey = "=H-22";
rightMetricsKey = "=H-23";
layers = (
{
components = (
{
name = P;
alignment = -1;
}
);
layerId = "C26E6862-625E-4D03-9322-DC3496ADAC37";
name = Backup;
width = 672;
},
{
hints = (
{
place = "{144, 86}";
type = Stem;
},
{
place = "{536, 86}";
type = Stem;
},
{
horizontal = 1;
place = "{-13, 80}";
type = Stem;
},
{
horizontal = 1;
place = "{342, 80}";
type = Stem;
},
{
horizontal = 1;
place = "{660, 80}";
type = Stem;
},
{
horizontal = 1;
place = "{-13, 159}";
type = Stem;
}
);
layerId = "2B03D00A-B4C8-4D37-BEFC-80CF5F8B5BB8";
paths = (
{
closed = 1;
nodes = (
"265 0 LINE",
"265 324 LINE",
"352 324 LINE",
"371 185 LINE SMOOTH",
"389 56 OFFCURVE",
"406 -12 OFFCURVE",
"523 -12 CURVE SMOOTH",
"595 -12 OFFCURVE",
"666 48 OFFCURVE",
"666 160 CURVE",
"546 155 LINE",
"546 116 OFFCURVE",
"533 103 OFFCURVE",
"520 103 CURVE SMOOTH",
"503 103 OFFCURVE",
"501 124 OFFCURVE",
"492 186 CURVE SMOOTH",
"492 194 OFFCURVE",
"490 204 OFFCURVE",
"489 213 CURVE SMOOTH",
"473 333 LINE",
"581 360 OFFCURVE",
"636 432 OFFCURVE",
"636 532 CURVE SMOOTH",
"636 658 OFFCURVE",
"554 740 OFFCURVE",
"377 740 CURVE SMOOTH",
"144 740 LINE",
"144 0 LINE"
);
},
{
closed = 1;
nodes = (
"265 439 LINE",
"265 624 LINE",
"377 624 LINE SMOOTH",
"467 624 OFFCURVE",
"515 597 OFFCURVE",
"515 532 CURVE SMOOTH",
"515 466 OFFCURVE",
"467 439 OFFCURVE",
"377 439 CURVE SMOOTH"
);
}
);
width = 786;
},
{
components = (
{
name = P;
alignment = -1;
}
);
layerId = "D1A6DB7E-AB39-4133-8299-ED7426FCEBD7";
name = Alternate;
paths = (
{
closed = 1;
nodes = (
"376 342 LINE SMOOTH",
"485 342 OFFCURVE",
"547 304 OFFCURVE",
"547 211 CURVE SMOOTH",
"547 0 LINE",
"629 0 LINE",
"629 211 LINE SMOOTH",
"629 338 OFFCURVE",
"549 422 OFFCURVE",
"376 422 CURVE SMOOTH",
"179 422 LINE",
"179 342 LINE"
);
}
);
width = 773;
},
{
components = (
{
name = P;
alignment = -1;
}
);
hints = (
{
place = "{90, 86}";
type = Stem;
},
{
place = "{482, 86}";
type = Stem;
},
{
place = "{499, 84}";
type = Stem;
},
{
horizontal = 1;
place = "{-29, 80}";
type = Stem;
},
{
horizontal = 1;
place = "{342, 80}";
type = Stem;
},
{
horizontal = 1;
place = "{660, 80}";
type = Stem;
},
{
horizontal = 1;
place = "{-29, 138}";
type = Stem;
},
{
place = "{80, 86}";
type = Stem;
},
{
place = "{454, 84}";
type = Stem;
},
{
horizontal = 1;
place = "{0, 21}";
target = up;
type = BottomGhost;
}
);
layerId = "C9474598-BCEA-4A64-AEC8-6AD11FF1C3BE";
paths = (
{
closed = 1;
nodes = (
"583 110 LINE",
"583 20 OFFCURVE",
"518 -29 OFFCURVE",
"453 -29 CURVE SMOOTH",
"347 -29 OFFCURVE",
"332 37 OFFCURVE",
"321 113 CURVE SMOOTH",
"286 365 LINE",
"371 365 LINE",
"406 112 LINE SMOOTH",
"410 84 OFFCURVE",
"419 51 OFFCURVE",
"455 51 CURVE SMOOTH",
"477 51 OFFCURVE",
"499 65 OFFCURVE",
"499 107 CURVE"
);
}
);
width = 662;
}
);
unicode = 0052;
},
{
color = (154, 153, 255, 255);
glyphname = S;
leftMetricsKey = "=O+12";
rightMetricsKey = "=H-10";
layers = (
{
layerId = "C26E6862-625E-4D03-9322-DC3496ADAC37";
name = Backup;
paths = (
{
closed = 1;
nodes = (
"513 516 LINE",
"522 604 OFFCURVE",
"451 668 OFFCURVE",
"355 668 CURVE SMOOTH",
"268 668 OFFCURVE",
"208 616 OFFCURVE",
"208 550 CURVE SMOOTH",
"208 499 OFFCURVE",
"247 482 OFFCURVE",
"328 457 CURVE SMOOTH",
"469 414 LINE SMOOTH",
"569 384 OFFCURVE",
"643 329 OFFCURVE",
"643 210 CURVE SMOOTH",
"643 67 OFFCURVE",
"538 -13 OFFCURVE",
"355 -13 CURVE SMOOTH",
"168 -13 OFFCURVE",
"69 134 OFFCURVE",
"90 241 CURVE",
"180 237 LINE",
"168 137 OFFCURVE",
"254 70 OFFCURVE",
"367 70 CURVE SMOOTH",
"483 70 OFFCURVE",
"551 124 OFFCURVE",
"551 210 CURVE SMOOTH",
"551 271 OFFCURVE",
"525 301 OFFCURVE",
"443 326 CURVE SMOOTH",
"284 374 LINE SMOOTH",
"168 409 OFFCURVE",
"118 463 OFFCURVE",
"118 550 CURVE SMOOTH",
"118 655 OFFCURVE",
"207 750 OFFCURVE",
"367 750 CURVE SMOOTH",
"503 750 OFFCURVE",
"618 658 OFFCURVE",
"605 510 CURVE"
);
}
);
width = 731;
},
{
hints = (
{
place = "{102, 86}";
type = Stem;
},
{
place = "{516, 87}";
type = Stem;
},
{
place = "{553, 90}";
type = Stem;
},
{
horizontal = 1;
place = "{-15, 84}";
type = Stem;
},
{
horizontal = 1;
place = "{669, 80}";
type = Stem;
}
);
layerId = "2B03D00A-B4C8-4D37-BEFC-80CF5F8B5BB8";
paths = (
{
closed = 1;
nodes = (
"69 275 LINE",
"89 81 OFFCURVE",
"192 -14 OFFCURVE",
"362 -14 CURVE SMOOTH",
"550 -14 OFFCURVE",
"654 73 OFFCURVE",
"654 219 CURVE SMOOTH",
"654 332 OFFCURVE",
"578 403 OFFCURVE",
"456 436 CURVE SMOOTH",
"306 478 LINE SMOOTH",
"249 495 OFFCURVE",
"223 520 OFFCURVE",
"223 551 CURVE SMOOTH",
"223 598 OFFCURVE",
"282 633 OFFCURVE",
"355 633 CURVE SMOOTH",
"444 633 OFFCURVE",
"494 571 OFFCURVE",
"494 481 CURVE",
"616 469 LINE",
"616 649 OFFCURVE",
"502 748 OFFCURVE",
"362 748 CURVE SMOOTH",
"189 748 OFFCURVE",
"102 652 OFFCURVE",
"102 548 CURVE SMOOTH",
"102 469 OFFCURVE",
"156 389 OFFCURVE",
"273 356 CURVE SMOOTH",
"422 314 LINE SMOOTH",
"489 294 OFFCURVE",
"529 263 OFFCURVE",
"529 219 CURVE SMOOTH",
"529 145 OFFCURVE",
"480 105 OFFCURVE",
"362 105 CURVE SMOOTH",
"257 105 OFFCURVE",
"196 174 OFFCURVE",
"195 303 CURVE"
);
}
);
width = 742;
},
{
hints = (
{
place = "{121, 86}";
type = Stem;
},
{
place = "{535, 87}";
type = Stem;
},
{
place = "{572, 90}";
type = Stem;
},
{
horizontal = 1;
place = "{-15, 84}";
type = Stem;
},
{
horizontal = 1;
place = "{669, 80}";
type = Stem;
}
);
layerId = "C9474598-BCEA-4A64-AEC8-6AD11FF1C3BE";
paths = (
{
closed = 1;
nodes = (
"88 253 LINE",
"106 73 OFFCURVE",
"207 -15 OFFCURVE",
"375 -15 CURVE",
"559 -15 OFFCURVE",
"662 69 OFFCURVE",
"662 204 CURVE SMOOTH",
"662 319 OFFCURVE",
"588 387 OFFCURVE",
"468 420 CURVE SMOOTH",
"310 464 LINE SMOOTH",
"236 485 OFFCURVE",
"207 519 OFFCURVE",
"207 560 CURVE SMOOTH",
"207 623 OFFCURVE",
"278 669 OFFCURVE",
"367 669 CURVE SMOOTH",
"474 669 OFFCURVE",
"535 602 OFFCURVE",
"535 506 CURVE",
"622 498 LINE",
"622 660 OFFCURVE",
"511 749 OFFCURVE",
"375 749 CURVE SMOOTH",
"206 749 OFFCURVE",
"121 657 OFFCURVE",
"121 560 CURVE SMOOTH",
"121 484 OFFCURVE",
"173 407 OFFCURVE",
"287 375 CURVE SMOOTH",
"444 331 LINE SMOOTH",
"526 308 OFFCURVE",
"572 269 OFFCURVE",
"572 210 CURVE SMOOTH",
"572 118 OFFCURVE",
"514 69 OFFCURVE",
"375 69 CURVE SMOOTH",
"251 69 OFFCURVE",
"177 140 OFFCURVE",
"177 273 CURVE"
);
}
);
width = 754;
}
);
leftKerningGroup = S;
rightKerningGroup = S1;
unicode = 0053;
},
{
color = (153, 254, 255, 255);
glyphname = T;
leftMetricsKey = "=A-40";
rightMetricsKey = "=A-39";
layers = (
{
components = (
{
name = I;
alignment = -1;
}
);
layerId = "C26E6862-625E-4D03-9322-DC3496ADAC37";
name = Backup;
paths = (
{
closed = 1;
nodes = (
"50 0 LINE",
"136 0 LINE",
"136 740 LINE",
"50 740 LINE"
);
}
);
width = 0;
},
{
hints = (
{
place = "{261, 128}";
type = Stem;
},
{
horizontal = 1;
place = "{660, 80}";
type = Stem;
},
{
horizontal = 1;
place = "{-21, 63}";
type = Stem;
}
);
layerId = "2B03D00A-B4C8-4D37-BEFC-80CF5F8B5BB8";
paths = (
{
closed = 1;
nodes = (
"267 624 LINE",
"267 0 LINE",
"388 0 LINE",
"388 624 LINE",
"629 624 LINE",
"629 740 LINE",
"22 740 LINE",
"22 624 LINE"
);
},
{
closed = 1;
nodes = (
"50 0 LINE",
"136 0 LINE",
"136 740 LINE",
"50 740 LINE"
);
}
);
width = 651;
},
{
hints = (
{
place = "{271, 86}";
type = Stem;
},
{
horizontal = 1;
place = "{660, 80}";
type = Stem;
},
{
horizontal = 1;
place = "{0, 21}";
target = up;
type = BottomGhost;
}
);
layerId = "C9474598-BCEA-4A64-AEC8-6AD11FF1C3BE";
paths = (
{
closed = 1;
nodes = (
"13 660 LINE",
"613 660 LINE",
"613 740 LINE",
"13 740 LINE"
);
},
{
closed = 1;
nodes = (
"271 0 LINE",
"357 0 LINE",
"357 740 LINE",
"271 740 LINE"
);
}
);
width = 627;
}
);
unicode = 0054;
},
{
color = (154, 153, 255, 255);
glyphname = U;
leftMetricsKey = "=O+26";
rightMetricsKey = "=O-2";
layers = (
{
layerId = "C26E6862-625E-4D03-9322-DC3496ADAC37";
name = Backup;
width = 768;
},
{
anchors = (
{
name = top;
position = "{416, 730}";
}
);
hints = (
{
place = "{136, 86}";
type = Stem;
},
{
place = "{596, 86}";
type = Stem;
},
{
horizontal = 1;
place = "{-13, 82}";
type = Stem;
},
{
horizontal = 1;
place = "{740, -20}";
target = down;
type = TopGhost;
}
);
layerId = "2B03D00A-B4C8-4D37-BEFC-80CF5F8B5BB8";
paths = (
{
closed = 1;
nodes = (
"582 -12 OFFCURVE",
"692 78 OFFCURVE",
"692 271 CURVE SMOOTH",
"692 740 LINE",
"571 740 LINE",
"571 271 LINE SMOOTH",
"571 166 OFFCURVE",
"521 108 OFFCURVE",
"415 105 CURVE",
"410 105 LINE",
"304 107 OFFCURVE",
"257 167 OFFCURVE",
"257 271 CURVE SMOOTH",
"257 740 LINE",
"136 740 LINE",
"136 271 LINE SMOOTH",
"136 78 OFFCURVE",
"247 -12 OFFCURVE",
"414 -12 CURVE SMOOTH"
);
}
);
width = 778;
},
{
anchors = (
{
name = top;
position = "{375, 730}";
},
{
name = bottom;
position = "{375, 0}";
}
);
hints = (
{
place = "{102, 86}";
type = Stem;
},
{
place = "{562, 86}";
type = Stem;
},
{
horizontal = 1;
place = "{-13, 82}";
type = Stem;
},
{
horizontal = 1;
place = "{740, -20}";
target = down;
type = TopGhost;
}
);
layerId = "C9474598-BCEA-4A64-AEC8-6AD11FF1C3BE";
paths = (
{
closed = 1;
nodes = (
"102 740 LINE",
"102 265 LINE SMOOTH",
"102 75 OFFCURVE",
"211 -13 OFFCURVE",
"375 -13 CURVE SMOOTH",
"539 -13 OFFCURVE",
"648 75 OFFCURVE",
"648 265 CURVE SMOOTH",
"648 740 LINE",
"562 740 LINE",
"562 265 LINE SMOOTH",
"562 136 OFFCURVE",
"506 69 OFFCURVE",
"375 69 CURVE",
"244 69 OFFCURVE",
"188 141 OFFCURVE",
"188 265 CURVE SMOOTH",
"188 740 LINE"
);
}
);
width = 722;
}
);
leftKerningGroup = U;
rightKerningGroup = U1;
unicode = 0055;
},
{
color = (154, 153, 255, 255);
glyphname = V;
leftMetricsKey = A;
rightMetricsKey = A;
layers = (
{
layerId = "C26E6862-625E-4D03-9322-DC3496ADAC37";
name = Backup;
paths = (
{
closed = 1;
nodes = (
"48 0 LINE",
"302 740 LINE",
"393 740 LINE",
"135 0 LINE"
);
}
);
width = 441;
},
{
hints = (
{
horizontal = 1;
place = "{0, 42}";
type = Stem;
},
{
horizontal = 1;
place = "{740, -20}";
target = down;
type = TopGhost;
}
);
layerId = "2B03D00A-B4C8-4D37-BEFC-80CF5F8B5BB8";
paths = (
{
closed = 1;
nodes = (
"306 0 LINE",
"419 0 LINE",
"679 740 LINE",
"550 740 LINE",
"363 198 LINE",
"177 740 LINE",
"48 740 LINE"
);
},
{
closed = 1;
nodes = (
"135 0 LINE",
"393 740 LINE",
"302 740 LINE",
"48 0 LINE"
);
}
);
width = 725;
},
{
hints = (
{
horizontal = 1;
place = "{0, 21}";
target = up;
type = BottomGhost;
},
{
horizontal = 1;
place = "{740, -20}";
target = down;
type = TopGhost;
}
);
layerId = "C9474598-BCEA-4A64-AEC8-6AD11FF1C3BE";
paths = (
{
closed = 1;
nodes = (
"311 0 LINE",
"398 0 LINE",
"144 740 LINE",
"53 740 LINE"
);
},
{
closed = 1;
nodes = (
"660 740 LINE",
"569 740 LINE",
"315 0 LINE",
"402 0 LINE"
);
}
);
width = 713;
}
);
unicode = 0056;
},
{
color = (153, 254, 255, 255);
glyphname = W;
leftMetricsKey = "=A-14";
rightMetricsKey = "=A-13";
layers = (
{
layerId = "C26E6862-625E-4D03-9322-DC3496ADAC37";
name = Backup;
width = 942;
},
{
anchors = (
{
name = top;
position = "{474, 815}";
}
);
hints = (
{
horizontal = 1;
place = "{740, -20}";
target = down;
type = TopGhost;
},
{
horizontal = 1;
place = "{0, 42}";
type = Stem;
}
);
layerId = "2B03D00A-B4C8-4D37-BEFC-80CF5F8B5BB8";
paths = (
{
closed = 1;
nodes = (
"227 0 LINE",
"337 0 LINE",
"474 499 LINE",
"609 0 LINE",
"720 0 LINE",
"899 740 LINE",
"778 740 LINE",
"661 254 LINE",
"528 740 LINE",
"419 740 LINE",
"286 254 LINE",
"169 740 LINE",
"48 740 LINE"
);
}
);
width = 947;
},
{
anchors = (
{
name = top;
position = "{474, 730}";
}
);
hints = (
{
horizontal = 1;
place = "{740, -20}";
target = down;
type = TopGhost;
},
{
horizontal = 1;
place = "{0, 21}";
target = up;
type = BottomGhost;
}
);
layerId = "C9474598-BCEA-4A64-AEC8-6AD11FF1C3BE";
paths = (
{
closed = 1;
nodes = (
"213 0 LINE",
"39 740 LINE",
"128 740 LINE",
"293 0 LINE"
);
},
{
closed = 1;
nodes = (
"231 0 LINE",
"432 740 LINE",
"516 740 LINE",
"308 0 LINE"
);
},
{
closed = 1;
nodes = (
"655 0 LINE",
"820 740 LINE",
"909 740 LINE",
"735 0 LINE"
);
},
{
closed = 1;
nodes = (
"639 0 LINE",
"432 740 LINE",
"516 740 LINE",
"717 0 LINE"
);
}
);
width = 949;
}
);
unicode = 0057;
},
{
color = (154, 153, 255, 255);
glyphname = X;
leftMetricsKey = "=A-2";
rightMetricsKey = "=A-1";
layers = (
{
layerId = "C26E6862-625E-4D03-9322-DC3496ADAC37";
name = Backup;
width = 698;
},
{
hints = (
{
horizontal = 1;
place = "{740, -20}";
target = down;
type = TopGhost;
},
{
horizontal = 1;
place = "{-21, 63}";
type = Stem;
}
);
layerId = "2B03D00A-B4C8-4D37-BEFC-80CF5F8B5BB8";
paths = (
{
closed = 1;
nodes = (
"61 740 LINE",
"294 365 LINE",
"60 0 LINE",
"196 0 LINE",
"370 281 LINE",
"544 0 LINE",
"680 0 LINE",
"447 365 LINE",
"679 740 LINE",
"536 740 LINE",
"370 472 LINE",
"205 740 LINE"
);
}
);
width = 740;
},
{
hints = (
{
horizontal = 1;
place = "{740, -20}";
target = down;
type = TopGhost;
},
{
horizontal = 1;
place = "{0, 21}";
target = up;
type = BottomGhost;
}
);
layerId = "C9474598-BCEA-4A64-AEC8-6AD11FF1C3BE";
paths = (
{
closed = 1;
nodes = (
"297 344 LINE",
"383 368 LINE",
"153 740 LINE",
"51 740 LINE"
);
},
{
closed = 1;
nodes = (
"297 368 LINE",
"383 344 LINE",
"629 740 LINE",
"527 740 LINE"
);
},
{
closed = 1;
nodes = (
"144 0 LINE",
"381 382 LINE",
"299 388 LINE",
"51 0 LINE"
);
},
{
closed = 1;
nodes = (
"629 0 LINE",
"381 388 LINE",
"299 382 LINE",
"536 0 LINE"
);
}
);
width = 681;
}
);
unicode = 0058;
},
{
color = (153, 254, 255, 255);
glyphname = Y;
leftMetricsKey = "=A-2";
rightMetricsKey = "=A-1";
layers = (
{
layerId = "C26E6862-625E-4D03-9322-DC3496ADAC37";
name = Backup;
width = 698;
},
{
anchors = (
{
name = top;
position = "{370, 815}";
}
);
hints = (
{
place = "{306, 86}";
type = Stem;
},
{
horizontal = 1;
place = "{740, -20}";
target = down;
type = TopGhost;
},
{
horizontal = 1;
place = "{0, 42}";
type = Stem;
}
);
layerId = "2B03D00A-B4C8-4D37-BEFC-80CF5F8B5BB8";
paths = (
{
closed = 1;
nodes = (
"309 340 LINE",
"309 0 LINE",
"430 0 LINE",
"430 340 LINE",
"679 740 LINE",
"535 740 LINE",
"369 472 LINE",
"204 740 LINE",
"60 740 LINE"
);
}
);
width = 739;
},
{
anchors = (
{
name = top;
position = "{340, 730}";
}
);
hints = (
{
place = "{297, 86}";
type = Stem;
},
{
horizontal = 1;
place = "{740, -20}";
target = down;
type = TopGhost;
},
{
horizontal = 1;
place = "{0, 21}";
target = up;
type = BottomGhost;
}
);
layerId = "C9474598-BCEA-4A64-AEC8-6AD11FF1C3BE";
paths = (
{
closed = 1;
nodes = (
"297 344 LINE",
"383 368 LINE",
"153 740 LINE",
"51 740 LINE"
);
},
{
closed = 1;
nodes = (
"297 368 LINE",
"383 344 LINE",
"629 740 LINE",
"527 740 LINE"
);
},
{
closed = 1;
nodes = (
"297 0 LINE",
"383 0 LINE",
"383 394 LINE",
"297 394 LINE"
);
}
);
width = 681;
}
);
leftKerningGroup = Y;
rightKerningGroup = Y1;
unicode = 0059;
},
{
color = (153, 254, 255, 255);
glyphname = Z;
leftMetricsKey = "=O+7";
rightMetricsKey = O;
layers = (
{
layerId = "C26E6862-625E-4D03-9322-DC3496ADAC37";
name = Backup;
paths = (
{
closed = 1;
nodes = (
"517 342 LINE",
"517 422 LINE",
"110 422 LINE",
"110 342 LINE"
);
}
);
width = 627;
},
{
hints = (
{
horizontal = 1;
place = "{0, 82}";
type = Stem;
},
{
horizontal = 1;
place = "{658, 82}";
type = Stem;
}
);
layerId = "2B03D00A-B4C8-4D37-BEFC-80CF5F8B5BB8";
paths = (
{
closed = 1;
nodes = (
"88 104 LINE",
"88 0 LINE",
"610 0 LINE",
"610 117 LINE",
"244 117 LINE",
"598 636 LINE",
"598 740 LINE",
"112 740 LINE",
"112 623 LINE",
"442 623 LINE"
);
},
{
closed = 1;
nodes = (
"517 342 LINE",
"517 422 LINE",
"110 422 LINE",
"110 342 LINE"
);
}
);
width = 698;
},
{
hints = (
{
horizontal = 1;
place = "{0, 80}";
type = Stem;
},
{
horizontal = 1;
place = "{660, 80}";
type = Stem;
}
);
layerId = "C9474598-BCEA-4A64-AEC8-6AD11FF1C3BE";
paths = (
{
closed = 1;
nodes = (
"84 80 LINE",
"184 80 LINE",
"591 660 LINE",
"491 660 LINE"
);
},
{
closed = 1;
nodes = (
"102.607 660 LINE",
"591.007 660 LINE",
"591.007 740 LINE",
"102.607 740 LINE"
);
},
{
closed = 1;
nodes = (
"84. 0 LINE",
"613.1 0 LINE",
"613.1 80 LINE",
"84. 80 LINE"
);
}
);
width = 690;
}
);
leftKerningGroup = Z;
rightKerningGroup = Z1;
unicode = 005A;
},
{
glyphname = bracketleft;
leftMetricsKey = "=|-2";
layers = (
{
components = (
{
name = bar;
alignment = -1;
}
);
layerId = "C26E6862-625E-4D03-9322-DC3496ADAC37";
name = Backup;
width = 0;
},
{
components = (
{
name = bar;
transform = "{1, 0, 0, 1, -2, 0}";
alignment = -1;
}
);
hints = (
{
place = "{99, 60}";
type = Stem;
},
{
place = "{99, 172}";
type = Stem;
},
{
horizontal = 1;
place = "{-120, 56}";
type = Stem;
},
{
horizontal = 1;
place = "{746, 56}";
type = Stem;
}
);
layerId = "2B03D00A-B4C8-4D37-BEFC-80CF5F8B5BB8";
paths = (
{
closed = 1;
nodes = (
"99 746 LINE",
"271 746 LINE",
"271 802 LINE",
"99 802 LINE"
);
},
{
closed = 1;
nodes = (
"99 -120 LINE",
"271 -120 LINE",
"271 -64 LINE",
"99 -64 LINE"
);
}
);
width = 326;
},
{
components = (
{
name = bar;
transform = "{1, 0, 0, 1, -48, 0}";
alignment = -1;
}
);
hints = (
{
place = "{53, 60}";
type = Stem;
},
{
place = "{53, 172}";
type = Stem;
},
{
horizontal = 1;
place = "{-120, 56}";
type = Stem;
},
{
horizontal = 1;
place = "{746, 56}";
type = Stem;
}
);
layerId = "C9474598-BCEA-4A64-AEC8-6AD11FF1C3BE";
paths = (
{
closed = 1;
nodes = (
"53 746 LINE",
"225 746 LINE",
"225 802 LINE",
"53 802 LINE"
);
},
{
closed = 1;
nodes = (
"53 -120 LINE",
"225 -120 LINE",
"225 -64 LINE",
"53 -64 LINE"
);
}
);
width = 280;
}
);
leftKerningGroup = bar;
unicode = 005B;
},
{
glyphname = grave;
layers = (
{
layerId = "C26E6862-625E-4D03-9322-DC3496ADAC37";
name = Backup;
width = 363;
},
{
anchors = (
{
name = _top;
position = "{176, 510}";
}
);
hints = (
{
horizontal = 1;
place = "{591, 21}";
type = Stem;
},
{
horizontal = 1;
place = "{750, -20}";
target = down;
type = TopGhost;
}
);
layerId = "2B03D00A-B4C8-4D37-BEFC-80CF5F8B5BB8";
paths = (
{
closed = 1;
nodes = (
"195 591 LINE",
"297 591 LINE",
"168 750 LINE",
"66 750 LINE"
);
}
);
width = 363;
},
{
anchors = (
{
name = _top;
position = "{176, 510}";
}
);
hints = (
{
horizontal = 1;
place = "{591, 21}";
target = up;
type = BottomGhost;
},
{
horizontal = 1;
place = "{750, -20}";
target = down;
type = TopGhost;
}
);
layerId = "C9474598-BCEA-4A64-AEC8-6AD11FF1C3BE";
paths = (
{
closed = 1;
nodes = (
"195 591 LINE",
"297 591 LINE",
"168 750 LINE",
"66 750 LINE"
);
}
);
width = 363;
}
);
unicode = 0060;
},
{
color = (154, 153, 255, 255);
glyphname = a;
leftMetricsKey = "=n-12";
rightMetricsKey = n;
layers = (
{
layerId = "C26E6862-625E-4D03-9322-DC3496ADAC37";
name = Backup;
paths = (
{
closed = 1;
nodes = (
"-572 236 OFFCURVE",
"-510 305 OFFCURVE",
"-367 305 CURVE SMOOTH",
"-242 305 OFFCURVE",
"-190 269 OFFCURVE",
"-190 269 CURVE",
"-185 201 LINE",
"-185 201 OFFCURVE",
"-276 234 OFFCURVE",
"-352 234 CURVE SMOOTH",
"-449 234 OFFCURVE",
"-490 202 OFFCURVE",
"-490 143 CURVE SMOOTH",
"-490 80 OFFCURVE",
"-442 68 OFFCURVE",
"-395 68 CURVE SMOOTH",
"-269 68 OFFCURVE",
"-211 153 OFFCURVE",
"-179 173 CURVE",
"-179 73 LINE",
"-227 42 OFFCURVE",
"-318 -7 OFFCURVE",
"-420 -7 CURVE SMOOTH",
"-516 -7 OFFCURVE",
"-572 41 OFFCURVE",
"-572 145 CURVE SMOOTH"
);
},
{
closed = 1;
nodes = (
"-418 447 OFFCURVE",
"-477 429 OFFCURVE",
"-477 362 CURVE",
"-559 375 LINE",
"-559 481 OFFCURVE",
"-459 519 OFFCURVE",
"-363 519 CURVE SMOOTH",
"-203 519 OFFCURVE",
"-166 410 OFFCURVE",
"-166 286 CURVE SMOOTH",
"-166 0 LINE",
"-248 0 LINE",
"-248 298 LINE SMOOTH",
"-248 357 OFFCURVE",
"-265 447 OFFCURVE",
"-365 447 CURVE SMOOTH"
);
},
{
closed = 1;
nodes = (
"608 240 OFFCURVE",
"676 307 OFFCURVE",
"819 307 CURVE SMOOTH",
"944 307 OFFCURVE",
"996 271 OFFCURVE",
"996 271 CURVE",
"1001 207 LINE",
"1001 207 OFFCURVE",
"910 240 OFFCURVE",
"834 240 CURVE SMOOTH",
"737 240 OFFCURVE",
"688 206 OFFCURVE",
"688 149 CURVE SMOOTH",
"688 86 OFFCURVE",
"742 63 OFFCURVE",
"789 63 CURVE SMOOTH",
"884 63 OFFCURVE",
"940 124 OFFCURVE",
"940 202 CURVE",
"940 240 LINE",
"1020 241 LINE",
"1020 95 OFFCURVE",
"891 -7 OFFCURVE",
"769 -7 CURVE SMOOTH",
"677 -7 OFFCURVE",
"608 52 OFFCURVE",
"608 156 CURVE SMOOTH"
);
},
{
closed = 1;
nodes = (
"768 447 OFFCURVE",
"709 419 OFFCURVE",
"709 352 CURVE",
"627 346 LINE",
"627 460 OFFCURVE",
"727 519 OFFCURVE",
"823 519 CURVE SMOOTH",
"983 519 OFFCURVE",
"1020 410 OFFCURVE",
"1020 286 CURVE SMOOTH",
"1020 0 LINE",
"940 0 LINE",
"940 121 LINE",
"940 232 LINE",
"940 298 LINE SMOOTH",
"940 375 OFFCURVE",
"921 447 OFFCURVE",
"821 447 CURVE SMOOTH"
);
},
{
closed = 1;
nodes = (
"42 240 OFFCURVE",
"110 307 OFFCURVE",
"253 307 CURVE SMOOTH",
"306 307 OFFCURVE",
"346 301 OFFCURVE",
"374 293 CURVE",
"374 298 LINE SMOOTH",
"374 375 OFFCURVE",
"355 447 OFFCURVE",
"255 447 CURVE SMOOTH",
"202 447 OFFCURVE",
"143 419 OFFCURVE",
"143 352 CURVE",
"61 346 LINE",
"61 460 OFFCURVE",
"161 519 OFFCURVE",
"257 519 CURVE SMOOTH",
"417 519 OFFCURVE",
"454 410 OFFCURVE",
"454 286 CURVE SMOOTH",
"454 241 LINE",
"454 0 LINE",
"374 0 LINE",
"374 62 LINE",
"327 18 OFFCURVE",
"264 -7 OFFCURVE",
"203 -7 CURVE SMOOTH",
"111 -7 OFFCURVE",
"42 52 OFFCURVE",
"42 156 CURVE SMOOTH"
);
},
{
closed = 1;
nodes = (
"122 86 OFFCURVE",
"176 63 OFFCURVE",
"223 63 CURVE SMOOTH",
"304 63 OFFCURVE",
"359 108 OFFCURVE",
"374 182 CURVE SMOOTH",
"377 195 OFFCURVE",
"378 209 OFFCURVE",
"378 224 CURVE",
"378 224 LINE",
"377 224 OFFCURVE",
"375 225 OFFCURVE",
"374 225 CURVE",
"343 233 OFFCURVE",
"304 240 OFFCURVE",
"268 240 CURVE SMOOTH",
"171 240 OFFCURVE",
"122 206 OFFCURVE",
"122 149 CURVE SMOOTH"
);
}
);
width = 561;
},
{
anchors = (
{
name = top;
position = "{317, 510}";
},
{
name = bottom;
position = "{307, -13}";
}
);
hints = (
{
place = "{73, 123}";
type = Stem;
},
{
place = "{86, 126}";
type = Stem;
},
{
place = "{423, 123}";
type = Stem;
},
{
horizontal = 1;
place = "{-35, 113}";
type = Stem;
},
{
horizontal = 1;
place = "{218, 110}";
type = Stem;
},
{
horizontal = 1;
place = "{429, 115}";
type = Stem;
}
);
layerId = "2B03D00A-B4C8-4D37-BEFC-80CF5F8B5BB8";
paths = (
{
closed = 1;
nodes = (
"320 -12 OFFCURVE",
"370 4 OFFCURVE",
"410 35 CURVE",
"410 0 LINE",
"525 0 LINE",
"525 284 LINE SMOOTH",
"525 408 OFFCURVE",
"471 522 OFFCURVE",
"313 522 CURVE SMOOTH",
"205 522 OFFCURVE",
"100 449 OFFCURVE",
"100 318 CURVE",
"217 326 LINE",
"217 387 OFFCURVE",
"265 415 OFFCURVE",
"310 415 CURVE SMOOTH",
"378 415 OFFCURVE",
"405 373 OFFCURVE",
"409 314 CURVE",
"383 320 OFFCURVE",
"350 323 OFFCURVE",
"309 323 CURVE SMOOTH",
"159 323 OFFCURVE",
"88 249 OFFCURVE",
"88 159 CURVE SMOOTH",
"88 49 OFFCURVE",
"162 -12 OFFCURVE",
"262 -12 CURVE SMOOTH"
);
},
{
closed = 1;
nodes = (
"202 196 OFFCURVE",
"246 221 OFFCURVE",
"327 221 CURVE SMOOTH",
"360 221 OFFCURVE",
"397 214 OFFCURVE",
"428 206 CURVE",
"427 207 LINE",
"429 206 OFFCURVE",
"431 205 OFFCURVE",
"435 205 CURVE",
"415 226 LINE",
"415 148 OFFCURVE",
"362 93 OFFCURVE",
"282 93 CURVE SMOOTH",
"247 93 OFFCURVE",
"202 109 OFFCURVE",
"202 155 CURVE SMOOTH"
);
}
);
width = 613;
},
{
anchors = (
{
name = top;
position = "{291, 510}";
},
{
name = bottom;
position = "{462, 0}";
}
);
hints = (
{
place = "{69, 80}";
type = Stem;
},
{
place = "{82, 83}";
type = Stem;
},
{
place = "{419, 80}";
type = Stem;
},
{
horizontal = 1;
place = "{-5583, 5640}";
type = Stem;
},
{
horizontal = 1;
place = "{240, 67}";
type = Stem;
},
{
horizontal = 1;
place = "{451, 72}";
type = Stem;
}
);
layerId = "C9474598-BCEA-4A64-AEC8-6AD11FF1C3BE";
paths = (
{
closed = 1;
nodes = (
"139 307 OFFCURVE",
"69 237 OFFCURVE",
"69 152 CURVE SMOOTH",
"69 45 OFFCURVE",
"140 -13 OFFCURVE",
"242 -13 CURVE SMOOTH",
"314 -13 OFFCURVE",
"376 16 OFFCURVE",
"419 63 CURVE",
"419 0 LINE",
"499 0 LINE",
"499 286 LINE SMOOTH",
"499 410 OFFCURVE",
"441 523 OFFCURVE",
"294 523 CURVE SMOOTH",
"185 523 OFFCURVE",
"82 460 OFFCURVE",
"82 346 CURVE",
"165 352 LINE",
"165 419 OFFCURVE",
"228 451 OFFCURVE",
"289 451 CURVE SMOOTH",
"381 451 OFFCURVE",
"419 379 OFFCURVE",
"419 292 CURVE",
"419 292 LINE",
"389 300 OFFCURVE",
"346 307 OFFCURVE",
"287 307 CURVE SMOOTH"
);
},
{
closed = 1;
nodes = (
"210 59 OFFCURVE",
"149 83 OFFCURVE",
"149 145 CURVE SMOOTH",
"149 205 OFFCURVE",
"205 240 OFFCURVE",
"300 240 CURVE SMOOTH",
"341 240 OFFCURVE",
"385 232 OFFCURVE",
"424 223 CURVE",
"424 131 OFFCURVE",
"360 59 OFFCURVE",
"264 59 CURVE SMOOTH"
);
}
);
width = 572;
}
);
leftKerningGroup = a;
rightKerningGroup = a1;
unicode = 0061;
},
{
glyphname = b;
leftMetricsKey = "=n-7";
rightMetricsKey = "=o-24";
layers = (
{
components = (
{
name = d;
alignment = -1;
}
);
layerId = "C26E6862-625E-4D03-9322-DC3496ADAC37";
name = Backup;
width = 615;
},
{
layerId = "2B03D00A-B4C8-4D37-BEFC-80CF5F8B5BB8";
paths = (
{
closed = 1;
nodes = (
"108 0 LINE",
"224 0 LINE",
"224 25 LINE",
"257 2 OFFCURVE",
"298 -12 OFFCURVE",
"348 -12 CURVE SMOOTH",
"479 -12 OFFCURVE",
"573 90 OFFCURVE",
"573 254 CURVE SMOOTH",
"573 420 OFFCURVE",
"479 522 OFFCURVE",
"343 522 CURVE SMOOTH",
"296 522 OFFCURVE",
"256 508 OFFCURVE",
"224 487 CURVE",
"224 731 LINE",
"108 731 LINE"
);
},
{
closed = 1;
nodes = (
"218 330 OFFCURVE",
"247 413 OFFCURVE",
"335 413 CURVE SMOOTH",
"399 413 OFFCURVE",
"456 371 OFFCURVE",
"456 255 CURVE SMOOTH",
"456 139 OFFCURVE",
"399 96 OFFCURVE",
"335 96 CURVE SMOOTH",
"267 96 OFFCURVE",
"236 148 OFFCURVE",
"223 200 CURVE",
"220 219 OFFCURVE",
"218 239 OFFCURVE",
"218 256 CURVE SMOOTH"
);
}
);
width = 620;
},
{
components = (
{
name = d;
transform = "{-1, 0, 0, 1, 564, 0}";
alignment = -1;
}
);
hints = (
{
place = "{451, 83}";
type = Stem;
},
{
place = "{74, 82}";
type = Stem;
},
{
horizontal = 1;
place = "{-13, 74}";
type = Stem;
},
{
horizontal = 1;
place = "{448, 75}";
type = Stem;
},
{
horizontal = 1;
place = "{750, -20}";
target = down;
type = TopGhost;
}
);
layerId = "C9474598-BCEA-4A64-AEC8-6AD11FF1C3BE";
width = 563;
}
);
unicode = 0062;
},
{
color = (153, 254, 255, 255);
glyphname = c;
leftMetricsKey = "=o-12";
rightMetricsKey = "=o-12";
layers = (
{
layerId = "C26E6862-625E-4D03-9322-DC3496ADAC37";
name = Backup;
width = 583;
},
{
hints = (
{
place = "{48, 82}";
type = Stem;
},
{
horizontal = 1;
place = "{-13, 74}";
type = Stem;
},
{
horizontal = 1;
place = "{449, 74}";
type = Stem;
}
);
layerId = "2B03D00A-B4C8-4D37-BEFC-80CF5F8B5BB8";
paths = (
{
closed = 1;
nodes = (
"48 132 OFFCURVE",
"126 -12 OFFCURVE",
"304 -12 CURVE SMOOTH",
"408 -12 OFFCURVE",
"516 64 OFFCURVE",
"538 175 CURVE",
"421 183 LINE",
"408 136 OFFCURVE",
"360 96 OFFCURVE",
"304 96 CURVE SMOOTH",
"232 96 OFFCURVE",
"164 143 OFFCURVE",
"164 255 CURVE SMOOTH",
"164 367 OFFCURVE",
"225 414 OFFCURVE",
"296 414 CURVE SMOOTH",
"368 414 OFFCURVE",
"418 350 OFFCURVE",
"419 275 CURVE",
"539 292 LINE",
"522 459 OFFCURVE",
"400 522 OFFCURVE",
"297 522 CURVE SMOOTH",
"169 522 OFFCURVE",
"48 436 OFFCURVE",
"48 255 CURVE SMOOTH"
);
}
);
width = 587;
},
{
hints = (
{
place = "{41, 82}";
type = Stem;
},
{
horizontal = 1;
place = "{-13, 74}";
type = Stem;
},
{
horizontal = 1;
place = "{449, 74}";
type = Stem;
}
);
layerId = "C9474598-BCEA-4A64-AEC8-6AD11FF1C3BE";
paths = (
{
closed = 1;
nodes = (
"525 148 LINE",
"506 53 OFFCURVE",
"401 -13 OFFCURVE",
"297 -13 CURVE SMOOTH",
"119 -13 OFFCURVE",
"41 131 OFFCURVE",
"41 255 CURVE SMOOTH",
"41 436 OFFCURVE",
"161 523 OFFCURVE",
"289 523 CURVE SMOOTH",
"392 523 OFFCURVE",
"512 465 OFFCURVE",
"528 314 CURVE",
"443 302 LINE",
"442 381 OFFCURVE",
"379 449 OFFCURVE",
"288 449 CURVE SMOOTH",
"199 449 OFFCURVE",
"123 391 OFFCURVE",
"123 255 CURVE SMOOTH",
"123 119 OFFCURVE",
"208 61 OFFCURVE",
"297 61 CURVE SMOOTH",
"368 61 OFFCURVE",
"426 104 OFFCURVE",
"440 154 CURVE"
);
}
);
width = 569;
}
);
unicode = 0063;
},
{
glyphname = d;
leftMetricsKey = "=o-23";
rightMetricsKey = "=n+4";
layers = (
{
layerId = "C26E6862-625E-4D03-9322-DC3496ADAC37";
name = Backup;
paths = (
{
closed = 1;
nodes = (
"348 -5 OFFCURVE",
"393 11 OFFCURVE",
"425 38 CURVE",
"425 0 LINE",
"507 0 LINE",
"507 750 LINE",
"425 750 LINE",
"425 472 LINE",
"393 499 OFFCURVE",
"348 515 OFFCURVE",
"290 515 CURVE SMOOTH",
"145 515 OFFCURVE",
"48 416 OFFCURVE",
"48 255 CURVE SMOOTH",
"48 94 OFFCURVE",
"145 -5 OFFCURVE",
"290 -5 CURVE SMOOTH"
);
},
{
closed = 1;
nodes = (
"201 69 OFFCURVE",
"130 119 OFFCURVE",
"130 255 CURVE SMOOTH",
"130 391 OFFCURVE",
"201 441 OFFCURVE",
"278 441 CURVE SMOOTH",
"376 441 OFFCURVE",
"412 389 OFFCURVE",
"425 331 CURVE SMOOTH",
"431 306 OFFCURVE",
"432 280 OFFCURVE",
"432 256 CURVE SMOOTH",
"432 232 OFFCURVE",
"431 206 OFFCURVE",
"425 180 CURVE SMOOTH",
"412 122 OFFCURVE",
"376 69 OFFCURVE",
"278 69 CURVE SMOOTH"
);
}
);
width = 615;
},
{
guideLines = (
{
position = "{0, 59}";
},
{
position = "{0, 256}";
}
);
hints = (
{
place = "{30, 125}";
type = Stem;
},
{
place = "{407, 125}";
type = Stem;
},
{
horizontal = 1;
place = "{-27, 117}";
type = Stem;
},
{
horizontal = 1;
place = "{419, 117}";
type = Stem;
},
{
horizontal = 1;
place = "{772, -20}";
target = down;
type = TopGhost;
}
);
layerId = "2B03D00A-B4C8-4D37-BEFC-80CF5F8B5BB8";
paths = (
{
closed = 1;
nodes = (
"322 -12 OFFCURVE",
"363 2 OFFCURVE",
"395 25 CURVE",
"395 0 LINE",
"512 0 LINE",
"512 731 LINE",
"395 731 LINE",
"395 487 LINE",
"364 508 OFFCURVE",
"324 522 OFFCURVE",
"277 522 CURVE SMOOTH",
"141 522 OFFCURVE",
"47 420 OFFCURVE",
"47 254 CURVE SMOOTH",
"47 90 OFFCURVE",
"141 -12 OFFCURVE",
"272 -12 CURVE SMOOTH"
);
},
{
closed = 1;
nodes = (
"372 413 OFFCURVE",
"402 330 OFFCURVE",
"402 256 CURVE SMOOTH",
"402 239 OFFCURVE",
"400 219 OFFCURVE",
"396 200 CURVE",
"383 148 OFFCURVE",
"353 96 OFFCURVE",
"285 96 CURVE SMOOTH",
"221 96 OFFCURVE",
"164 139 OFFCURVE",
"164 255 CURVE SMOOTH",
"164 371 OFFCURVE",
"221 413 OFFCURVE",
"285 413 CURVE SMOOTH"
);
}
);
width = 620;
},
{
anchors = (
{
name = right;
position = "{567, 750}";
}
);
guideLines = (
{
position = "{0, 59}";
},
{
position = "{0, 256}";
}
);
hints = (
{
place = "{30, 83}";
type = Stem;
},
{
place = "{408, 82}";
type = Stem;
},
{
horizontal = 1;
place = "{-13, 74}";
type = Stem;
},
{
horizontal = 1;
place = "{448, 75}";
type = Stem;
},
{
horizontal = 1;
place = "{750, -20}";
target = down;
type = TopGhost;
}
);
layerId = "C9474598-BCEA-4A64-AEC8-6AD11FF1C3BE";
paths = (
{
closed = 1;
nodes = (
"30 89 OFFCURVE",
"123 -13 OFFCURVE",
"252 -13 CURVE SMOOTH",
"321 -13 OFFCURVE",
"372 13 OFFCURVE",
"408 53 CURVE",
"408 0 LINE",
"490 0 LINE",
"490 750 LINE",
"408 750 LINE",
"408 458 LINE",
"373 498 OFFCURVE",
"323 523 OFFCURVE",
"257 523 CURVE SMOOTH",
"123 523 OFFCURVE",
"30 421 OFFCURVE",
"30 254 CURVE SMOOTH"
);
},
{
closed = 1;
nodes = (
"184 61 OFFCURVE",
"112 113 OFFCURVE",
"112 256 CURVE SMOOTH",
"112 398 OFFCURVE",
"184 449 OFFCURVE",
"265 449 CURVE SMOOTH",
"351 449 OFFCURVE",
"392 392 OFFCURVE",
"408 330 CURVE SMOOTH",
"414 305 OFFCURVE",
"417 280 OFFCURVE",
"417 257 CURVE SMOOTH",
"417 234 OFFCURVE",
"414 208 OFFCURVE",
"408 183 CURVE SMOOTH",
"392 120 OFFCURVE",
"351 61 OFFCURVE",
"265 61 CURVE SMOOTH"
);
}
);
width = 567;
}
);
unicode = 0064;
},
{
color = (153, 254, 255, 255);
glyphname = e;
leftMetricsKey = o;
rightMetricsKey = o;
layers = (
{
layerId = "C26E6862-625E-4D03-9322-DC3496ADAC37";
name = Backup;
paths = (
{
closed = 1;
nodes = (
"48 131 OFFCURVE",
"117 -12 OFFCURVE",
"284 -12 CURVE SMOOTH",
"379 -12 OFFCURVE",
"478 25 OFFCURVE",
"515 125 CURVE",
"435 148 LINE",
"415 81 OFFCURVE",
"341 60 OFFCURVE",
"288 60 CURVE SMOOTH",
"198 60 OFFCURVE",
"131 142 OFFCURVE",
"131 230 CURVE",
"514 230 LINE",
"531 451 OFFCURVE",
"414 523 OFFCURVE",
"288 523 CURVE SMOOTH",
"149 523 OFFCURVE",
"48 444 OFFCURVE",
"48 255 CURVE SMOOTH"
);
},
{
closed = 1;
nodes = (
"132 302 LINE",
"132 398 OFFCURVE",
"205 449 OFFCURVE",
"290 449 CURVE SMOOTH",
"382 449 OFFCURVE",
"435 381 OFFCURVE",
"436 302 CURVE"
);
},
{
closed = 1;
nodes = (
"605 131 OFFCURVE",
"683 -12 OFFCURVE",
"861 -12 CURVE SMOOTH",
"965 -12 OFFCURVE",
"1070 53 OFFCURVE",
"1089 148 CURVE",
"1004 154 LINE",
"990 104 OFFCURVE",
"932 60 OFFCURVE",
"861 60 CURVE SMOOTH",
"766 60 OFFCURVE",
"688 142 OFFCURVE",
"688 230 CURVE",
"1085 230 LINE",
"1102 451 OFFCURVE",
"969 523 OFFCURVE",
"853 523 CURVE SMOOTH",
"725 523 OFFCURVE",
"605 436 OFFCURVE",
"605 255 CURVE SMOOTH"
);
},
{
closed = 1;
nodes = (
"689 302 LINE",
"689 390 OFFCURVE",
"768 449 OFFCURVE",
"852 449 CURVE SMOOTH",
"943 449 OFFCURVE",
"1006 381 OFFCURVE",
"1007 302 CURVE"
);
}
);
width = 537;
},
{
anchors = (
{
name = top;
position = "{292, 597}";
},
{
name = bottom;
position = "{292, -13}";
}
);
guideLines = (
{
angle = 90;
position = "{371, 0}";
},
{
angle = 90;
position = "{556, 0}";
}
);
hints = (
{
place = "{450, 82}";
type = Stem;
},
{
horizontal = 1;
place = "{-13, 74}";
type = Stem;
},
{
horizontal = 1;
place = "{230, 72}";
type = Stem;
},
{
horizontal = 1;
place = "{449, 74}";
type = Stem;
}
);
layerId = "2B03D00A-B4C8-4D37-BEFC-80CF5F8B5BB8";
paths = (
{
closed = 1;
nodes = (
"46 132 OFFCURVE",
"126 -12 OFFCURVE",
"304 -12 CURVE SMOOTH",
"408 -12 OFFCURVE",
"516 64 OFFCURVE",
"538 175 CURVE",
"421 183 LINE",
"408 136 OFFCURVE",
"360 96 OFFCURVE",
"304 96 CURVE SMOOTH",
"243 96 OFFCURVE",
"182 133 OFFCURVE",
"166 212 CURVE",
"533 212 LINE",
"534 224 OFFCURVE",
"535 255 OFFCURVE",
"535 265 CURVE SMOOTH",
"535 458 OFFCURVE",
"406 522 OFFCURVE",
"297 522 CURVE SMOOTH",
"169 522 OFFCURVE",
"46 436 OFFCURVE",
"46 255 CURVE SMOOTH"
);
},
{
closed = 1;
nodes = (
"169 319 LINE",
"188 386 OFFCURVE",
"239 414 OFFCURVE",
"296 414 CURVE SMOOTH",
"360 414 OFFCURVE",
"406 372 OFFCURVE",
"416 319 CURVE"
);
}
);
width = 585;
},
{
anchors = (
{
name = top;
position = "{303, 510}";
},
{
name = bottom;
position = "{310, 0}";
}
);
guideLines = (
{
angle = 90;
position = "{374, 0}";
},
{
angle = 90;
position = "{559, 0}";
}
);
hints = (
{
place = "{53, 82}";
type = Stem;
},
{
place = "{457, 82}";
type = Stem;
},
{
horizontal = 1;
place = "{-13, 74}";
type = Stem;
},
{
horizontal = 1;
place = "{232, 70}";
type = Stem;
},
{
horizontal = 1;
place = "{449, 74}";
type = Stem;
}
);
layerId = "C9474598-BCEA-4A64-AEC8-6AD11FF1C3BE";
paths = (
{
closed = 1;
nodes = (
"111 232 LINE",
"111 302 LINE",
"469 302 LINE",
"457 290 LINE",
"462 374 OFFCURVE",
"398 449 OFFCURVE",
"300 449 CURVE SMOOTH",
"213 449 OFFCURVE",
"135 391 OFFCURVE",
"135 259 CURVE SMOOTH",
"135 119 OFFCURVE",
"222 61 OFFCURVE",
"311 61 CURVE SMOOTH",
"382 61 OFFCURVE",
"436 104 OFFCURVE",
"450 154 CURVE",
"527 122 LINE",
"496 42 OFFCURVE",
"406 -13 OFFCURVE",
"311 -13 CURVE SMOOTH",
"133 -13 OFFCURVE",
"53 131 OFFCURVE",
"53 255 CURVE SMOOTH",
"53 436 OFFCURVE",
"175 523 OFFCURVE",
"303 523 CURVE SMOOTH",
"419 523 OFFCURVE",
"556 453 OFFCURVE",
"539 232 CURVE"
);
}
);
width = 594;
}
);
leftKerningGroup = e;
rightKerningGroup = e1;
unicode = 0065;
},
{
glyphname = f;
leftMetricsKey = "=o-33";
rightMetricsKey = "=o-60";
layers = (
{
layerId = "C26E6862-625E-4D03-9322-DC3496ADAC37";
name = Backup;
width = 409;
},
{
hints = (
{
place = "{72, 125}";
type = Stem;
},
{
place = "{295, 127}";
type = Stem;
},
{
horizontal = 1;
place = "{418, 108}";
type = Stem;
},
{
horizontal = 1;
place = "{553, 200}";
type = Stem;
},
{
horizontal = 1;
place = "{637, 115}";
type = Stem;
},
{
horizontal = 1;
place = "{-22, 64}";
type = Stem;
}
);
layerId = "2B03D00A-B4C8-4D37-BEFC-80CF5F8B5BB8";
paths = (
{
closed = 1;
nodes = (
"87 405 LINE",
"87 0 LINE",
"203 0 LINE",
"203 405 LINE",
"347 405 LINE",
"347 506 LINE",
"182 506 LINE",
"203 485 LINE",
"203 490 LINE SMOOTH",
"203 551 OFFCURVE",
"209 607 OFFCURVE",
"249 607 CURVE SMOOTH",
"270 607 OFFCURVE",
"292 592 OFFCURVE",
"292 531 CURVE",
"410 528 LINE",
"410 664 OFFCURVE",
"329 714 OFFCURVE",
"251 714 CURVE SMOOTH",
"130 714 OFFCURVE",
"91 625 OFFCURVE",
"88 510 CURVE",
"37 510 LINE",
"37 405 LINE"
);
}
);
width = 421;
},
{
hints = (
{
place = "{94, 82}";
type = Stem;
},
{
place = "{317, 84}";
type = Stem;
},
{
horizontal = 1;
place = "{440, 65}";
type = Stem;
},
{
horizontal = 1;
place = "{575, 157}";
type = Stem;
},
{
horizontal = 1;
place = "{659, 72}";
type = Stem;
},
{
horizontal = 1;
place = "{0, 21}";
target = up;
type = BottomGhost;
}
);
layerId = "C9474598-BCEA-4A64-AEC8-6AD11FF1C3BE";
paths = (
{
closed = 1;
nodes = (
"94 510 LINE",
"94 634 OFFCURVE",
"127 731 OFFCURVE",
"250 731 CURVE SMOOTH",
"324 731 OFFCURVE",
"401 689 OFFCURVE",
"401 573 CURVE",
"317 576 LINE",
"317 643 OFFCURVE",
"281 659 OFFCURVE",
"248 659 CURVE SMOOTH",
"187 659 OFFCURVE",
"176 587 OFFCURVE",
"176 510 CURVE"
);
},
{
closed = 1;
nodes = (
"20 440 LINE",
"20 510 LINE",
"94 510 LINE",
"176 505 LINE",
"333 505 LINE",
"333 440 LINE"
);
},
{
closed = 1;
nodes = (
"94 510 LINE",
"176 510 LINE",
"176 0 LINE",
"94 0 LINE"
);
}
);
width = 394;
}
);
unicode = 0066;
},
{
color = (154, 153, 255, 255);
glyphname = g;
leftMetricsKey = "=o-22";
rightMetricsKey = "=n+4";
layers = (
{
layerId = "C26E6862-625E-4D03-9322-DC3496ADAC37";
name = Backup;
width = 615;
},
{
hints = (
{
place = "{30, 125}";
type = Stem;
},
{
place = "{407, 125}";
type = Stem;
},
{
horizontal = 1;
place = "{-274, 115}";
type = Stem;
},
{
horizontal = 1;
place = "{-27, 117}";
type = Stem;
},
{
horizontal = 1;
place = "{419, 117}";
type = Stem;
},
{
horizontal = 1;
place = "{-274, 223}";
type = Stem;
}
);
layerId = "2B03D00A-B4C8-4D37-BEFC-80CF5F8B5BB8";
paths = (
{
closed = 1;
nodes = (
"48 95 OFFCURVE",
"141 -5 OFFCURVE",
"272 -5 CURVE SMOOTH",
"322 -5 OFFCURVE",
"363 9 OFFCURVE",
"395 31 CURVE",
"395 -14 LINE SMOOTH",
"395 -92 OFFCURVE",
"367 -126 OFFCURVE",
"300 -126 CURVE SMOOTH",
"241 -126 OFFCURVE",
"203 -104 OFFCURVE",
"203 -61 CURVE SMOOTH",
"203 -57 OFFCURVE",
"204 -47 OFFCURVE",
"206 -29 CURVE",
"89 -25 LINE",
"86 -45 OFFCURVE",
"85 -57 OFFCURVE",
"85 -66 CURVE SMOOTH",
"85 -151 OFFCURVE",
"159 -233 OFFCURVE",
"292 -233 CURVE SMOOTH",
"428 -233 OFFCURVE",
"512 -175 OFFCURVE",
"512 -14 CURVE SMOOTH",
"512 510 LINE",
"395 510 LINE",
"395 481 LINE",
"364 502 OFFCURVE",
"324 515 OFFCURVE",
"277 515 CURVE SMOOTH",
"141 515 OFFCURVE",
"48 415 OFFCURVE",
"48 255 CURVE SMOOTH"
);
},
{
closed = 1;
nodes = (
"164 366 OFFCURVE",
"221 406 OFFCURVE",
"285 406 CURVE SMOOTH",
"372 406 OFFCURVE",
"402 330 OFFCURVE",
"402 256 CURVE SMOOTH",
"402 182 OFFCURVE",
"372 104 OFFCURVE",
"285 104 CURVE SMOOTH",
"221 104 OFFCURVE",
"164 144 OFFCURVE",
"164 255 CURVE SMOOTH"
);
}
);
width = 620;
},
{
anchors = (
{
name = top;
position = "{257, 510}";
}
);
hints = (
{
place = "{31, 82}";
type = Stem;
},
{
place = "{408, 82}";
type = Stem;
},
{
horizontal = 1;
place = "{-252, 72}";
type = Stem;
},
{
horizontal = 1;
place = "{-5, 74}";
type = Stem;
},
{
horizontal = 1;
place = "{441, 74}";
type = Stem;
},
{
horizontal = 1;
place = "{-252, 180}";
type = Stem;
}
);
layerId = "C9474598-BCEA-4A64-AEC8-6AD11FF1C3BE";
paths = (
{
closed = 1;
nodes = (
"31 94 OFFCURVE",
"123 -5 OFFCURVE",
"252 -5 CURVE SMOOTH",
"321 -5 OFFCURVE",
"372 20 OFFCURVE",
"408 59 CURVE",
"408 -37 LINE SMOOTH",
"408 -137 OFFCURVE",
"370 -180 OFFCURVE",
"282 -180 CURVE SMOOTH",
"200 -180 OFFCURVE",
"148 -145 OFFCURVE",
"156 -74 CURVE",
"72 -71 LINE",
"58 -161 OFFCURVE",
"132 -252 OFFCURVE",
"274 -252 CURVE SMOOTH",
"408 -252 OFFCURVE",
"490 -196 OFFCURVE",
"490 -37 CURVE SMOOTH",
"490 510 LINE",
"408 510 LINE",
"408 453 LINE",
"373 491 OFFCURVE",
"323 515 OFFCURVE",
"257 515 CURVE SMOOTH",
"123 515 OFFCURVE",
"31 416 OFFCURVE",
"31 255 CURVE SMOOTH"
);
},
{
closed = 1;
nodes = (
"186 69 OFFCURVE",
"113 119 OFFCURVE",
"113 255 CURVE SMOOTH",
"113 391 OFFCURVE",
"186 441 OFFCURVE",
"266 441 CURVE SMOOTH",
"354 441 OFFCURVE",
"393 382 OFFCURVE",
"408 319 CURVE SMOOTH",
"413 298 OFFCURVE",
"415 276 OFFCURVE",
"415 256 CURVE SMOOTH",
"415 236 OFFCURVE",
"413 214 OFFCURVE",
"408 192 CURVE SMOOTH",
"393 129 OFFCURVE",
"354 69 OFFCURVE",
"266 69 CURVE SMOOTH"
);
}
);
width = 567;
}
);
unicode = 0067;
},
{
color = (154, 153, 255, 255);
glyphname = h;
leftMetricsKey = n;
rightMetricsKey = n;
layers = (
{
components = (
{
name = n;
alignment = -1;
}
);
layerId = "C26E6862-625E-4D03-9322-DC3496ADAC37";
name = Backup;
paths = (
{
closed = 1;
nodes = (
"50 0 LINE",
"132 0 LINE",
"132 510 LINE",
"50 510 LINE"
);
}
);
width = 182;
},
{
anchors = (
{
name = top;
position = "{295, 806}";
}
);
hints = (
{
place = "{70, 82}";
type = Stem;
},
{
place = "{432, 82}";
type = Stem;
},
{
horizontal = 1;
place = "{448, 71}";
type = Stem;
},
{
horizontal = 1;
place = "{0, 43}";
type = Stem;
},
{
horizontal = 1;
place = "{772, -20}";
target = down;
type = TopGhost;
}
);
layerId = "2B03D00A-B4C8-4D37-BEFC-80CF5F8B5BB8";
paths = (
{
closed = 1;
nodes = (
"186 0 LINE",
"186 284 LINE SMOOTH",
"186 348 OFFCURVE",
"243 413 OFFCURVE",
"306 413 CURVE SMOOTH",
"384 413 OFFCURVE",
"404 341 OFFCURVE",
"404 268 CURVE SMOOTH",
"404 0 LINE",
"520 0 LINE",
"520 284 LINE SMOOTH",
"520 409 OFFCURVE",
"474 519 OFFCURVE",
"317 519 CURVE SMOOTH",
"262 519 OFFCURVE",
"218 503 OFFCURVE",
"186 477 CURVE",
"186 731 LINE",
"70 731 LINE",
"70 0 LINE"
);
}
);
width = 628;
},
{
anchors = (
{
name = top;
position = "{308, 730}";
}
);
components = (
{
name = n;
alignment = -1;
}
);
hints = (
{
place = "{90, 82}";
type = Stem;
},
{
place = "{452, 82}";
type = Stem;
},
{
horizontal = 1;
place = "{448, 71}";
type = Stem;
},
{
horizontal = 1;
place = "{0, 21}";
target = up;
type = BottomGhost;
},
{
horizontal = 1;
place = "{750, -20}";
target = down;
type = TopGhost;
},
{
place = "{81, 82}";
type = Stem;
},
{
place = "{443, 82}";
type = Stem;
}
);
layerId = "C9474598-BCEA-4A64-AEC8-6AD11FF1C3BE";
paths = (
{
closed = 1;
nodes = (
"85 240 LINE",
"167 240 LINE",
"167 750 LINE",
"85 750 LINE"
);
}
);
width = 598;
}
);
leftKerningGroup = h;
unicode = 0068;
},
{
glyphname = i;
leftMetricsKey = "=lsb("n")";
rightMetricsKey = "=lsb("n")";
layers = (
{
anchors = (
{
name = top;
position = "{91, 790}";
}
);
layerId = "C26E6862-625E-4D03-9322-DC3496ADAC37";
name = Backup;
paths = (
{
closed = 1;
nodes = (
"29 619 OFFCURVE",
"57 591 OFFCURVE",
"91 591 CURVE SMOOTH",
"125 591 OFFCURVE",
"153 619 OFFCURVE",
"153 653 CURVE SMOOTH",
"153 687 OFFCURVE",
"125 715 OFFCURVE",
"91 715 CURVE SMOOTH",
"57 715 OFFCURVE",
"29 687 OFFCURVE",
"29 653 CURVE SMOOTH"
);
}
);
width = 182;
},
{
anchors = (
{
name = top;
position = "{115, 510}";
}
);
hints = (
{
place = "{55, 110}";
type = Stem;
},
{
place = "{52, 125}";
type = Stem;
},
{
horizontal = 1;
place = "{591, 120}";
type = Stem;
},
{
horizontal = 1;
place = "{-22, 64}";
type = Stem;
}
);
layerId = "2B03D00A-B4C8-4D37-BEFC-80CF5F8B5BB8";
paths = (
{
closed = 1;
nodes = (
"68 0 LINE",
"184 0 LINE",
"184 510 LINE",
"68 510 LINE"
);
},
{
closed = 1;
nodes = (
"55 544 LINE",
"197 544 LINE",
"197 696 LINE",
"55 696 LINE"
);
}
);
width = 252;
},
{
anchors = (
{
name = top;
position = "{122, 510}";
}
);
components = (
{
name = dotaccent;
transform = "{1, 0, 0, 1, 12, 0}";
alignment = -1;
}
);
hints = (
{
place = "{67, 110}";
type = Stem;
},
{
place = "{81, 82}";
type = Stem;
},
{
horizontal = 1;
place = "{591, 120}";
type = Stem;
},
{
horizontal = 1;
place = "{0, 21}";
target = up;
type = BottomGhost;
},
{
horizontal = 1;
place = "{591, 21}";
target = up;
type = BottomGhost;
},
{
horizontal = 1;
place = "{711, -20}";
target = down;
type = TopGhost;
}
);
layerId = "C9474598-BCEA-4A64-AEC8-6AD11FF1C3BE";
paths = (
{
closed = 1;
nodes = (
"81 0 LINE",
"163 0 LINE",
"163 510 LINE",
"81 510 LINE"
);
}
);
width = 244;
}
);
leftKerningGroup = i;
rightKerningGroup = i1;
unicode = 0069;
},
{
color = (154, 153, 255, 255);
glyphname = j;
leftMetricsKey = "=-n";
rightMetricsKey = "=n-2";
layers = (
{
layerId = "C26E6862-625E-4D03-9322-DC3496ADAC37";
name = Backup;
paths = (
{
closed = 1;
nodes = (
"29 619 OFFCURVE",
"57 591 OFFCURVE",
"91 591 CURVE SMOOTH",
"125 591 OFFCURVE",
"153 619 OFFCURVE",
"153 653 CURVE SMOOTH",
"153 687 OFFCURVE",
"125 715 OFFCURVE",
"91 715 CURVE SMOOTH",
"57 715 OFFCURVE",
"29 687 OFFCURVE",
"29 653 CURVE SMOOTH"
);
}
);
width = 182;
},
{
anchors = (
{
name = top;
position = "{17, 771}";
}
);
hints = (
{
place = "{-132, 84}";
type = Stem;
},
{
place = "{4, 153}";
type = Stem;
},
{
place = "{18, 125}";
type = Stem;
},
{
horizontal = 1;
place = "{-190, 72}";
type = Stem;
},
{
horizontal = 1;
place = "{569, 163}";
type = Stem;
},
{
horizontal = 1;
place = "{-190, 159}";
type = Stem;
}
);
layerId = "2B03D00A-B4C8-4D37-BEFC-80CF5F8B5BB8";
paths = (
{
closed = 1;
nodes = (
"-132 -7 LINE",
"-132 -115 OFFCURVE",
"-62 -175 OFFCURVE",
"8 -175 CURVE SMOOTH",
"122 -175 OFFCURVE",
"152 -107 OFFCURVE",
"152 20 CURVE SMOOTH",
"152 510 LINE",
"36 510 LINE",
"36 20 LINE SMOOTH",
"36 -38 OFFCURVE",
"32 -68 OFFCURVE",
"10 -68 CURVE SMOOTH",
"-2 -68 OFFCURVE",
"-14 -56 OFFCURVE",
"-14 -10 CURVE"
);
},
{
closed = 1;
nodes = (
"23 544 LINE",
"165 544 LINE",
"165 696 LINE",
"23 696 LINE"
);
}
);
width = 253;
},
{
layerId = "C9474598-BCEA-4A64-AEC8-6AD11FF1C3BE";
paths = (
{
closed = 1;
nodes = (
"100 0 LINE",
"182 0 LINE",
"182 510 LINE",
"100 510 LINE"
);
},
{
closed = 1;
nodes = (
"182 0 LINE",
"182 -137 OFFCURVE",
"154 -203 OFFCURVE",
"48 -203 CURVE SMOOTH",
"-17 -203 OFFCURVE",
"-82 -154 OFFCURVE",
"-82 -64 CURVE",
"2 -67 LINE",
"2 -118 OFFCURVE",
"26 -131 OFFCURVE",
"50 -131 CURVE SMOOTH",
"93 -131 OFFCURVE",
"100 -90 OFFCURVE",
"100 0 CURVE"
);
},
{
closed = 1;
nodes = (
"84 591 LINE",
"194 591 LINE",
"194 711 LINE",
"84 711 LINE"
);
}
);
width = 253;
}
);
unicode = 006A;
},
{
color = (153, 255, 154, 255);
glyphname = k;
leftMetricsKey = n;
rightMetricsKey = "=o-34";
layers = (
{
layerId = "C26E6862-625E-4D03-9322-DC3496ADAC37";
name = Backup;
width = 565;
},
{
hints = (
{
place = "{108, 82}";
type = Stem;
},
{
horizontal = 1;
place = "{0, 43}";
type = Stem;
},
{
horizontal = 1;
place = "{750, -20}";
target = down;
type = TopGhost;
}
);
layerId = "2B03D00A-B4C8-4D37-BEFC-80CF5F8B5BB8";
paths = (
{
closed = 1;
nodes = (
"108 731 LINE",
"108 0 LINE",
"224 0 LINE",
"224 167 LINE",
"258 202 LINE",
"412 0 LINE",
"556 0 LINE",
"335 288 LINE",
"538 510 LINE",
"387 510 LINE",
"224 332 LINE",
"224 731 LINE"
);
}
);
width = 593;
},
{
hints = (
{
place = "{81, 82}";
type = Stem;
},
{
horizontal = 1;
place = "{0, 21}";
target = up;
type = BottomGhost;
},
{
horizontal = 1;
place = "{750, -20}";
target = down;
type = TopGhost;
}
);
layerId = "C9474598-BCEA-4A64-AEC8-6AD11FF1C3BE";
paths = (
{
closed = 1;
nodes = (
"81 0 LINE",
"81 750 LINE",
"163 750 LINE",
"163 0 LINE"
);
},
{
closed = 1;
nodes = (
"87 200 LINE",
"372 510 LINE",
"476 510 LINE",
"161 165 LINE"
);
},
{
closed = 1;
nodes = (
"400 0 LINE",
"196 267 LINE",
"277 293 LINE",
"501 0 LINE"
);
}
);
width = 520;
}
);
leftKerningGroup = h;
unicode = 006B;
},
{
glyphname = l;
leftMetricsKey = n;
layers = (
{
layerId = "C26E6862-625E-4D03-9322-DC3496ADAC37";
name = Backup;
paths = (
{
closed = 1;
nodes = (
"50 0 LINE",
"132 0 LINE",
"132 510 LINE",
"50 510 LINE"
);
},
{
closed = 1;
nodes = (
"-132 13 LINE",
"-132 -124 OFFCURVE",
"-104 -190 OFFCURVE",
"2 -190 CURVE SMOOTH",
"67 -190 OFFCURVE",
"132 -141 OFFCURVE",
"132 -51 CURVE",
"48 -54 LINE",
"48 -105 OFFCURVE",
"24 -118 OFFCURVE",
"0 -118 CURVE SMOOTH",
"-43 -118 OFFCURVE",
"-50 -77 OFFCURVE",
"-50 13 CURVE"
);
}
);
width = 182;
},
{
hints = (
{
place = "{108, 82}";
type = Stem;
},
{
horizontal = 1;
place = "{0, 43}";
type = Stem;
},
{
horizontal = 1;
place = "{750, -20}";
target = down;
type = TopGhost;
}
);
layerId = "2B03D00A-B4C8-4D37-BEFC-80CF5F8B5BB8";
paths = (
{
closed = 1;
nodes = (
"108 0 LINE",
"224 0 LINE",
"224 731 LINE",
"108 731 LINE"
);
},
{
closed = 1;
nodes = (
"50 0 LINE",
"132 0 LINE",
"132 510 LINE",
"50 510 LINE"
);
},
{
closed = 1;
nodes = (
"-132 13 LINE",
"-132 -124 OFFCURVE",
"-104 -190 OFFCURVE",
"2 -190 CURVE SMOOTH",
"67 -190 OFFCURVE",
"132 -141 OFFCURVE",
"132 -51 CURVE",
"48 -54 LINE",
"48 -105 OFFCURVE",
"24 -118 OFFCURVE",
"0 -118 CURVE SMOOTH",
"-43 -118 OFFCURVE",
"-50 -77 OFFCURVE",
"-50 13 CURVE"
);
}
);
width = 332;
},
{
anchors = (
{
name = right;
position = "{240, 750}";
},
{
name = top;
position = "{122, 750}";
}
);
hints = (
{
place = "{82, 82}";
type = Stem;
},
{
horizontal = 1;
place = "{0, 21}";
target = up;
type = BottomGhost;
},
{
horizontal = 1;
place = "{750, -20}";
target = down;
type = TopGhost;
}
);
layerId = "C9474598-BCEA-4A64-AEC8-6AD11FF1C3BE";
paths = (
{
closed = 1;
nodes = (
"81 189 LINE",
"163 189 LINE",
"163 750. LINE",
"81 750. LINE"
);
},
{
closed = 1;
nodes = (
"81 190.394 LINE",
"81 53.394 OFFCURVE",
"109 -12.606 OFFCURVE",
"215 -12.606 CURVE SMOOTH",
"280 -12.606 OFFCURVE",
"345 36.394 OFFCURVE",
"345 126.394 CURVE",
"261 123.394 LINE",
"261 72.394 OFFCURVE",
"237 59.394 OFFCURVE",
"213 59.394 CURVE SMOOTH",
"170 59.394 OFFCURVE",
"163 100.394 OFFCURVE",
"163 190.394 CURVE"
);
}
);
width = 345;
}
);
leftKerningGroup = h;
unicode = 006C;
},
{
glyphname = m;
leftMetricsKey = n;
rightMetricsKey = n;
layers = (
{
components = (
{
name = n;
alignment = -1;
}
);
layerId = "C26E6862-625E-4D03-9322-DC3496ADAC37";
name = Backup;
paths = (
{
closed = 1;
nodes = (
"50 0 LINE",
"132 0 LINE",
"132 510 LINE",
"50 510 LINE"
);
}
);
width = 182;
},
{
guideLines = (
{
position = "{0, 429}";
}
);
hints = (
{
place = "{54, 125}";
type = Stem;
},
{
place = "{370, 82}";
type = Stem;
},
{
place = "{670, 82}";
type = Stem;
},
{
horizontal = 1;
place = "{448, 71}";
type = Stem;
},
{
horizontal = 1;
place = "{-22, 64}";
type = Stem;
}
);
layerId = "2B03D00A-B4C8-4D37-BEFC-80CF5F8B5BB8";
paths = (
{
closed = 1;
nodes = (
"70 510 LINE",
"70 0 LINE",
"186 0 LINE",
"186 284 LINE SMOOTH",
"186 348 OFFCURVE",
"230 413 OFFCURVE",
"281 413 CURVE SMOOTH",
"333 413 OFFCURVE",
"347 341 OFFCURVE",
"347 268 CURVE SMOOTH",
"347 0 LINE",
"463 0 LINE",
"463 284 LINE SMOOTH",
"463 348 OFFCURVE",
"506 413 OFFCURVE",
"558 413 CURVE SMOOTH",
"609 413 OFFCURVE",
"623 341 OFFCURVE",
"623 268 CURVE SMOOTH",
"623 0 LINE",
"739 0 LINE",
"739 284 LINE SMOOTH",
"739 409 OFFCURVE",
"700 519 OFFCURVE",
"561 519 CURVE SMOOTH",
"506 519 OFFCURVE",
"468 501 OFFCURVE",
"426 454 CURVE",
"402 493 OFFCURVE",
"361 519 OFFCURVE",
"301 519 CURVE SMOOTH",
"258 519 OFFCURVE",
"218 506 OFFCURVE",
"186 475 CURVE",
"186 510 LINE"
);
}
);
width = 765;
},
{
guideLines = (
{
position = "{0, 429}";
}
);
hints = (
{
place = "{81, 82}";
type = Stem;
},
{
place = "{381, 82}";
type = Stem;
},
{
place = "{681, 82}";
type = Stem;
},
{
horizontal = 1;
place = "{448, 71}";
type = Stem;
},
{
horizontal = 1;
place = "{0, 21}";
target = up;
type = BottomGhost;
}
);
layerId = "C9474598-BCEA-4A64-AEC8-6AD11FF1C3BE";
paths = (
{
closed = 1;
nodes = (
"81 0 LINE",
"163 0 LINE",
"163 510 LINE",
"81 510 LINE"
);
},
{
closed = 1;
nodes = (
"381 0 LINE",
"463 0 LINE",
"463 286 LINE SMOOTH",
"463 410 OFFCURVE",
"435 519 OFFCURVE",
"309 519 CURVE SMOOTH",
"250 519 OFFCURVE",
"198 495 OFFCURVE",
"163 429 CURVE",
"142 433 LINE",
"163 286 LINE",
"163 367 OFFCURVE",
"220 448 OFFCURVE",
"288 448 CURVE SMOOTH",
"361 448 OFFCURVE",
"381 359 OFFCURVE",
"381 269 CURVE SMOOTH"
);
},
{
closed = 1;
nodes = (
"681 0 LINE",
"763 0 LINE",
"763 286 LINE SMOOTH",
"763 410 OFFCURVE",
"725 519 OFFCURVE",
"592 519 CURVE SMOOTH",
"530 519 OFFCURVE",
"490 495 OFFCURVE",
"439 429 CURVE",
"409 433 LINE",
"463 286 LINE",
"463 367 OFFCURVE",
"520 448 OFFCURVE",
"588 448 CURVE SMOOTH",
"661 448 OFFCURVE",
"681 359 OFFCURVE",
"681 269 CURVE SMOOTH"
);
}
);
width = 836;
}
);
leftKerningGroup = i;
unicode = 006D;
},
{
color = (153, 254, 255, 255);
glyphname = n;
leftMetricsKey = "=lsb("H")*0.8";
rightMetricsKey = "=lsb("n")*0.9";
layers = (
{
layerId = "C26E6862-625E-4D03-9322-DC3496ADAC37";
name = Backup;
paths = (
{
closed = 1;
nodes = (
"50 0 LINE",
"132 0 LINE",
"132 510 LINE",
"50 510 LINE"
);
}
);
width = 182;
},
{
guideLines = (
{
position = "{0, 429}";
}
);
hints = (
{
place = "{54, 125}";
type = Stem;
},
{
place = "{416, 125}";
type = Stem;
},
{
horizontal = 1;
place = "{426, 114}";
type = Stem;
},
{
horizontal = 1;
place = "{-22, 64}";
type = Stem;
}
);
layerId = "2B03D00A-B4C8-4D37-BEFC-80CF5F8B5BB8";
paths = (
{
closed = 1;
nodes = (
"186 0 LINE",
"186 284 LINE SMOOTH",
"186 348 OFFCURVE",
"243 413 OFFCURVE",
"306 413 CURVE SMOOTH",
"384 413 OFFCURVE",
"404 341 OFFCURVE",
"404 268 CURVE SMOOTH",
"404 0 LINE",
"520 0 LINE",
"520 284 LINE SMOOTH",
"520 409 OFFCURVE",
"474 519 OFFCURVE",
"317 519 CURVE SMOOTH",
"262 519 OFFCURVE",
"217 503 OFFCURVE",
"186 477 CURVE",
"186 510 LINE",
"70 510 LINE",
"70 0 LINE"
);
}
);
width = 612;
},
{
guideLines = (
{
position = "{0, 429}";
}
);
hints = (
{
place = "{81, 82}";
type = Stem;
},
{
place = "{443, 82}";
type = Stem;
},
{
horizontal = 1;
place = "{448, 71}";
type = Stem;
},
{
horizontal = 1;
place = "{0, 21}";
target = up;
type = BottomGhost;
}
);
layerId = "C9474598-BCEA-4A64-AEC8-6AD11FF1C3BE";
paths = (
{
closed = 1;
nodes = (
"114 286 LINE",
"163 286 LINE",
"163 367 OFFCURVE",
"236 448 OFFCURVE",
"324 448 CURVE SMOOTH",
"419 448 OFFCURVE",
"443 367 OFFCURVE",
"443 269 CURVE",
"443 0 LINE",
"525 0 LINE",
"525 286 LINE SMOOTH",
"525 410 OFFCURVE",
"480 519 OFFCURVE",
"327 519 CURVE SMOOTH",
"238 519 OFFCURVE",
"184 482 OFFCURVE",
"154 419 CURVE",
"171 428 LINE",
"114 433 LINE"
);
},
{
closed = 1;
nodes = (
"81 0 LINE",
"163 0 LINE",
"163 510 LINE",
"81 510 LINE"
);
}
);
width = 598;
}
);
leftKerningGroup = i;
rightKerningGroup = n;
unicode = 006E;
},
{
color = (153, 254, 255, 255);
glyphname = o;
leftMetricsKey = "=lsb("O")*0.7";
rightMetricsKey = "=lsb("o")";
layers = (
{
layerId = "C26E6862-625E-4D03-9322-DC3496ADAC37";
name = Backup;
width = 600;
},
{
anchors = (
{
name = top;
position = "{304, 510}";
}
);
hints = (
{
place = "{46, 82}";
type = Stem;
},
{
place = "{472, 82}";
type = Stem;
},
{
horizontal = 1;
place = "{-13, 74}";
type = Stem;
},
{
horizontal = 1;
place = "{449, 74}";
type = Stem;
}
);
layerId = "2B03D00A-B4C8-4D37-BEFC-80CF5F8B5BB8";
paths = (
{
closed = 1;
nodes = (
"149 522 OFFCURVE",
"46 415 OFFCURVE",
"46 255 CURVE SMOOTH",
"46 94 OFFCURVE",
"149 -12 OFFCURVE",
"300 -12 CURVE SMOOTH",
"451 -12 OFFCURVE",
"555 96 OFFCURVE",
"555 255 CURVE SMOOTH",
"555 415 OFFCURVE",
"451 522 OFFCURVE",
"300 522 CURVE SMOOTH"
);
},
{
closed = 1;
nodes = (
"228 96 OFFCURVE",
"162 143 OFFCURVE",
"162 255 CURVE SMOOTH",
"162 367 OFFCURVE",
"228 414 OFFCURVE",
"300 414 CURVE SMOOTH",
"372 414 OFFCURVE",
"439 367 OFFCURVE",
"439 255 CURVE SMOOTH",
"439 144 OFFCURVE",
"372 96 OFFCURVE",
"300 96 CURVE SMOOTH"
);
}
);
width = 601;
},
{
anchors = (
{
name = top;
position = "{307, 510}";
}
);
hints = (
{
place = "{53, 82}";
type = Stem;
},
{
place = "{479, 82}";
type = Stem;
},
{
horizontal = 1;
place = "{-13, 74}";
type = Stem;
},
{
horizontal = 1;
place = "{449, 74}";
type = Stem;
}
);
layerId = "C9474598-BCEA-4A64-AEC8-6AD11FF1C3BE";
paths = (
{
closed = 1;
nodes = (
"396 61 OFFCURVE",
"479 120 OFFCURVE",
"479 255 CURVE SMOOTH",
"479 391 OFFCURVE",
"396 449 OFFCURVE",
"307 449 CURVE SMOOTH",
"218 449 OFFCURVE",
"135 391 OFFCURVE",
"135 255 CURVE SMOOTH",
"135 119 OFFCURVE",
"218 61 OFFCURVE",
"307 61 CURVE SMOOTH"
);
},
{
closed = 1;
nodes = (
"156 -13 OFFCURVE",
"53 93 OFFCURVE",
"53 255 CURVE SMOOTH",
"53 416 OFFCURVE",
"156 523 OFFCURVE",
"307 523 CURVE SMOOTH",
"458 523 OFFCURVE",
"561 416 OFFCURVE",
"561 255 CURVE SMOOTH",
"561 95 OFFCURVE",
"458 -13 OFFCURVE",
"307 -13 CURVE SMOOTH"
);
}
);
width = 614;
}
);
leftKerningGroup = e;
rightKerningGroup = o;
unicode = 006F;
},
{
glyphname = p;
leftMetricsKey = "=B-14";
rightMetricsKey = "=o-27";
layers = (
{
layerId = "C26E6862-625E-4D03-9322-DC3496ADAC37";
name = Backup;
paths = (
{
closed = 1;
nodes = (
"207 750 OFFCURVE",
"162 734 OFFCURVE",
"130 707 CURVE",
"130 745 LINE",
"48 745 LINE",
"48 -5 LINE",
"130 -5 LINE",
"130 273 LINE",
"162 246 OFFCURVE",
"207 230 OFFCURVE",
"265 230 CURVE SMOOTH",
"410 230 OFFCURVE",
"507 329 OFFCURVE",
"507 490 CURVE SMOOTH",
"507 651 OFFCURVE",
"410 750 OFFCURVE",
"265 750 CURVE SMOOTH"
);
},
{
closed = 1;
nodes = (
"354 676 OFFCURVE",
"425 626 OFFCURVE",
"425 490 CURVE SMOOTH",
"425 354 OFFCURVE",
"354 304 OFFCURVE",
"277 304 CURVE SMOOTH",
"179 304 OFFCURVE",
"143 356 OFFCURVE",
"130 414 CURVE SMOOTH",
"124 439 OFFCURVE",
"123 465 OFFCURVE",
"123 489 CURVE SMOOTH",
"123 513 OFFCURVE",
"124 539 OFFCURVE",
"130 565 CURVE SMOOTH",
"143 623 OFFCURVE",
"179 676 OFFCURVE",
"277 676 CURVE SMOOTH"
);
}
);
width = 615;
},
{
layerId = "2B03D00A-B4C8-4D37-BEFC-80CF5F8B5BB8";
paths = (
{
closed = 1;
nodes = (
"108 -222 LINE",
"224 -222 LINE",
"224 22 LINE",
"256 1 OFFCURVE",
"296 -13 OFFCURVE",
"343 -13 CURVE SMOOTH",
"479 -13 OFFCURVE",
"573 89 OFFCURVE",
"573 255 CURVE SMOOTH",
"573 419 OFFCURVE",
"479 521 OFFCURVE",
"348 521 CURVE SMOOTH",
"298 521 OFFCURVE",
"257 508 OFFCURVE",
"224 484 CURVE",
"224 509 LINE",
"108 509 LINE"
);
},
{
closed = 1;
nodes = (
"218 270 OFFCURVE",
"220 290 OFFCURVE",
"223 309 CURVE",
"236 361 OFFCURVE",
"267 413 OFFCURVE",
"335 413 CURVE SMOOTH",
"399 413 OFFCURVE",
"456 370 OFFCURVE",
"456 254 CURVE SMOOTH",
"456 138 OFFCURVE",
"399 96 OFFCURVE",
"335 96 CURVE SMOOTH",
"247 96 OFFCURVE",
"218 179 OFFCURVE",
"218 253 CURVE SMOOTH"
);
}
);
width = 620;
},
{
anchors = (
{
name = right;
position = "{-11, -241}";
}
);
hints = (
{
place = "{443, 83}";
type = Stem;
},
{
place = "{66, 82}";
type = Stem;
},
{
horizontal = 1;
place = "{448, 74}";
type = Stem;
},
{
horizontal = 1;
place = "{-14, 75}";
type = Stem;
},
{
horizontal = 1;
place = "{-241, -20}";
target = down;
type = TopGhost;
}
);
layerId = "C9474598-BCEA-4A64-AEC8-6AD11FF1C3BE";
paths = (
{
closed = 1;
nodes = (
"526 420.405 OFFCURVE",
"433 522.405 OFFCURVE",
"304 522.405 CURVE SMOOTH",
"235 522.405 OFFCURVE",
"184 496.405 OFFCURVE",
"148 456.405 CURVE",
"148 509.405 LINE",
"66 509.405 LINE",
"66 -240.595 LINE",
"148 -240.595 LINE",
"148 51.405 LINE",
"183 11.405 OFFCURVE",
"233 -13.595 OFFCURVE",
"299 -13.595 CURVE SMOOTH",
"433 -13.595 OFFCURVE",
"526 88.405 OFFCURVE",
"526 255.405 CURVE SMOOTH"
);
},
{
closed = 1;
nodes = (
"372 448.405 OFFCURVE",
"444 396.405 OFFCURVE",
"444 253.405 CURVE SMOOTH",
"444 111.405 OFFCURVE",
"372 60.405 OFFCURVE",
"291 60.405 CURVE SMOOTH",
"205 60.405 OFFCURVE",
"164 117.405 OFFCURVE",
"148 179.405 CURVE SMOOTH",
"142 204.405 OFFCURVE",
"139 229.405 OFFCURVE",
"139 252.405 CURVE SMOOTH",
"139 275.405 OFFCURVE",
"142 301.405 OFFCURVE",
"148 326.405 CURVE SMOOTH",
"164 389.405 OFFCURVE",
"205 448.405 OFFCURVE",
"291 448.405 CURVE SMOOTH"
);
}
);
width = 552;
}
);
leftKerningGroup = B;
unicode = 0070;
},
{
glyphname = q;
leftMetricsKey = "=o-23";
rightMetricsKey = "=n+4";
layers = (
{
layerId = "C26E6862-625E-4D03-9322-DC3496ADAC37";
name = Backup;
paths = (
{
closed = 1;
nodes = (
"348 750 OFFCURVE",
"393 734 OFFCURVE",
"425 707 CURVE",
"425 745 LINE",
"507 745 LINE",
"507 -5 LINE",
"425 -5 LINE",
"425 273 LINE",
"393 246 OFFCURVE",
"348 230 OFFCURVE",
"290 230 CURVE SMOOTH",
"145 230 OFFCURVE",
"48 329 OFFCURVE",
"48 490 CURVE SMOOTH",
"48 651 OFFCURVE",
"145 750 OFFCURVE",
"290 750 CURVE SMOOTH"
);
},
{
closed = 1;
nodes = (
"201 676 OFFCURVE",
"130 626 OFFCURVE",
"130 490 CURVE SMOOTH",
"130 354 OFFCURVE",
"201 304 OFFCURVE",
"278 304 CURVE SMOOTH",
"376 304 OFFCURVE",
"412 356 OFFCURVE",
"425 414 CURVE SMOOTH",
"431 439 OFFCURVE",
"432 465 OFFCURVE",
"432 489 CURVE SMOOTH",
"432 513 OFFCURVE",
"431 539 OFFCURVE",
"425 565 CURVE SMOOTH",
"412 623 OFFCURVE",
"376 676 OFFCURVE",
"278 676 CURVE SMOOTH"
);
}
);
width = 615;
},
{
layerId = "2B03D00A-B4C8-4D37-BEFC-80CF5F8B5BB8";
paths = (
{
closed = 1;
nodes = (
"141 521 OFFCURVE",
"47 419 OFFCURVE",
"47 255 CURVE SMOOTH",
"47 89 OFFCURVE",
"141 -13 OFFCURVE",
"277 -13 CURVE SMOOTH",
"324 -13 OFFCURVE",
"364 1 OFFCURVE",
"395 22 CURVE",
"395 -222 LINE",
"512 -222 LINE",
"512 509 LINE",
"395 509 LINE",
"395 484 LINE",
"363 508 OFFCURVE",
"322 521 OFFCURVE",
"272 521 CURVE SMOOTH"
);
},
{
closed = 1;
nodes = (
"221 96 OFFCURVE",
"164 138 OFFCURVE",
"164 254 CURVE SMOOTH",
"164 370 OFFCURVE",
"221 413 OFFCURVE",
"285 413 CURVE SMOOTH",
"353 413 OFFCURVE",
"383 361 OFFCURVE",
"396 309 CURVE",
"400 290 OFFCURVE",
"402 270 OFFCURVE",
"402 253 CURVE SMOOTH",
"402 179 OFFCURVE",
"372 96 OFFCURVE",
"285 96 CURVE SMOOTH"
);
}
);
width = 620;
},
{
anchors = (
{
name = right;
position = "{567, -241}";
}
);
hints = (
{
place = "{30, 83}";
type = Stem;
},
{
place = "{408, 82}";
type = Stem;
},
{
horizontal = 1;
place = "{448, 74}";
type = Stem;
},
{
horizontal = 1;
place = "{-14, 75}";
type = Stem;
},
{
horizontal = 1;
place = "{-241, -20}";
target = down;
type = TopGhost;
}
);
layerId = "C9474598-BCEA-4A64-AEC8-6AD11FF1C3BE";
paths = (
{
closed = 1;
nodes = (
"30 420.405 OFFCURVE",
"123 522.405 OFFCURVE",
"252 522.405 CURVE SMOOTH",
"321 522.405 OFFCURVE",
"372 496.405 OFFCURVE",
"408 456.405 CURVE",
"408 509.405 LINE",
"490 509.405 LINE",
"490 -240.595 LINE",
"408 -240.595 LINE",
"408 51.405 LINE",
"373 11.405 OFFCURVE",
"323 -13.595 OFFCURVE",
"257 -13.595 CURVE SMOOTH",
"123 -13.595 OFFCURVE",
"30 88.405 OFFCURVE",
"30 255.405 CURVE SMOOTH"
);
},
{
closed = 1;
nodes = (
"184 448.405 OFFCURVE",
"112 396.405 OFFCURVE",
"112 253.405 CURVE SMOOTH",
"112 111.405 OFFCURVE",
"184 60.405 OFFCURVE",
"265 60.405 CURVE SMOOTH",
"351 60.405 OFFCURVE",
"392 117.405 OFFCURVE",
"408 179.405 CURVE SMOOTH",
"414 204.405 OFFCURVE",
"417 229.405 OFFCURVE",
"417 252.405 CURVE SMOOTH",
"417 275.405 OFFCURVE",
"414 301.405 OFFCURVE",
"408 326.405 CURVE SMOOTH",
"392 389.405 OFFCURVE",
"351 448.405 OFFCURVE",
"265 448.405 CURVE SMOOTH"
);
}
);
width = 567;
}
);
rightKerningGroup = H;
unicode = 0071;
},
{
color = (153, 255, 154, 255);
glyphname = r;
leftMetricsKey = "=n-7";
rightMetricsKey = "=o-27";
layers = (
{
layerId = "C26E6862-625E-4D03-9322-DC3496ADAC37";
name = Backup;
paths = (
{
closed = 1;
nodes = (
"354 519 LINE",
"270 519 OFFCURVE",
"221 482 OFFCURVE",
"190 425 CURVE",
"141 433 LINE",
"190 286 LINE",
"190 369 OFFCURVE",
"279 438 OFFCURVE",
"359 435 CURVE"
);
},
{
closed = 1;
nodes = (
"650 124 LINE",
"650 201 OFFCURVE",
"657 242 OFFCURVE",
"700 242 CURVE SMOOTH",
"724 242 OFFCURVE",
"748 229 OFFCURVE",
"748 178 CURVE",
"832 175 LINE",
"832 265 OFFCURVE",
"767 314 OFFCURVE",
"702 314 CURVE SMOOTH",
"596 314 OFFCURVE",
"568 248 OFFCURVE",
"568 124 CURVE"
);
},
{
closed = 1;
nodes = (
"108 0 LINE",
"190 0 LINE",
"190 510 LINE",
"108 510 LINE"
);
}
);
width = 387;
},
{
hints = (
{
place = "{95, 125}";
type = Stem;
},
{
place = "{356, 84}";
type = Stem;
},
{
horizontal = 1;
place = "{361, 159}";
type = Stem;
},
{
horizontal = 1;
place = "{448, 72}";
type = Stem;
},
{
horizontal = 1;
place = "{-22, 64}";
type = Stem;
}
);
layerId = "2B03D00A-B4C8-4D37-BEFC-80CF5F8B5BB8";
paths = (
{
closed = 1;
nodes = (
"108 510 LINE",
"108 0 LINE",
"224 0 LINE",
"224 284 LINE SMOOTH",
"224 350 OFFCURVE",
"254 413 OFFCURVE",
"313 413 CURVE SMOOTH",
"325 413 OFFCURVE",
"337 401 OFFCURVE",
"337 355 CURVE",
"455 351 LINE",
"455 460 OFFCURVE",
"400 519 OFFCURVE",
"324 519 CURVE SMOOTH",
"283 519 OFFCURVE",
"251 510 OFFCURVE",
"224 486 CURVE",
"224 510 LINE"
);
}
);
width = 499;
},
{
hints = (
{
place = "{74, 82}";
type = Stem;
},
{
place = "{322, 93}";
type = Stem;
},
{
horizontal = 1;
place = "{386, 138}";
type = Stem;
},
{
horizontal = 1;
place = "{451, 72}";
type = Stem;
},
{
horizontal = 1;
place = "{0, 21}";
target = up;
type = BottomGhost;
}
);
layerId = "C9474598-BCEA-4A64-AEC8-6AD11FF1C3BE";
paths = (
{
closed = 1;
nodes = (
"74 0 LINE",
"156 0 LINE",
"156 510 LINE",
"74 510 LINE"
);
},
{
closed = 1;
nodes = (
"107 289 LINE",
"156 289 LINE",
"156 372 OFFCURVE",
"196 451 OFFCURVE",
"263 451 CURVE SMOOTH",
"298 451 OFFCURVE",
"322 430 OFFCURVE",
"322 387 CURVE",
"415 379 LINE",
"415 472 OFFCURVE",
"364 523 OFFCURVE",
"281 523 CURVE SMOOTH",
"199 523 OFFCURVE",
"134 473 OFFCURVE",
"134 318 CURVE",
"152 343 LINE",
"107 343 LINE"
);
}
);
width = 441;
}
);
leftKerningGroup = i;
unicode = 0072;
},
{
color = (153, 254, 255, 255);
glyphname = s;
leftMetricsKey = o;
rightMetricsKey = o;
layers = (
{
layerId = "C26E6862-625E-4D03-9322-DC3496ADAC37";
name = Backup;
paths = (
{
closed = 1;
nodes = (
"-95 371 LINE",
"-95 475 OFFCURVE",
"-175 525 OFFCURVE",
"-271 525 CURVE SMOOTH",
"-395 525 OFFCURVE",
"-462 457 OFFCURVE",
"-462 382 CURVE SMOOTH",
"-462 308 OFFCURVE",
"-425 266 OFFCURVE",
"-342 246 CURVE SMOOTH",
"-232 219 LINE SMOOTH",
"-173 204 OFFCURVE",
"-153 184 OFFCURVE",
"-153 147 CURVE SMOOTH",
"-153 107 OFFCURVE",
"-189 57 OFFCURVE",
"-274 57 CURVE SMOOTH",
"-348 57 OFFCURVE",
"-389 97 OFFCURVE",
"-395 152 CURVE",
"-481 138 LINE",
"-463 38 OFFCURVE",
"-391 -15 OFFCURVE",
"-281 -15 CURVE SMOOTH",
"-150 -15 OFFCURVE",
"-69 47 OFFCURVE",
"-69 146 CURVE SMOOTH",
"-69 239 OFFCURVE",
"-122 273 OFFCURVE",
"-184 289 CURVE SMOOTH",
"-290 316 LINE SMOOTH",
"-349 331 OFFCURVE",
"-382 345 OFFCURVE",
"-382 382 CURVE SMOOTH",
"-382 429 OFFCURVE",
"-340 455 OFFCURVE",
"-278 455 CURVE SMOOTH",
"-219 455 OFFCURVE",
"-175 419 OFFCURVE",
"-175 357 CURVE"
);
},
{
closed = 1;
nodes = (
"1224 354 LINE",
"1231 468 OFFCURVE",
"1149 525 OFFCURVE",
"1048 525 CURVE SMOOTH",
"924 525 OFFCURVE",
"857 457 OFFCURVE",
"857 382 CURVE SMOOTH",
"857 308 OFFCURVE",
"894 266 OFFCURVE",
"977 246 CURVE SMOOTH",
"1087 219 LINE SMOOTH",
"1146 204 OFFCURVE",
"1168 184 OFFCURVE",
"1168 147 CURVE SMOOTH",
"1168 107 OFFCURVE",
"1130 57 OFFCURVE",
"1042 57 CURVE SMOOTH",
"960 57 OFFCURVE",
"908 92 OFFCURVE",
"916 163 CURVE",
"832 166 LINE",
"818 76 OFFCURVE",
"892 -15 OFFCURVE",
"1034 -15 CURVE SMOOTH",
"1168 -15 OFFCURVE",
"1250 47 OFFCURVE",
"1250 146 CURVE SMOOTH",
"1250 239 OFFCURVE",
"1197 273 OFFCURVE",
"1135 289 CURVE SMOOTH",
"1029 316 LINE SMOOTH",
"970 331 OFFCURVE",
"937 345 OFFCURVE",
"937 382 CURVE SMOOTH",
"937 429 OFFCURVE",
"979 455 OFFCURVE",
"1041 455 CURVE SMOOTH",
"1100 455 OFFCURVE",
"1150 420 OFFCURVE",
"1144 357 CURVE"
);
},
{
closed = 1;
nodes = (
"1784 354 LINE",
"1793 470 OFFCURVE",
"1710 525 OFFCURVE",
"1609 525 CURVE SMOOTH",
"1485 525 OFFCURVE",
"1418 457 OFFCURVE",
"1418 382 CURVE SMOOTH",
"1418 308 OFFCURVE",
"1455 266 OFFCURVE",
"1538 246 CURVE SMOOTH",
"1648 219 LINE SMOOTH",
"1707 204 OFFCURVE",
"1727 184 OFFCURVE",
"1727 147 CURVE SMOOTH",
"1727 107 OFFCURVE",
"1691 57 OFFCURVE",
"1606 57 CURVE SMOOTH",
"1532 57 OFFCURVE",
"1486 106 OFFCURVE",
"1485 188 CURVE",
"1399 174 LINE",
"1412 47 OFFCURVE",
"1489 -15 OFFCURVE",
"1599 -15 CURVE SMOOTH",
"1730 -15 OFFCURVE",
"1811 47 OFFCURVE",
"1811 146 CURVE SMOOTH",
"1811 231 OFFCURVE",
"1758 273 OFFCURVE",
"1696 289 CURVE SMOOTH",
"1590 316 LINE SMOOTH",
"1531 331 OFFCURVE",
"1498 345 OFFCURVE",
"1498 382 CURVE SMOOTH",
"1498 429 OFFCURVE",
"1540 455 OFFCURVE",
"1602 455 CURVE SMOOTH",
"1661 455 OFFCURVE",
"1710 429 OFFCURVE",
"1705 357 CURVE"
);
},
{
closed = 1;
nodes = (
"58 174 LINE",
"72 47 OFFCURVE",
"145 -13 OFFCURVE",
"266 -13 CURVE SMOOTH",
"396 -13 OFFCURVE",
"491 56 OFFCURVE",
"491 158 CURVE SMOOTH",
"491 244 OFFCURVE",
"424 280 OFFCURVE",
"341 300 CURVE SMOOTH",
"220 329 LINE SMOOTH",
"174 340 OFFCURVE",
"154 360 OFFCURVE",
"154 388 CURVE SMOOTH",
"154 429 OFFCURVE",
"196 457 OFFCURVE",
"262 457 CURVE SMOOTH",
"334 457 OFFCURVE",
"395 423 OFFCURVE",
"391 352 CURVE",
"467 346 LINE",
"467 454 OFFCURVE",
"378 523 OFFCURVE",
"260 523 CURVE SMOOTH",
"145 523 OFFCURVE",
"80 457 OFFCURVE",
"80 380 CURVE SMOOTH",
"80 328 OFFCURVE",
"109 280 OFFCURVE",
"200 258 CURVE SMOOTH",
"321 229 LINE SMOOTH",
"385 214 OFFCURVE",
"414 187 OFFCURVE",
"414 148 CURVE SMOOTH",
"414 103 OFFCURVE",
"375 55 OFFCURVE",
"280 55 CURVE",
"178 55 OFFCURVE",
"134 106 OFFCURVE",
"134 188 CURVE"
);
}
);
width = 479;
},
{
components = (
{
name = a;
transform = "{-1, 0, 0, 1, 613, 0}";
alignment = -1;
}
);
hints = (
{
place = "{102, 125}";
type = Stem;
},
{
place = "{408, 126}";
type = Stem;
},
{
place = "{436, 127}";
type = Stem;
},
{
horizontal = 1;
place = "{-35, 115}";
type = Stem;
},
{
horizontal = 1;
place = "{429, 115}";
type = Stem;
},
{
place = "{417, 123}";
type = Stem;
},
{
place = "{401, 126}";
type = Stem;
},
{
place = "{67, 123}";
type = Stem;
},
{
horizontal = 1;
place = "{-35, 113}";
type = Stem;
},
{
horizontal = 1;
place = "{218, 110}";
type = Stem;
}
);
layerId = "2B03D00A-B4C8-4D37-BEFC-80CF5F8B5BB8";
paths = (
{
closed = 1;
nodes = (
"452 -12 OFFCURVE",
"541 53 OFFCURVE",
"541 155 CURVE SMOOTH",
"541 245 OFFCURVE",
"483 286 OFFCURVE",
"388 312 CURVE SMOOTH",
"277 342 LINE SMOOTH",
"247 350 OFFCURVE",
"231 361 OFFCURVE",
"231 375 CURVE SMOOTH",
"231 399 OFFCURVE",
"264 415 OFFCURVE",
"315 415 CURVE SMOOTH",
"359 415 OFFCURVE",
"397 387 OFFCURVE",
"397 326 CURVE",
"514 318 LINE",
"514 442 OFFCURVE",
"425 522 OFFCURVE",
"317 522 CURVE SMOOTH",
"183 522 OFFCURVE",
"115 451 OFFCURVE",
"115 373 CURVE SMOOTH",
"115 315 OFFCURVE",
"154 256 OFFCURVE",
"247 232 CURVE SMOOTH",
"358 202 LINE SMOOTH",
"405 190 OFFCURVE",
"423 178 OFFCURVE",
"423 155 CURVE SMOOTH",
"423 127 OFFCURVE",
"391 95 OFFCURVE",
"317 95 CURVE SMOOTH",
"251 95 OFFCURVE",
"211 139 OFFCURVE",
"210 216 CURVE",
"89 197 LINE",
"105 55 OFFCURVE",
"189 -12 OFFCURVE",
"310 -12 CURVE SMOOTH"
);
}
);
width = 628;
},
{
hints = (
{
place = "{79, 80}";
type = Stem;
},
{
place = "{387, 81}";
type = Stem;
},
{
place = "{415, 82}";
type = Stem;
},
{
horizontal = 1;
place = "{-13, 70}";
type = Stem;
},
{
horizontal = 1;
place = "{453, 70}";
type = Stem;
}
);
layerId = "C9474598-BCEA-4A64-AEC8-6AD11FF1C3BE";
paths = (
{
closed = 1;
nodes = (
"145 523 OFFCURVE",
"79 457 OFFCURVE",
"79 383 CURVE SMOOTH",
"79 329 OFFCURVE",
"117 274 OFFCURVE",
"205 251 CURVE SMOOTH",
"327 219 LINE SMOOTH",
"391 202 OFFCURVE",
"415 184 OFFCURVE",
"415 146 CURVE SMOOTH",
"415 105 OFFCURVE",
"374 57 OFFCURVE",
"276 57 CURVE SMOOTH",
"190 57 OFFCURVE",
"138 106 OFFCURVE",
"137 188 CURVE",
"53 174 LINE",
"67 47 OFFCURVE",
"150 -13 OFFCURVE",
"269 -13 CURVE SMOOTH",
"410 -13 OFFCURVE",
"497 49 OFFCURVE",
"497 147 CURVE SMOOTH",
"497 231 OFFCURVE",
"441 272 OFFCURVE",
"348 296 CURVE SMOOTH",
"226 328 LINE SMOOTH",
"180 340 OFFCURVE",
"159 360 OFFCURVE",
"159 386 CURVE SMOOTH",
"159 426 OFFCURVE",
"206 453 OFFCURVE",
"274 453 CURVE SMOOTH",
"334 453 OFFCURVE",
"387 419 OFFCURVE",
"387 352 CURVE",
"468 346 LINE",
"468 454 OFFCURVE",
"382 523 OFFCURVE",
"276 523 CURVE SMOOTH"
);
}
);
width = 550;
}
);
leftKerningGroup = s;
rightKerningGroup = s1;
unicode = 0073;
},
{
color = (154, 153, 255, 255);
glyphname = t;
leftMetricsKey = "=n-22";
rightMetricsKey = o;
layers = (
{
layerId = "C26E6862-625E-4D03-9322-DC3496ADAC37";
name = Backup;
paths = (
{
closed = 1;
nodes = (
"50 0 LINE",
"132 0 LINE",
"132 510 LINE",
"50 510 LINE"
);
},
{
closed = 1;
nodes = (
"-132 13 LINE",
"-132 -124 OFFCURVE",
"-104 -190 OFFCURVE",
"2 -190 CURVE SMOOTH",
"67 -190 OFFCURVE",
"132 -141 OFFCURVE",
"132 -51 CURVE",
"48 -54 LINE",
"48 -105 OFFCURVE",
"24 -118 OFFCURVE",
"0 -118 CURVE SMOOTH",
"-43 -118 OFFCURVE",
"-50 -77 OFFCURVE",
"-50 13 CURVE"
);
}
);
width = 182;
},
{
hints = (
{
place = "{56, 82}";
type = Stem;
},
{
place = "{214, 127}";
type = Stem;
},
{
horizontal = 1;
place = "{-35, 115}";
type = Stem;
},
{
horizontal = 1;
place = "{418, 108}";
type = Stem;
},
{
horizontal = 1;
place = "{-35, 181}";
type = Stem;
},
{
horizontal = 1;
place = "{700, -20}";
target = down;
type = TopGhost;
}
);
layerId = "2B03D00A-B4C8-4D37-BEFC-80CF5F8B5BB8";
paths = (
{
closed = 1;
nodes = (
"2 405 LINE",
"51 405 LINE",
"51 175 LINE",
"52 53 OFFCURVE",
"85 -12 OFFCURVE",
"195 -12 CURVE SMOOTH",
"265 -12 OFFCURVE",
"335 48 OFFCURVE",
"335 156 CURVE",
"217 153 LINE",
"217 107 OFFCURVE",
"205 95 OFFCURVE",
"193 95 CURVE SMOOTH",
"171 95 OFFCURVE",
"167 125 OFFCURVE",
"167 183 CURVE SMOOTH",
"167 405 LINE",
"312 405 LINE",
"312 506 LINE",
"167 506 LINE",
"167 685 LINE",
"51 685 LINE",
"51 510 LINE",
"2 510 LINE"
);
},
{
closed = 1;
nodes = (
"50 0 LINE",
"132 0 LINE",
"132 510 LINE",
"50 510 LINE"
);
},
{
closed = 1;
nodes = (
"-132 13 LINE",
"-132 -124 OFFCURVE",
"-104 -190 OFFCURVE",
"2 -190 CURVE SMOOTH",
"67 -190 OFFCURVE",
"132 -141 OFFCURVE",
"132 -51 CURVE",
"48 -54 LINE",
"48 -105 OFFCURVE",
"24 -118 OFFCURVE",
"0 -118 CURVE SMOOTH",
"-43 -118 OFFCURVE",
"-50 -77 OFFCURVE",
"-50 13 CURVE"
);
}
);
width = 384;
},
{
anchors = (
{
name = right;
position = "{397, 700}";
},
{
name = bottom;
position = "{262, -13}";
}
);
hints = (
{
place = "{133, 82}";
type = Stem;
},
{
place = "{313, 84}";
type = Stem;
},
{
horizontal = 1;
place = "{-13, 72}";
type = Stem;
},
{
horizontal = 1;
place = "{440, 65}";
type = Stem;
},
{
horizontal = 1;
place = "{-13, 138}";
type = Stem;
},
{
horizontal = 1;
place = "{700, -20}";
target = down;
type = TopGhost;
}
);
layerId = "C9474598-BCEA-4A64-AEC8-6AD11FF1C3BE";
paths = (
{
closed = 1;
nodes = (
"59 440 LINE",
"59 510 LINE",
"133 510 LINE",
"215 505 LINE",
"372 505 LINE",
"372 440 LINE"
);
},
{
closed = 1;
nodes = (
"133 700 LINE",
"215 700 LINE",
"215 190 LINE",
"133 190 LINE"
);
},
{
closed = 1;
nodes = (
"215 190 LINE",
"215 100 OFFCURVE",
"222 59 OFFCURVE",
"265 59 CURVE SMOOTH",
"289 59 OFFCURVE",
"313 72 OFFCURVE",
"313 123 CURVE",
"397 126 LINE",
"397 36 OFFCURVE",
"332 -13 OFFCURVE",
"267 -13 CURVE SMOOTH",
"161 -13 OFFCURVE",
"133 53 OFFCURVE",
"133 190 CURVE"
);
}
);
width = 450;
}
);
unicode = 0074;
},
{
color = (154, 153, 255, 255);
glyphname = u;
leftMetricsKey = "=n-12";
rightMetricsKey = "=n-12";
layers = (
{
components = (
{
name = n;
transform = "{-1, 0, 0, -1, 0, 0}";
alignment = -1;
}
);
layerId = "C26E6862-625E-4D03-9322-DC3496ADAC37";
name = Backup;
paths = (
{
closed = 1;
nodes = (
"50 0 LINE",
"132 0 LINE",
"132 510 LINE",
"50 510 LINE"
);
}
);
width = 618;
},
{
hints = (
{
place = "{58, 82}";
type = Stem;
},
{
place = "{383, 125}";
type = Stem;
},
{
horizontal = 1;
place = "{-13, 72}";
type = Stem;
},
{
horizontal = 1;
place = "{510, -20}";
target = down;
type = TopGhost;
}
);
layerId = "2B03D00A-B4C8-4D37-BEFC-80CF5F8B5BB8";
paths = (
{
closed = 1;
nodes = (
"302 -12 OFFCURVE",
"344 5 OFFCURVE",
"373 31 CURVE",
"373 0 LINE",
"489 0 LINE",
"489 510 LINE",
"373 510 LINE",
"373 226 LINE SMOOTH",
"373 162 OFFCURVE",
"321 95 OFFCURVE",
"264 95 CURVE SMOOTH",
"192 95 OFFCURVE",
"174 169 OFFCURVE",
"174 242 CURVE SMOOTH",
"174 510 LINE",
"58 510 LINE",
"58 226 LINE SMOOTH",
"58 102 OFFCURVE",
"101 -12 OFFCURVE",
"251 -12 CURVE SMOOTH"
);
}
);
width = 547;
},
{
hints = (
{
place = "{69, 82}";
type = Stem;
},
{
place = "{411, 82}";
type = Stem;
},
{
horizontal = 1;
place = "{-13, 72}";
type = Stem;
},
{
horizontal = 1;
place = "{510, -20}";
target = down;
type = TopGhost;
}
);
layerId = "C9474598-BCEA-4A64-AEC8-6AD11FF1C3BE";
paths = (
{
closed = 1;
nodes = (
"403 82 LINE",
"460 77 LINE",
"460 224 LINE",
"411 224 LINE",
"411 143 OFFCURVE",
"343 59 OFFCURVE",
"261 59 CURVE SMOOTH",
"175 59 OFFCURVE",
"151 151 OFFCURVE",
"151 241 CURVE",
"151 510 LINE",
"69 510 LINE",
"69 224 LINE SMOOTH",
"69 100 OFFCURVE",
"111 -13 OFFCURVE",
"253 -13 CURVE SMOOTH",
"340 -13 OFFCURVE",
"390 29 OFFCURVE",
"421 92 CURVE"
);
},
{
closed = 1;
nodes = (
"411 0 LINE",
"493 0 LINE",
"493 510 LINE",
"411 510 LINE"
);
}
);
width = 554;
}
);
leftKerningGroup = u;
rightKerningGroup = u1;
unicode = 0075;
},
{
glyphname = v;
leftMetricsKey = o;
rightMetricsKey = o;
layers = (
{
layerId = "C26E6862-625E-4D03-9322-DC3496ADAC37";
name = Backup;
width = 470;
},
{
hints = (
{
horizontal = 1;
place = "{-22, 64}";
type = Stem;
},
{
horizontal = 1;
place = "{532, -20}";
target = down;
type = TopGhost;
}
);
layerId = "2B03D00A-B4C8-4D37-BEFC-80CF5F8B5BB8";
paths = (
{
closed = 1;
nodes = (
"214 0 LINE",
"318 0 LINE",
"520 510 LINE",
"397 510 LINE",
"266 164 LINE",
"135 510 LINE",
"12 510 LINE"
);
}
);
width = 532;
},
{
hints = (
{
horizontal = 1;
place = "{0, 21}";
target = up;
type = BottomGhost;
},
{
horizontal = 1;
place = "{510, -20}";
target = down;
type = TopGhost;
}
);
layerId = "C9474598-BCEA-4A64-AEC8-6AD11FF1C3BE";
paths = (
{
closed = 1;
nodes = (
"261 0 LINE",
"338 0 LINE",
"541 510 LINE",
"454 510 LINE"
);
},
{
closed = 1;
nodes = (
"256 0 LINE",
"333 0 LINE",
"140 510 LINE",
"53 510 LINE"
);
}
);
width = 594;
}
);
unicode = 0076;
},
{
color = (153, 254, 255, 255);
glyphname = w;
leftMetricsKey = "=o-6";
rightMetricsKey = "=o-6";
layers = (
{
layerId = "C26E6862-625E-4D03-9322-DC3496ADAC37";
name = Backup;
width = 855;
},
{
anchors = (
{
name = top;
position = "{426, 585}";
}
);
hints = (
{
horizontal = 1;
place = "{-22, 64}";
type = Stem;
},
{
horizontal = 1;
place = "{532, -20}";
target = down;
type = TopGhost;
}
);
layerId = "2B03D00A-B4C8-4D37-BEFC-80CF5F8B5BB8";
paths = (
{
closed = 1;
nodes = (
"212 0 LINE",
"316 0 LINE",
"426 314 LINE",
"536 0 LINE",
"640 0 LINE",
"787 510 LINE",
"664 510 LINE",
"582 202 LINE",
"481 510 LINE",
"371 510 LINE",
"270 202 LINE",
"188 510 LINE",
"65 510 LINE"
);
}
);
width = 852;
},
{
anchors = (
{
name = top;
position = "{410, 510}";
}
);
hints = (
{
horizontal = 1;
place = "{0, 21}";
target = up;
type = BottomGhost;
},
{
horizontal = 1;
place = "{510, -20}";
target = down;
type = TopGhost;
}
);
layerId = "C9474598-BCEA-4A64-AEC8-6AD11FF1C3BE";
paths = (
{
closed = 1;
nodes = (
"47 510 LINE",
"193 0 LINE",
"199 0 LINE",
"266 0 LINE",
"274 0 LINE",
"410 390 LINE",
"546 0 LINE",
"553 0 LINE",
"620 0 LINE",
"626 0 LINE",
"772 510 LINE",
"685 510 LINE",
"582 114 LINE",
"452 510 LINE",
"368 510 LINE",
"367 510 LINE",
"237 114 LINE",
"134 510 LINE"
);
}
);
width = 819;
}
);
unicode = 0077;
},
{
glyphname = x;
leftMetricsKey = "=o-22";
rightMetricsKey = "=o-23";
layers = (
{
layerId = "C26E6862-625E-4D03-9322-DC3496ADAC37";
name = Backup;
width = 591;
},
{
hints = (
{
horizontal = 1;
place = "{510, -20}";
target = down;
type = TopGhost;
},
{
horizontal = 1;
place = "{0, 43}";
type = Stem;
}
);
layerId = "2B03D00A-B4C8-4D37-BEFC-80CF5F8B5BB8";
paths = (
{
closed = 1;
nodes = (
"190 0 LINE",
"317 171 LINE",
"443 0 LINE",
"585 0 LINE",
"387 257 LINE",
"579 510 LINE",
"438 510 LINE",
"317 343 LINE",
"196 510 LINE",
"54 510 LINE",
"246 257 LINE",
"48 0 LINE"
);
}
);
width = 633;
},
{
hints = (
{
horizontal = 1;
place = "{510, -20}";
target = down;
type = TopGhost;
},
{
horizontal = 1;
place = "{0, 21}";
target = up;
type = BottomGhost;
}
);
layerId = "C9474598-BCEA-4A64-AEC8-6AD11FF1C3BE";
paths = (
{
closed = 1;
nodes = (
"31 0 LINE",
"130 0 LINE",
"325 263 LINE",
"234 263 LINE"
);
},
{
closed = 1;
nodes = (
"427 0 LINE",
"526 0 LINE",
"323 263 LINE",
"232 263 LINE"
);
},
{
closed = 1;
nodes = (
"234 250 LINE",
"325 250 LINE",
"137 510 LINE",
"38 510 LINE"
);
},
{
closed = 1;
nodes = (
"232 250 LINE",
"323 250 LINE",
"520 510 LINE",
"421 510 LINE"
);
}
);
width = 556;
}
);
unicode = 0078;
},
{
color = (153, 254, 255, 255);
glyphname = y;
leftMetricsKey = "=o-58";
rightMetricsKey = "=o-59";
layers = (
{
components = (
{
name = v;
alignment = -1;
}
);
layerId = "C26E6862-625E-4D03-9322-DC3496ADAC37";
name = Backup;
paths = (
{
closed = 1;
nodes = (
"50 0 LINE",
"50 -77 OFFCURVE",
"43 -118 OFFCURVE",
"0 -118 CURVE SMOOTH",
"-23 -118 OFFCURVE",
"-48 -105 OFFCURVE",
"-48 -54 CURVE",
"-130 -57 LINE",
"-130 -147 OFFCURVE",
"-65 -190 OFFCURVE",
"-1 -190 CURVE SMOOTH",
"104 -190 OFFCURVE",
"132 -124 OFFCURVE",
"132 0 CURVE"
);
}
);
width = 470;
},
{
anchors = (
{
name = top;
position = "{267, 585}";
}
);
hints = (
{
place = "{22, 127}";
type = Stem;
},
{
place = "{215, 82}";
type = Stem;
},
{
horizontal = 1;
place = "{-212, 115}";
type = Stem;
},
{
horizontal = 1;
place = "{510, -20}";
target = down;
type = TopGhost;
}
);
layerId = "2B03D00A-B4C8-4D37-BEFC-80CF5F8B5BB8";
paths = (
{
closed = 1;
nodes = (
"12 510 LINE",
"208 16 LINE",
"208 -40 OFFCURVE",
"205 -68 OFFCURVE",
"182 -68 CURVE SMOOTH",
"171 -68 OFFCURVE",
"159 -56 OFFCURVE",
"159 -10 CURVE",
"41 -7 LINE",
"41 -115 OFFCURVE",
"111 -175 OFFCURVE",
"181 -175 CURVE SMOOTH",
"293 -175 OFFCURVE",
"323 -110 OFFCURVE",
"324 16 CURVE",
"521 510 LINE",
"397 510 LINE",
"266 164 LINE",
"135 510 LINE"
);
}
);
width = 533;
},
{
anchors = (
{
name = top;
position = "{243, 510}";
}
);
components = (
{
name = v;
transform = "{1, 0, 0, 1, -58, 0}";
alignment = -1;
}
);
hints = (
{
place = "{16, 84}";
type = Stem;
},
{
place = "{157, 82}";
type = Stem;
},
{
horizontal = 1;
place = "{-203, 72}";
type = Stem;
},
{
horizontal = 1;
place = "{510, -20}";
target = down;
type = TopGhost;
},
{
horizontal = 1;
place = "{0, 21}";
target = up;
type = BottomGhost;
}
);
layerId = "C9474598-BCEA-4A64-AEC8-6AD11FF1C3BE";
paths = (
{
closed = 1;
nodes = (
"198 0 LINE",
"198 -90 OFFCURVE",
"191 -131 OFFCURVE",
"148 -131 CURVE SMOOTH",
"124 -131 OFFCURVE",
"100 -118 OFFCURVE",
"100 -67 CURVE",
"16 -64 LINE",
"16 -154 OFFCURVE",
"81 -203 OFFCURVE",
"146 -203 CURVE SMOOTH",
"252 -203 OFFCURVE",
"280 -137 OFFCURVE",
"280 0 CURVE"
);
}
);
width = 477;
}
);
leftKerningGroup = y;
rightKerningGroup = y1;
unicode = 0079;
},
{
color = (154, 153, 255, 255);
glyphname = z;
leftMetricsKey = "=n-27";
rightMetricsKey = "=n-16";
layers = (
{
layerId = "C26E6862-625E-4D03-9322-DC3496ADAC37";
name = Backup;
width = 560;
},
{
hints = (
{
horizontal = 1;
place = "{-22, 118}";
type = Stem;
},
{
horizontal = 1;
place = "{416, 115}";
type = Stem;
}
);
layerId = "2B03D00A-B4C8-4D37-BEFC-80CF5F8B5BB8";
paths = (
{
closed = 1;
nodes = (
"88 96 LINE",
"88 0 LINE",
"507 0 LINE",
"507 109 LINE",
"238 109 LINE",
"495 416 LINE",
"495 510 LINE",
"103 510 LINE",
"103 403 LINE",
"345 403 LINE"
);
}
);
width = 595;
},
{
hints = (
{
horizontal = 1;
place = "{0, 75}";
type = Stem;
},
{
horizontal = 1;
place = "{438, 72}";
type = Stem;
}
);
layerId = "C9474598-BCEA-4A64-AEC8-6AD11FF1C3BE";
paths = (
{
closed = 1;
nodes = (
"54 75 LINE",
"357 438 LINE",
"452 438 LINE",
"149 75 LINE"
);
},
{
closed = 1;
nodes = (
"71 438 LINE",
"71 510 LINE",
"452 510 LINE",
"452 438 LINE"
);
},
{
closed = 1;
nodes = (
"54 0 LINE",
"54 75 LINE",
"465 75 LINE",
"465 0 LINE"
);
}
);
width = 522;
}
);
leftKerningGroup = z;
rightKerningGroup = z1;
unicode = 007A;
},
{
glyphname = braceleft;
layers = (
{
layerId = "C26E6862-625E-4D03-9322-DC3496ADAC37";
name = Backup;
width = 332;
},
{
hints = (
{
place = "{125, 60}";
type = Stem;
},
{
place = "{125, 141}";
type = Stem;
},
{
horizontal = 1;
place = "{-117, -20}";
target = down;
type = TopGhost;
},
{
horizontal = 1;
place = "{-117, 21}";
type = Stem;
}
);
layerId = "2B03D00A-B4C8-4D37-BEFC-80CF5F8B5BB8";
paths = (
{
closed = 1;
nodes = (
"185 648 LINE SMOOTH",
"185 712 OFFCURVE",
"220 744 OFFCURVE",
"266 744 CURVE",
"266 744 OFFCURVE",
"266 799 OFFCURVE",
"266 799 CURVE",
"200 799 OFFCURVE",
"125 756 OFFCURVE",
"125 648 CURVE SMOOTH",
"125 458 LINE SMOOTH",
"125 381 OFFCURVE",
"76 367 OFFCURVE",
"49 367 CURVE",
"49 367 OFFCURVE",
"49 341 OFFCURVE",
"49 341 CURVE",
"107 341 LINE SMOOTH",
"143 341 OFFCURVE",
"185 355 OFFCURVE",
"185 431 CURVE SMOOTH"
);
},
{
closed = 1;
nodes = (
"185 251 LINE SMOOTH",
"185 327 OFFCURVE",
"143 341 OFFCURVE",
"107 341 CURVE SMOOTH",
"49 341 LINE",
"49 341 OFFCURVE",
"49 315 OFFCURVE",
"49 315 CURVE",
"76 315 OFFCURVE",
"125 301 OFFCURVE",
"125 224 CURVE SMOOTH",
"125 34 LINE SMOOTH",
"125 -74 OFFCURVE",
"200 -117 OFFCURVE",
"266 -117 CURVE",
"266 -117 OFFCURVE",
"266 -62 OFFCURVE",
"266 -62 CURVE",
"220 -62 OFFCURVE",
"185 -30 OFFCURVE",
"185 34 CURVE SMOOTH"
);
}
);
width = 332;
},
{
hints = (
{
place = "{125, 60}";
type = Stem;
},
{
place = "{125, 141}";
type = Stem;
},
{
horizontal = 1;
place = "{-117, -20}";
target = down;
type = TopGhost;
},
{
horizontal = 1;
place = "{-117, 21}";
target = up;
type = BottomGhost;
}
);
layerId = "C9474598-BCEA-4A64-AEC8-6AD11FF1C3BE";
paths = (
{
closed = 1;
nodes = (
"185 648 LINE SMOOTH",
"185 712 OFFCURVE",
"220 744 OFFCURVE",
"266 744 CURVE",
"266 744 OFFCURVE",
"266 799 OFFCURVE",
"266 799 CURVE",
"200 799 OFFCURVE",
"125 756 OFFCURVE",
"125 648 CURVE SMOOTH",
"125 458 LINE SMOOTH",
"125 381 OFFCURVE",
"76 367 OFFCURVE",
"49 367 CURVE",
"49 367 OFFCURVE",
"49 341 OFFCURVE",
"49 341 CURVE",
"107 341 LINE SMOOTH",
"143 341 OFFCURVE",
"185 355 OFFCURVE",
"185 431 CURVE SMOOTH"
);
},
{
closed = 1;
nodes = (
"185 251 LINE SMOOTH",
"185 327 OFFCURVE",
"143 341 OFFCURVE",
"107 341 CURVE SMOOTH",
"49 341 LINE",
"49 341 OFFCURVE",
"49 315 OFFCURVE",
"49 315 CURVE",
"76 315 OFFCURVE",
"125 301 OFFCURVE",
"125 224 CURVE SMOOTH",
"125 34 LINE SMOOTH",
"125 -74 OFFCURVE",
"200 -117 OFFCURVE",
"266 -117 CURVE",
"266 -117 OFFCURVE",
"266 -62 OFFCURVE",
"266 -62 CURVE",
"220 -62 OFFCURVE",
"185 -30 OFFCURVE",
"185 34 CURVE SMOOTH"
);
}
);
width = 332;
}
);
unicode = 007B;
},
{
color = (154, 153, 255, 255);
glyphname = bar;
layers = (
{
components = (
{
name = I;
alignment = -1;
}
);
layerId = "C26E6862-625E-4D03-9322-DC3496ADAC37";
name = Backup;
width = 0;
},
{
hints = (
{
place = "{101, 60}";
type = Stem;
},
{
horizontal = 1;
place = "{-120, 21}";
target = up;
type = BottomGhost;
},
{
horizontal = 1;
place = "{802, -20}";
target = down;
type = TopGhost;
}
);
layerId = "2B03D00A-B4C8-4D37-BEFC-80CF5F8B5BB8";
paths = (
{
closed = 1;
nodes = (
"101 -120 LINE",
"161 -120 LINE",
"161 802 LINE",
"101 802 LINE"
);
}
);
width = 268;
},
{
hints = (
{
place = "{101, 60}";
type = Stem;
},
{
horizontal = 1;
place = "{-120, 21}";
target = up;
type = BottomGhost;
},
{
horizontal = 1;
place = "{802, -20}";
target = down;
type = TopGhost;
}
);
layerId = "C9474598-BCEA-4A64-AEC8-6AD11FF1C3BE";
paths = (
{
closed = 1;
nodes = (
"101 -120 LINE",
"161 -120 LINE",
"161 802 LINE",
"101 802 LINE"
);
}
);
width = 268;
}
);
leftKerningGroup = bar;
rightKerningGroup = bar1;
unicode = 007C;
},
{
glyphname = asciitilde;
layers = (
{
layerId = "C26E6862-625E-4D03-9322-DC3496ADAC37";
name = Backup;
width = 572;
},
{
hints = (
{
place = "{418, 74}";
type = Stem;
},
{
place = "{256, 74}";
type = Stem;
},
{
horizontal = 1;
place = "{96, 71}";
type = Stem;
},
{
horizontal = 1;
place = "{96, 177}";
type = Stem;
},
{
horizontal = 1;
place = "{-50, 146}";
type = Stem;
},
{
horizontal = 1;
place = "{96, 177}";
type = Stem;
},
{
horizontal = 1;
place = "{96, 146}";
type = Stem;
}
);
layerId = "2B03D00A-B4C8-4D37-BEFC-80CF5F8B5BB8";
paths = (
{
closed = 1;
nodes = (
"256 273 LINE",
"256 162 OFFCURVE",
"281 96 OFFCURVE",
"375 96 CURVE SMOOTH",
"434 96 OFFCURVE",
"492 147 OFFCURVE",
"492 227 CURVE",
"418 225 LINE",
"418 179 OFFCURVE",
"396 167 OFFCURVE",
"376 167 CURVE SMOOTH",
"336 167 OFFCURVE",
"330 204 OFFCURVE",
"330 273 CURVE"
);
},
{
closed = 1;
nodes = (
"330 273 LINE",
"330 384 OFFCURVE",
"305 450 OFFCURVE",
"211 450 CURVE SMOOTH",
"152 450 OFFCURVE",
"94 399 OFFCURVE",
"94 319 CURVE",
"168 321 LINE",
"168 367 OFFCURVE",
"190 379 OFFCURVE",
"210 379 CURVE SMOOTH",
"250 379 OFFCURVE",
"256 342 OFFCURVE",
"256 273 CURVE"
);
}
);
width = 572;
},
{
hints = (
{
place = "{94, 74}";
type = Stem;
},
{
place = "{256, 74}";
type = Stem;
},
{
horizontal = 1;
place = "{379, 71}";
type = Stem;
},
{
horizontal = 1;
place = "{273, 177}";
type = Stem;
},
{
horizontal = 1;
place = "{305, 146}";
type = Stem;
},
{
horizontal = 1;
place = "{273, 177}";
type = Stem;
},
{
horizontal = 1;
place = "{450, 146}";
type = Stem;
}
);
layerId = "C9474598-BCEA-4A64-AEC8-6AD11FF1C3BE";
paths = (
{
closed = 1;
nodes = (
"256 273 LINE",
"256 162 OFFCURVE",
"281 96 OFFCURVE",
"375 96 CURVE SMOOTH",
"434 96 OFFCURVE",
"492 147 OFFCURVE",
"492 227 CURVE",
"418 225 LINE",
"418 179 OFFCURVE",
"396 167 OFFCURVE",
"376 167 CURVE SMOOTH",
"336 167 OFFCURVE",
"330 204 OFFCURVE",
"330 273 CURVE"
);
},
{
closed = 1;
nodes = (
"330 273 LINE",
"330 384 OFFCURVE",
"305 450 OFFCURVE",
"211 450 CURVE SMOOTH",
"152 450 OFFCURVE",
"94 399 OFFCURVE",
"94 319 CURVE",
"168 321 LINE",
"168 367 OFFCURVE",
"190 379 OFFCURVE",
"210 379 CURVE SMOOTH",
"250 379 OFFCURVE",
"256 342 OFFCURVE",
"256 273 CURVE"
);
}
);
width = 572;
}
);
unicode = 007E;
},
{
color = (154, 153, 255, 255);
glyphname = sterling;
leftMetricsKey = N;
rightMetricsKey = N;
layers = (
{
components = (
{
name = endash;
alignment = -1;
}
);
layerId = "C26E6862-625E-4D03-9322-DC3496ADAC37";
name = Backup;
paths = (
{
closed = 1;
nodes = (
"2 508 LINE",
"56 508 LINE",
"138 503 LINE",
"295 503 LINE",
"295 438 LINE",
"138 438 LINE",
"56 438 LINE",
"2 438 LINE"
);
}
);
width = 518;
},
{
components = (
{
name = L;
alignment = -1;
},
{
name = hyphen;
transform = "{1, 0, 0, 1, 73, 230}";
alignment = -1;
},
{
name = endash;
alignment = -1;
}
);
hints = (
{
place = "{131, 128}";
type = Stem;
},
{
horizontal = 1;
place = "{0, 80}";
type = Stem;
},
{
horizontal = 1;
place = "{761, -20}";
target = down;
type = TopGhost;
},
{
horizontal = 1;
place = "{235, 76}";
type = Stem;
}
);
layerId = "2B03D00A-B4C8-4D37-BEFC-80CF5F8B5BB8";
paths = (
{
closed = 1;
nodes = (
"566 80 LINE",
"140 80 LINE",
"140 0 LINE",
"566 0 LINE"
);
},
{
closed = 1;
nodes = (
"50 0 LINE",
"136 0 LINE",
"136 740 LINE",
"50 740 LINE"
);
},
{
closed = 1;
nodes = (
"132 -10 LINE",
"132 67 OFFCURVE",
"147 108 OFFCURVE",
"245 108 CURVE SMOOTH",
"296 108 OFFCURVE",
"349 78 OFFCURVE",
"349 -10 CURVE",
"435 -13 LINE",
"435 131 OFFCURVE",
"340 188 OFFCURVE",
"241 188 CURVE SMOOTH",
"87 188 OFFCURVE",
"46 114 OFFCURVE",
"46 -10 CURVE"
);
},
{
closed = 1;
nodes = (
"66 235 LINE",
"452 235 LINE",
"452 311 LINE",
"66 311 LINE"
);
},
{
closed = 1;
nodes = (
"2 438 LINE",
"56 438 LINE",
"138 438 LINE",
"295 438 LINE",
"295 503 LINE",
"138 503 LINE",
"56 508 LINE",
"2 508 LINE"
);
}
);
width = 588;
},
{
anchors = (
{
name = right;
position = "{315, 739}";
}
);
guideLines = (
{
angle = 90;
position = "{-982, 0}";
}
);
hints = (
{
place = "{47, 86}";
type = Stem;
},
{
horizontal = 1;
place = "{0, 80}";
type = Stem;
},
{
horizontal = 1;
place = "{740, -20}";
target = down;
type = TopGhost;
}
);
layerId = "C9474598-BCEA-4A64-AEC8-6AD11FF1C3BE";
paths = (
{
closed = 1;
nodes = (
"107 0 LINE",
"533 0 LINE",
"533 80 LINE",
"107 80 LINE"
);
},
{
closed = 1;
nodes = (
"172 19.2 LINE",
"258 19.2 LINE",
"258 552. LINE",
"172 552. LINE"
);
},
{
closed = 1;
nodes = (
"561 549 LINE",
"561 693 OFFCURVE",
"466 750 OFFCURVE",
"367 750 CURVE SMOOTH",
"213 750 OFFCURVE",
"172 676 OFFCURVE",
"172 552 CURVE",
"258 552 LINE",
"258 629 OFFCURVE",
"273 670 OFFCURVE",
"371 670 CURVE SMOOTH",
"422 670 OFFCURVE",
"475 640 OFFCURVE",
"475 552 CURVE"
);
},
{
closed = 1;
nodes = (
"415 348 LINE",
"415 413 LINE",
"258 413 LINE",
"176 418 LINE",
"102 418 LINE",
"102 348 LINE"
);
},
{
closed = 1;
nodes = (
"475 -0.001 LINE",
"561 -0.001 LINE",
"561 170.495 LINE",
"475 170.495 LINE"
);
}
);
width = 663;
}
);
unicode = 00A3;
},
{
glyphname = currency;
leftMetricsKey = o;
rightMetricsKey = o;
layers = (
{
layerId = "2B03D00A-B4C8-4D37-BEFC-80CF5F8B5BB8";
width = 572;
},
{
layerId = "C9474598-BCEA-4A64-AEC8-6AD11FF1C3BE";
paths = (
{
closed = 1;
nodes = (
"108 645 LINE",
"53 590 LINE",
"123 520 LINE",
"95 479 OFFCURVE",
"78 428 OFFCURVE",
"78 371 CURVE SMOOTH",
"78 313 OFFCURVE",
"95 262 OFFCURVE",
"124 221 CURVE",
"53 150 LINE",
"108 95 LINE",
"179 166 LINE",
"220 137 OFFCURVE",
"271 120 OFFCURVE",
"329 120 CURVE SMOOTH",
"386 120 OFFCURVE",
"437 137 OFFCURVE",
"477 166 CURVE",
"548 95 LINE",
"603 150 LINE",
"532 221 LINE",
"561 262 OFFCURVE",
"578 313 OFFCURVE",
"578 371 CURVE SMOOTH",
"578 428 OFFCURVE",
"561 479 OFFCURVE",
"533 520 CURVE",
"603 590 LINE",
"548 645 LINE",
"478 575 LINE",
"437 604 OFFCURVE",
"386 620 OFFCURVE",
"329 620 CURVE SMOOTH",
"271 620 OFFCURVE",
"220 603 OFFCURVE",
"179 574 CURVE"
);
},
{
closed = 1;
nodes = (
"168 304 OFFCURVE",
"160 334 OFFCURVE",
"160 371 CURVE SMOOTH",
"160 407 OFFCURVE",
"168 437 OFFCURVE",
"181 462 CURVE SMOOTH",
"194 486 OFFCURVE",
"213 505 OFFCURVE",
"234 519 CURVE SMOOTH",
"263 537 OFFCURVE",
"297 546 OFFCURVE",
"331 546 CURVE SMOOTH",
"364 546 OFFCURVE",
"396 538 OFFCURVE",
"423 520 CURVE SMOOTH",
"444 506 OFFCURVE",
"463 487 OFFCURVE",
"476 463 CURVE",
"488 438 OFFCURVE",
"496 407 OFFCURVE",
"496 371 CURVE SMOOTH",
"496 334 OFFCURVE",
"488 303 OFFCURVE",
"475 278 CURVE SMOOTH",
"462 253 OFFCURVE",
"444 234 OFFCURVE",
"423 220 CURVE SMOOTH",
"396 203 OFFCURVE",
"364 194 OFFCURVE",
"331 194 CURVE SMOOTH",
"297 194 OFFCURVE",
"263 203 OFFCURVE",
"234 221 CURVE SMOOTH",
"213 235 OFFCURVE",
"195 254 OFFCURVE",
"182 279 CURVE SMOOTH"
);
}
);
width = 656;
}
);
unicode = 00A4;
},
{
color = (154, 153, 255, 255);
glyphname = section;
layers = (
{
layerId = "2B03D00A-B4C8-4D37-BEFC-80CF5F8B5BB8";
width = 513;
},
{
layerId = "C9474598-BCEA-4A64-AEC8-6AD11FF1C3BE";
paths = (
{
closed = 1;
nodes = (
"481 -35 OFFCURVE",
"352 -73 OFFCURVE",
"257 -73 CURVE SMOOTH",
"126 -73 OFFCURVE",
"54 -10 OFFCURVE",
"40 115 CURVE",
"40 120 LINE",
"125 136 LINE",
"125 130 LINE",
"126 43 OFFCURVE",
"176 2 OFFCURVE",
"265 2 CURVE SMOOTH",
"322 2 OFFCURVE",
"396 17 OFFCURVE",
"396 80 CURVE SMOOTH",
"396 100 OFFCURVE",
"383 115 OFFCURVE",
"364 128 CURVE SMOOTH",
"355 134 OFFCURVE",
"344 139 OFFCURVE",
"334 144 CURVE SMOOTH",
"323 149 OFFCURVE",
"313 153 OFFCURVE",
"304 157 CURVE SMOOTH",
"184 205 LINE SMOOTH",
"99 239 OFFCURVE",
"13 288 OFFCURVE",
"13 391 CURVE SMOOTH",
"13 466 OFFCURVE",
"59 507 OFFCURVE",
"126 527 CURVE",
"91 552 OFFCURVE",
"67 585 OFFCURVE",
"67 631 CURVE SMOOTH",
"67 734 OFFCURVE",
"171 775 OFFCURVE",
"260 775 CURVE SMOOTH",
"369 775 OFFCURVE",
"461 706 OFFCURVE",
"461 595 CURVE SMOOTH",
"461 590 LINE",
"376 597 LINE",
"376 608 LINE SMOOTH",
"376 673 OFFCURVE",
"315 702 OFFCURVE",
"252 702 CURVE SMOOTH",
"206 702 OFFCURVE",
"148 684 OFFCURVE",
"148 634 CURVE SMOOTH",
"148 604 OFFCURVE",
"185 584 OFFCURVE",
"213 572 CURVE SMOOTH",
"252 557 OFFCURVE",
"293 541 OFFCURVE",
"333 524 CURVE SMOOTH",
"425 488 OFFCURVE",
"523 448 OFFCURVE",
"523 331 CURVE SMOOTH",
"523 256 OFFCURVE",
"480 215 OFFCURVE",
"411 197 CURVE",
"456 171 OFFCURVE",
"481 135 OFFCURVE",
"481 80 CURVE SMOOTH"
);
},
{
closed = 1;
nodes = (
"125 470 OFFCURVE",
"98 443 OFFCURVE",
"98 397 CURVE SMOOTH",
"98 332 OFFCURVE",
"150 307 OFFCURVE",
"208 283 CURVE",
"212 282 OFFCURVE",
"240 271 OFFCURVE",
"266 259 CURVE",
"280 255 OFFCURVE",
"293 250 OFFCURVE",
"303 246 CURVE",
"308 243 OFFCURVE",
"312 242 OFFCURVE",
"315 241 CURVE SMOOTH",
"317 240 OFFCURVE",
"318 240 OFFCURVE",
"318 239 CURVE",
"380 239 OFFCURVE",
"438 257 OFFCURVE",
"438 322 CURVE SMOOTH",
"438 359 OFFCURVE",
"421 383 OFFCURVE",
"398 402 CURVE SMOOTH",
"386 411 OFFCURVE",
"372 418 OFFCURVE",
"356 426 CURVE SMOOTH",
"341 433 OFFCURVE",
"325 439 OFFCURVE",
"309 446 CURVE SMOOTH",
"203 489 LINE",
"196 488 OFFCURVE",
"177 484 OFFCURVE",
"170 482 CURVE SMOOTH"
);
}
);
width = 520;
}
);
unicode = 00A7;
},
{
glyphname = guillemotleft;
layers = (
{
layerId = "C26E6862-625E-4D03-9322-DC3496ADAC37";
name = Backup;
width = 493;
},
{
layerId = "2B03D00A-B4C8-4D37-BEFC-80CF5F8B5BB8";
paths = (
{
closed = 1;
nodes = (
"62 273 LINE",
"147 273 LINE",
"288 450 LINE",
"235 490 LINE"
);
},
{
closed = 1;
nodes = (
"235 56 LINE",
"288 96 LINE",
"147 273 LINE",
"62 273 LINE"
);
},
{
closed = 1;
nodes = (
"239 273 LINE",
"324 273 LINE",
"465 450 LINE",
"412 490 LINE"
);
},
{
closed = 1;
nodes = (
"412 56 LINE",
"465 96 LINE",
"324 273 LINE",
"239 273 LINE"
);
}
);
width = 493;
},
{
layerId = "C9474598-BCEA-4A64-AEC8-6AD11FF1C3BE";
paths = (
{
closed = 1;
nodes = (
"62 273 LINE",
"147 273 LINE",
"288 451 LINE",
"237 493 LINE"
);
},
{
closed = 1;
nodes = (
"237 53 LINE",
"288 95 LINE",
"147 273 LINE",
"62 273 LINE"
);
},
{
closed = 1;
nodes = (
"221 273 LINE",
"306 273 LINE",
"447 451 LINE",
"396 493 LINE"
);
},
{
closed = 1;
nodes = (
"396 53 LINE",
"447 95 LINE",
"306 273 LINE",
"221 273 LINE"
);
}
);
width = 491;
}
);
unicode = 00AB;
},
{
glyphname = logicalnot;
layers = (
{
components = (
{
name = quotesingle;
alignment = -1;
}
);
layerId = "C26E6862-625E-4D03-9322-DC3496ADAC37";
name = Backup;
width = 0;
},
{
components = (
{
name = endash;
transform = "{1, 0, 0, 1, 28, 76}";
alignment = -1;
}
);
hints = (
{
place = "{400, 81}";
type = Stem;
},
{
horizontal = 1;
place = "{311, 76}";
type = Stem;
},
{
horizontal = 1;
place = "{205, 21}";
type = Stem;
}
);
layerId = "2B03D00A-B4C8-4D37-BEFC-80CF5F8B5BB8";
paths = (
{
closed = 1;
nodes = (
"400 387 LINE",
"480 387 LINE",
"480 205 LINE",
"400 205 LINE"
);
}
);
width = 572;
},
{
components = (
{
name = endash;
transform = "{1, 0, 0, 1, 28, 76}";
alignment = -1;
}
);
hints = (
{
place = "{400, 81}";
type = Stem;
},
{
horizontal = 1;
place = "{311, 76}";
type = Stem;
},
{
horizontal = 1;
place = "{205, 21}";
target = up;
type = BottomGhost;
}
);
layerId = "C9474598-BCEA-4A64-AEC8-6AD11FF1C3BE";
paths = (
{
closed = 1;
nodes = (
"400 387 LINE",
"480 387 LINE",
"480 205 LINE",
"400 205 LINE"
);
}
);
width = 572;
}
);
unicode = 00AC;
},
{
glyphname = macron;
layers = (
{
components = (
{
name = endash;
alignment = -1;
},
{
name = endash;
alignment = -1;
},
{
name = endash;
alignment = -1;
}
);
layerId = "C26E6862-625E-4D03-9322-DC3496ADAC37";
name = Backup;
paths = (
{
closed = 1;
nodes = (
"67 235 LINE",
"453 235 LINE",
"453 311 LINE",
"67 311 LINE"
);
}
);
width = 518;
},
{
components = (
{
name = space;
alignment = -1;
},
{
name = endash;
alignment = -1;
},
{
name = endash;
alignment = -1;
},
{
name = endash;
alignment = -1;
}
);
hints = (
{
horizontal = 1;
place = "{235, 76}";
type = Stem;
}
);
layerId = "2B03D00A-B4C8-4D37-BEFC-80CF5F8B5BB8";
paths = (
{
closed = 1;
nodes = (
"66 235 LINE",
"452 235 LINE",
"452 311 LINE",
"66 311 LINE"
);
},
{
closed = 1;
nodes = (
"67 235 LINE",
"453 235 LINE",
"453 311 LINE",
"67 311 LINE"
);
}
);
width = 250;
},
{
anchors = (
{
name = _top;
position = "{259, 510}";
}
);
components = (
{
name = space;
transform = "{1, 0, 0, 1, 134, 0}";
alignment = -1;
}
);
guideLines = (
{
angle = 90;
position = "{259, 0}";
showMeasurement = 1;
}
);
layerId = "C9474598-BCEA-4A64-AEC8-6AD11FF1C3BE";
paths = (
{
closed = 1;
nodes = (
"86 610 LINE",
"432 610 LINE",
"432 686 LINE",
"86 686 LINE"
);
}
);
width = 518;
}
);
unicode = 00AF;
},
{
glyphname = degree;
layers = (
{
layerId = "2B03D00A-B4C8-4D37-BEFC-80CF5F8B5BB8";
paths = (
{
closed = 1;
nodes = (
"116 578 OFFCURVE",
"152 555 OFFCURVE",
"187 555 CURVE SMOOTH",
"222 555 OFFCURVE",
"256 579 OFFCURVE",
"256 630 CURVE SMOOTH",
"256 681 OFFCURVE",
"222 705 OFFCURVE",
"187 705 CURVE SMOOTH",
"152 705 OFFCURVE",
"116 681 OFFCURVE",
"116 630 CURVE SMOOTH"
);
},
{
closed = 1;
nodes = (
"66 700 OFFCURVE",
"117 750 OFFCURVE",
"187 750 CURVE SMOOTH",
"256 750 OFFCURVE",
"307 700 OFFCURVE",
"307 630 CURVE SMOOTH",
"307 560 OFFCURVE",
"256 509 OFFCURVE",
"187 509 CURVE SMOOTH",
"117 509 OFFCURVE",
"66 560 OFFCURVE",
"66 630 CURVE SMOOTH"
);
}
);
width = 373;
},
{
layerId = "C9474598-BCEA-4A64-AEC8-6AD11FF1C3BE";
paths = (
{
closed = 1;
nodes = (
"116 578 OFFCURVE",
"152 555 OFFCURVE",
"187 555 CURVE SMOOTH",
"222 555 OFFCURVE",
"256 579 OFFCURVE",
"256 630 CURVE SMOOTH",
"256 681 OFFCURVE",
"222 705 OFFCURVE",
"187 705 CURVE SMOOTH",
"152 705 OFFCURVE",
"116 681 OFFCURVE",
"116 630 CURVE SMOOTH"
);
},
{
closed = 1;
nodes = (
"66 700 OFFCURVE",
"117 750 OFFCURVE",
"187 750 CURVE SMOOTH",
"256 750 OFFCURVE",
"307 700 OFFCURVE",
"307 630 CURVE SMOOTH",
"307 560 OFFCURVE",
"256 509 OFFCURVE",
"187 509 CURVE",
"117 509 OFFCURVE",
"66 560 OFFCURVE",
"66 630 CURVE SMOOTH"
);
}
);
width = 373;
}
);
unicode = 00B0;
},
{
glyphname = periodcentered;
layers = (
{
components = (
{
name = period;
alignment = -1;
}
);
layerId = "C26E6862-625E-4D03-9322-DC3496ADAC37";
name = Backup;
width = 242;
},
{
layerId = "2B03D00A-B4C8-4D37-BEFC-80CF5F8B5BB8";
paths = (
{
closed = 1;
nodes = (
"88 213 LINE",
"198 213 LINE",
"198 333 LINE",
"88 333 LINE"
);
}
);
width = 286;
},
{
layerId = "C9474598-BCEA-4A64-AEC8-6AD11FF1C3BE";
paths = (
{
closed = 1;
nodes = (
"88 213 LINE",
"198 213 LINE",
"198 333 LINE",
"88 333 LINE"
);
}
);
width = 286;
}
);
unicode = 00B7;
},
{
color = (255, 153, 153, 255);
glyphname = cedilla;
layers = (
{
components = (
{
name = comma;
alignment = -1;
}
);
layerId = "C26E6862-625E-4D03-9322-DC3496ADAC37";
name = Backup;
paths = (
{
closed = 1;
nodes = (
"53 -88 LINE",
"96 -71 OFFCURVE",
"163 -69 OFFCURVE",
"163 -110 CURVE SMOOTH",
"163 -162 OFFCURVE",
"56 -148 OFFCURVE",
"32 -127 CURVE",
"32 -127 OFFCURVE",
"12 -144 OFFCURVE",
"12 -144 CURVE",
"53 -185 OFFCURVE",
"96 -198 OFFCURVE",
"130 -198 CURVE SMOOTH",
"191 -198 OFFCURVE",
"241 -156 OFFCURVE",
"241 -100 CURVE SMOOTH",
"241 -57 OFFCURVE",
"211 -24 OFFCURVE",
"119 -42 CURVE",
"119 -42 OFFCURVE",
"144 0 OFFCURVE",
"144 0 CURVE",
"140 0 OFFCURVE",
"104 0 OFFCURVE",
"104 0 CURVE"
);
}
);
width = 260;
},
{
components = (
{
name = space;
alignment = -1;
},
{
name = comma;
alignment = -1;
}
);
hints = (
{
place = "{84, 110}";
type = Stem;
},
{
horizontal = 1;
place = "{-92, 35}";
type = Stem;
},
{
horizontal = 1;
place = "{0, 120}";
type = Stem;
}
);
layerId = "2B03D00A-B4C8-4D37-BEFC-80CF5F8B5BB8";
width = 250;
},
{
anchors = (
{
name = _bottom;
position = "{123, 0}";
}
);
components = (
{
name = space;
alignment = -1;
}
);
layerId = "C9474598-BCEA-4A64-AEC8-6AD11FF1C3BE";
paths = (
{
closed = 1;
nodes = (
"104 0 LINE",
"104 -103 LINE",
"143 -90 OFFCURVE",
"180 -103 OFFCURVE",
"180 -141 CURVE SMOOTH",
"180 -190 OFFCURVE",
"113 -196 OFFCURVE",
"78 -177 CURVE",
"69 -203 LINE",
"178 -233 OFFCURVE",
"253 -188 OFFCURVE",
"253 -133 CURVE SMOOTH",
"253 -84 OFFCURVE",
"203 -57 OFFCURVE",
"148 -68 CURVE",
"148 0 LINE"
);
}
);
width = 250;
}
);
unicode = 00B8;
},
{
glyphname = onesuperior;
layers = (
{
layerId = "2B03D00A-B4C8-4D37-BEFC-80CF5F8B5BB8";
width = 350;
},
{
layerId = "C9474598-BCEA-4A64-AEC8-6AD11FF1C3BE";
paths = (
{
closed = 1;
nodes = (
"125 860 LINE",
"33 810 LINE",
"33 743 LINE",
"118 789 LINE",
"118 480 LINE",
"179 480 LINE",
"179 860 LINE"
);
}
);
width = 235;
}
);
unicode = 00B9;
},
{
glyphname = Acircumflex;
leftMetricsKey = A;
rightMetricsKey = "=A-5";
layers = (
{
anchors = (
{
name = top;
position = "{348, 740}";
}
);
hints = (
{
horizontal = 1;
place = "{199, 80}";
type = Stem;
},
{
horizontal = 1;
place = "{740, -20}";
target = down;
type = TopGhost;
},
{
horizontal = 1;
place = "{0, 21}";
type = Stem;
}
);
layerId = "2B03D00A-B4C8-4D37-BEFC-80CF5F8B5BB8";
paths = (
{
closed = 1;
nodes = (
"541 279 LINE",
"169 279 LINE",
"169 199 LINE",
"541 199 LINE"
);
},
{
closed = 1;
nodes = (
"393 740 LINE",
"139 0 LINE",
"48 0 LINE",
"306 740 LINE"
);
},
{
closed = 1;
nodes = (
"308 740 LINE",
"395 740 LINE",
"655 0 LINE",
"564 0 LINE"
);
},
{
closed = 1;
nodes = (
"379 980 LINE",
"301 980 LINE",
"206 821 LINE",
"289 821 LINE"
);
},
{
closed = 1;
nodes = (
"317 980 LINE",
"395 980 LINE",
"490 821 LINE",
"407 821 LINE"
);
}
);
width = 710;
},
{
anchors = (
{
name = top;
position = "{357, 730}";
}
);
components = (
{
name = A;
alignment = -1;
},
{
name = circumflex;
transform = "{1, 0, 0, 1, 148, 220}";
alignment = -1;
}
);
hints = (
{
horizontal = 1;
place = "{199, 80}";
type = Stem;
},
{
horizontal = 1;
place = "{740, -20}";
target = down;
type = TopGhost;
},
{
horizontal = 1;
place = "{0, 21}";
target = up;
type = BottomGhost;
},
{
horizontal = 1;
place = "{698, 21}";
target = up;
type = BottomGhost;
},
{
horizontal = 1;
place = "{0, -20}";
target = down;
type = TopGhost;
}
);
layerId = "C9474598-BCEA-4A64-AEC8-6AD11FF1C3BE";
width = 709;
}
);
leftKerningGroup = Atilde;
rightKerningGroup = A1;
unicode = 00C2;
},
{
glyphname = Atilde;
leftMetricsKey = A;
rightMetricsKey = "=A-5";
layers = (
{
anchors = (
{
name = top;
position = "{348, 740}";
}
);
hints = (
{
horizontal = 1;
place = "{199, 80}";
type = Stem;
},
{
horizontal = 1;
place = "{740, -20}";
target = down;
type = TopGhost;
},
{
horizontal = 1;
place = "{0, 21}";
type = Stem;
},
{
place = "{189, 126}";
type = Stem;
},
{
place = "{315, 66}";
type = Stem;
},
{
place = "{189, 192}";
type = Stem;
},
{
horizontal = 1;
place = "{981, -20}";
target = down;
type = TopGhost;
},
{
horizontal = 1;
place = "{981, 21}";
type = Stem;
}
);
layerId = "2B03D00A-B4C8-4D37-BEFC-80CF5F8B5BB8";
paths = (
{
closed = 1;
nodes = (
"541 279 LINE",
"169 279 LINE",
"169 199 LINE",
"541 199 LINE"
);
},
{
closed = 1;
nodes = (
"393 740 LINE",
"139 0 LINE",
"48 0 LINE",
"306 740 LINE"
);
},
{
closed = 1;
nodes = (
"308 740 LINE",
"395 740 LINE",
"655 0 LINE",
"564 0 LINE"
);
},
{
closed = 1;
nodes = (
"381 898 LINE",
"381 862 OFFCURVE",
"396 858 OFFCURVE",
"412 858 CURVE SMOOTH",
"425 858 OFFCURVE",
"440 867 OFFCURVE",
"440 900 CURVE",
"507 902 LINE",
"507 843 OFFCURVE",
"460 802 OFFCURVE",
"411 802 CURVE SMOOTH",
"343 802 OFFCURVE",
"314 849 OFFCURVE",
"315 898 CURVE"
);
},
{
closed = 1;
nodes = (
"315 898 LINE",
"315 934 OFFCURVE",
"300 938 OFFCURVE",
"284 938 CURVE SMOOTH",
"271 938 OFFCURVE",
"256 929 OFFCURVE",
"256 896 CURVE",
"189 894 LINE",
"189 953 OFFCURVE",
"236 994 OFFCURVE",
"285 994 CURVE SMOOTH",
"353 994 OFFCURVE",
"382 947 OFFCURVE",
"381 898 CURVE"
);
}
);
width = 710;
},
{
anchors = (
{
name = top;
position = "{357, 730}";
}
);
components = (
{
name = A;
alignment = -1;
},
{
name = tilde;
transform = "{1, 0, 0, 1, 158, 220}";
alignment = -1;
}
);
hints = (
{
horizontal = 1;
place = "{199, 80}";
type = Stem;
},
{
horizontal = 1;
place = "{740, -20}";
target = down;
type = TopGhost;
},
{
horizontal = 1;
place = "{0, 21}";
target = up;
type = BottomGhost;
},
{
horizontal = 1;
place = "{698, 21}";
target = up;
type = BottomGhost;
},
{
horizontal = 1;
place = "{0, -20}";
target = down;
type = TopGhost;
},
{
place = "{198, 126}";
type = Stem;
},
{
place = "{324, 66}";
type = Stem;
},
{
place = "{198, 192}";
type = Stem;
},
{
horizontal = 1;
place = "{984, -20}";
target = down;
type = TopGhost;
},
{
horizontal = 1;
place = "{984, 21}";
target = up;
type = BottomGhost;
}
);
layerId = "C9474598-BCEA-4A64-AEC8-6AD11FF1C3BE";
width = 709;
}
);
leftKerningGroup = Atilde;
rightKerningGroup = A1;
unicode = 00C3;
},
{
color = (154, 153, 255, 255);
glyphname = AE;
leftMetricsKey = A;
rightMetricsKey = E;
layers = (
{
anchors = (
{
name = top;
position = "{1129, 730}";
}
);
components = (
{
name = A;
alignment = -1;
},
{
name = E;
transform = "{1, 0, 0, 1, 734, 0}";
alignment = -1;
}
);
hints = (
{
horizontal = 1;
place = "{199, 80}";
type = Stem;
},
{
horizontal = 1;
place = "{761, -20}";
target = down;
type = TopGhost;
},
{
horizontal = 1;
place = "{-21, 63}";
type = Stem;
},
{
place = "{865, 128}";
type = Stem;
},
{
horizontal = 1;
place = "{0, 80}";
type = Stem;
},
{
horizontal = 1;
place = "{342, 80}";
type = Stem;
},
{
horizontal = 1;
place = "{660, 80}";
type = Stem;
}
);
layerId = "2B03D00A-B4C8-4D37-BEFC-80CF5F8B5BB8";
paths = (
{
closed = 1;
nodes = (
"393 740 LINE",
"139 0 LINE",
"48 0 LINE",
"306 740 LINE"
);
},
{
closed = 1;
nodes = (
"541 199 LINE",
"169 199 LINE",
"169 279 LINE",
"541 279 LINE"
);
},
{
closed = 1;
nodes = (
"622 660 LINE",
"22 660 LINE",
"22 740 LINE",
"622 740 LINE"
);
}
);
width = 1477;
},
{
anchors = (
{
name = top;
position = "{733, 730}";
},
{
name = bottom;
position = "{939, 0}";
}
);
components = (
{
name = E;
transform = "{1, 0, 0, 1, 410, 0}";
alignment = -1;
}
);
hints = (
{
horizontal = 1;
place = "{199, 80}";
type = Stem;
},
{
horizontal = 1;
place = "{740, -20}";
target = down;
type = TopGhost;
},
{
horizontal = 1;
place = "{0, 21}";
type = Stem;
},
{
place = "{490, 86}";
type = Stem;
},
{
horizontal = 1;
place = "{0, 80}";
type = Stem;
},
{
horizontal = 1;
place = "{342, 80}";
type = Stem;
},
{
horizontal = 1;
place = "{660, 80}";
type = Stem;
}
);
layerId = "C9474598-BCEA-4A64-AEC8-6AD11FF1C3BE";
paths = (
{
closed = 1;
nodes = (
"311.2 740 LINE",
"398.2 740 LINE",
"144.2 0 LINE",
"53.2 0 LINE"
);
},
{
closed = 1;
nodes = (
"168 279 LINE",
"540 279 LINE",
"540 199 LINE",
"168 199 LINE"
);
},
{
closed = 1;
nodes = (
"311.2 740 LINE",
"551.2 740 LINE",
"551.2 660 LINE",
"311.2 660 LINE"
);
}
);
width = 1065;
}
);
unicode = 00C6;
},
{
glyphname = Ecircumflex;
leftMetricsKey = B;
rightMetricsKey = "=O+13";
layers = (
{
anchors = (
{
name = top;
position = "{387, 737}";
}
);
hints = (
{
place = "{144, 86}";
type = Stem;
},
{
horizontal = 1;
place = "{0, 80}";
type = Stem;
},
{
horizontal = 1;
place = "{342, 80}";
type = Stem;
},
{
horizontal = 1;
place = "{660, 80}";
type = Stem;
}
);
layerId = "2B03D00A-B4C8-4D37-BEFC-80CF5F8B5BB8";
paths = (
{
closed = 1;
nodes = (
"630 80 LINE",
"204 80 LINE",
"204 0 LINE",
"630 0 LINE"
);
},
{
closed = 1;
nodes = (
"575 342 LINE",
"575 422 LINE",
"204 422 LINE",
"204 342 LINE"
);
},
{
closed = 1;
nodes = (
"627 740 LINE",
"204 740 LINE",
"204 660 LINE",
"627 660 LINE"
);
},
{
closed = 1;
nodes = (
"144 0 LINE",
"230 0 LINE",
"230 740 LINE",
"144 740 LINE"
);
},
{
closed = 1;
nodes = (
"328 818 LINE",
"245 818 LINE",
"340 977 LINE",
"418 977 LINE"
);
},
{
closed = 1;
nodes = (
"446 818 LINE",
"529 818 LINE",
"434 977 LINE",
"356 977 LINE"
);
}
);
width = 730;
},
{
anchors = (
{
name = top;
position = "{323, 730}";
},
{
name = bottom;
position = "{529, 0}";
}
);
components = (
{
name = E;
alignment = -1;
},
{
name = circumflex;
transform = "{1, 0, 0, 1, 114, 220}";
alignment = -1;
}
);
hints = (
{
place = "{80, 86}";
type = Stem;
},
{
horizontal = 1;
place = "{0, 80}";
type = Stem;
},
{
horizontal = 1;
place = "{342, 80}";
type = Stem;
},
{
horizontal = 1;
place = "{660, 80}";
type = Stem;
}
);
layerId = "C9474598-BCEA-4A64-AEC8-6AD11FF1C3BE";
width = 655;
}
);
leftKerningGroup = B;
rightKerningGroup = E;
unicode = 00CA;
},
{
glyphname = Edieresis;
leftMetricsKey = B;
rightMetricsKey = "=O+13";
layers = (
{
anchors = (
{
name = top;
position = "{387, 730}";
}
);
hints = (
{
place = "{144, 86}";
type = Stem;
},
{
horizontal = 1;
place = "{0, 80}";
type = Stem;
},
{
horizontal = 1;
place = "{342, 80}";
type = Stem;
},
{
horizontal = 1;
place = "{660, 80}";
type = Stem;
}
);
layerId = "2B03D00A-B4C8-4D37-BEFC-80CF5F8B5BB8";
paths = (
{
closed = 1;
nodes = (
"630 80 LINE",
"204 80 LINE",
"204 0 LINE",
"630 0 LINE"
);
},
{
closed = 1;
nodes = (
"575 342 LINE",
"575 422 LINE",
"204 422 LINE",
"204 342 LINE"
);
},
{
closed = 1;
nodes = (
"627 740 LINE",
"204 740 LINE",
"204 660 LINE",
"627 660 LINE"
);
},
{
closed = 1;
nodes = (
"144 0 LINE",
"230 0 LINE",
"230 740 LINE",
"144 740 LINE"
);
},
{
closed = 1;
nodes = (
"217 811 LINE",
"327 811 LINE",
"327 931 LINE",
"217 931 LINE"
);
},
{
closed = 1;
nodes = (
"447 811 LINE",
"557 811 LINE",
"557 931 LINE",
"447 931 LINE"
);
}
);
width = 730;
},
{
anchors = (
{
name = top;
position = "{323, 730}";
},
{
name = bottom;
position = "{529, 0}";
}
);
components = (
{
name = E;
alignment = -1;
},
{
name = dieresis;
transform = "{1, 0, 0, 1, -4, 220}";
alignment = -1;
}
);
hints = (
{
place = "{80, 86}";
type = Stem;
},
{
horizontal = 1;
place = "{0, 80}";
type = Stem;
},
{
horizontal = 1;
place = "{342, 80}";
type = Stem;
},
{
horizontal = 1;
place = "{660, 80}";
type = Stem;
}
);
layerId = "C9474598-BCEA-4A64-AEC8-6AD11FF1C3BE";
width = 655;
}
);
leftKerningGroup = B;
rightKerningGroup = E;
unicode = 00CB;
},
{
glyphname = Igrave;
leftMetricsKey = B;
rightMetricsKey = "=H-4";
layers = (
{
hints = (
{
place = "{144, 86}";
type = Stem;
},
{
horizontal = 1;
place = "{0, 21}";
type = Stem;
},
{
horizontal = 1;
place = "{740, -20}";
target = down;
type = TopGhost;
},
{
horizontal = 1;
place = "{821, 21}";
type = Stem;
},
{
horizontal = 1;
place = "{980, -20}";
target = down;
type = TopGhost;
}
);
layerId = "2B03D00A-B4C8-4D37-BEFC-80CF5F8B5BB8";
paths = (
{
closed = 1;
nodes = (
"144 0 LINE",
"230 0 LINE",
"230 740 LINE",
"144 740 LINE"
);
},
{
closed = 1;
nodes = (
"198.5 821 LINE",
"300.5 821 LINE",
"171.5 980 LINE",
"69.5 980 LINE"
);
}
);
width = 370;
},
{
anchors = (
{
name = top;
position = "{123, 730}";
}
);
components = (
{
name = I;
alignment = -1;
},
{
name = grave;
transform = "{1, 0, 0, 1, -53, 220}";
alignment = -1;
}
);
hints = (
{
place = "{80, 86}";
type = Stem;
},
{
horizontal = 1;
place = "{0, 21}";
target = up;
type = BottomGhost;
},
{
horizontal = 1;
place = "{740, -20}";
target = down;
type = TopGhost;
},
{
horizontal = 1;
place = "{811, 21}";
target = up;
type = BottomGhost;
},
{
horizontal = 1;
place = "{970, -20}";
target = down;
type = TopGhost;
}
);
layerId = "C9474598-BCEA-4A64-AEC8-6AD11FF1C3BE";
width = 264;
}
);
leftKerningGroup = B;
rightKerningGroup = H;
unicode = 00CC;
},
{
glyphname = Iacute;
leftMetricsKey = B;
rightMetricsKey = "=H-4";
layers = (
{
hints = (
{
place = "{144, 86}";
type = Stem;
},
{
horizontal = 1;
place = "{0, 21}";
type = Stem;
},
{
horizontal = 1;
place = "{740, -20}";
target = down;
type = TopGhost;
},
{
horizontal = 1;
place = "{821, 21}";
type = Stem;
},
{
horizontal = 1;
place = "{980, -20}";
target = down;
type = TopGhost;
}
);
layerId = "2B03D00A-B4C8-4D37-BEFC-80CF5F8B5BB8";
paths = (
{
closed = 1;
nodes = (
"144 0 LINE",
"230 0 LINE",
"230 740 LINE",
"144 740 LINE"
);
},
{
closed = 1;
nodes = (
"300.5 980 LINE",
"198.5 980 LINE",
"69.5 821 LINE",
"171.5 821 LINE"
);
}
);
width = 370;
},
{
anchors = (
{
name = top;
position = "{123, 730}";
}
);
components = (
{
name = I;
alignment = -1;
},
{
name = acute;
transform = "{1, 0, 0, 1, -58, 220}";
alignment = -1;
}
);
hints = (
{
place = "{80, 86}";
type = Stem;
},
{
horizontal = 1;
place = "{0, 21}";
target = up;
type = BottomGhost;
},
{
horizontal = 1;
place = "{740, -20}";
target = down;
type = TopGhost;
},
{
horizontal = 1;
place = "{811, 21}";
target = up;
type = BottomGhost;
},
{
horizontal = 1;
place = "{970, -20}";
target = down;
type = TopGhost;
}
);
layerId = "C9474598-BCEA-4A64-AEC8-6AD11FF1C3BE";
width = 264;
}
);
leftKerningGroup = B;
rightKerningGroup = H;
unicode = 00CD;
},
{
glyphname = Icircumflex;
leftMetricsKey = B;
rightMetricsKey = "=H-4";
layers = (
{
guideLines = (
{
angle = 90;
position = "{185.81, 0}";
showMeasurement = 1;
}
);
hints = (
{
place = "{144, 86}";
type = Stem;
},
{
horizontal = 1;
place = "{0, 21}";
type = Stem;
},
{
horizontal = 1;
place = "{740, -20}";
target = down;
type = TopGhost;
}
);
layerId = "2B03D00A-B4C8-4D37-BEFC-80CF5F8B5BB8";
paths = (
{
closed = 1;
nodes = (
"144 0 LINE",
"230 0 LINE",
"230 740 LINE",
"144 740 LINE"
);
},
{
closed = 1;
nodes = (
"125.808 821 LINE",
"42.808 821 LINE",
"137.808 980 LINE",
"215.808 980 LINE"
);
},
{
closed = 1;
nodes = (
"243.808 821 LINE",
"326.808 821 LINE",
"231.808 980 LINE",
"153.808 980 LINE"
);
}
);
width = 370;
},
{
anchors = (
{
name = top;
position = "{123, 730}";
}
);
components = (
{
name = I;
alignment = -1;
},
{
name = circumflex;
transform = "{1, 0, 0, 1, -86, 220}";
alignment = -1;
}
);
hints = (
{
place = "{80, 86}";
type = Stem;
},
{
horizontal = 1;
place = "{0, 21}";
target = up;
type = BottomGhost;
},
{
horizontal = 1;
place = "{740, -20}";
target = down;
type = TopGhost;
}
);
layerId = "C9474598-BCEA-4A64-AEC8-6AD11FF1C3BE";
width = 264;
}
);
leftKerningGroup = B;
rightKerningGroup = H;
unicode = 00CE;
},
{
glyphname = Idieresis;
leftMetricsKey = B;
rightMetricsKey = "=H-4";
layers = (
{
hints = (
{
place = "{144, 86}";
type = Stem;
},
{
horizontal = 1;
place = "{0, 21}";
type = Stem;
},
{
horizontal = 1;
place = "{740, -20}";
target = down;
type = TopGhost;
}
);
layerId = "2B03D00A-B4C8-4D37-BEFC-80CF5F8B5BB8";
paths = (
{
closed = 1;
nodes = (
"144 0 LINE",
"230 0 LINE",
"230 740 LINE",
"144 740 LINE"
);
},
{
closed = 1;
nodes = (
"15 821 LINE",
"125 821 LINE",
"125 941 LINE",
"15 941 LINE"
);
},
{
closed = 1;
nodes = (
"245 821 LINE",
"355 821 LINE",
"355 941 LINE",
"245 941 LINE"
);
}
);
width = 370;
},
{
anchors = (
{
name = top;
position = "{123, 730}";
}
);
components = (
{
name = I;
alignment = -1;
},
{
name = dieresis;
transform = "{1, 0, 0, 1, -204, 220}";
alignment = -1;
}
);
hints = (
{
place = "{80, 86}";
type = Stem;
},
{
horizontal = 1;
place = "{0, 21}";
target = up;
type = BottomGhost;
},
{
horizontal = 1;
place = "{740, -20}";
target = down;
type = TopGhost;
}
);
layerId = "C9474598-BCEA-4A64-AEC8-6AD11FF1C3BE";
width = 264;
}
);
leftKerningGroup = B;
rightKerningGroup = H;
unicode = 00CF;
},
{
glyphname = Ntilde;
leftMetricsKey = B;
rightMetricsKey = H;
layers = (
{
hints = (
{
place = "{144, 86}";
type = Stem;
},
{
place = "{667, 82}";
type = Stem;
},
{
horizontal = 1;
place = "{0, 21}";
type = Stem;
},
{
horizontal = 1;
place = "{750, -20}";
target = down;
type = TopGhost;
},
{
place = "{288, 126}";
type = Stem;
},
{
place = "{414, 66}";
type = Stem;
},
{
place = "{288, 192}";
type = Stem;
},
{
horizontal = 1;
place = "{994, -20}";
target = down;
type = TopGhost;
},
{
horizontal = 1;
place = "{994, 21}";
type = Stem;
}
);
layerId = "2B03D00A-B4C8-4D37-BEFC-80CF5F8B5BB8";
paths = (
{
closed = 1;
nodes = (
"742 0 LINE",
"269 740 LINE",
"172 740 LINE",
"645 0 LINE"
);
},
{
closed = 1;
nodes = (
"144 0 LINE",
"230 0 LINE",
"230 740 LINE",
"144 740 LINE"
);
},
{
closed = 1;
nodes = (
"667 0 LINE",
"749 0 LINE",
"749 750 LINE",
"667 750 LINE"
);
},
{
closed = 1;
nodes = (
"413.5 898 LINE",
"412.5 849 OFFCURVE",
"441.5 802 OFFCURVE",
"509.5 802 CURVE SMOOTH",
"558.5 802 OFFCURVE",
"605.5 843 OFFCURVE",
"605.5 902 CURVE",
"538.5 900 LINE",
"538.5 867 OFFCURVE",
"523.5 858 OFFCURVE",
"510.5 858 CURVE SMOOTH",
"494.5 858 OFFCURVE",
"479.5 862 OFFCURVE",
"479.5 898 CURVE"
);
},
{
closed = 1;
nodes = (
"479.5 898 LINE",
"480.5 947 OFFCURVE",
"451.5 994 OFFCURVE",
"383.5 994 CURVE SMOOTH",
"334.5 994 OFFCURVE",
"287.5 953 OFFCURVE",
"287.5 894 CURVE",
"354.5 896 LINE",
"354.5 929 OFFCURVE",
"369.5 938 OFFCURVE",
"382.5 938 CURVE SMOOTH",
"398.5 938 OFFCURVE",
"413.5 934 OFFCURVE",
"413.5 898 CURVE"
);
}
);
width = 893;
},
{
anchors = (
{
name = top;
position = "{379, 730}";
}
);
components = (
{
name = N;
transform = "{1, 0, 0, 1, -22, 0}";
alignment = -1;
},
{
name = tilde;
transform = "{1, 0, 0, 1, 180, 220}";
alignment = -1;
}
);
hints = (
{
place = "{80, 86}";
type = Stem;
},
{
place = "{581, 86}";
type = Stem;
},
{
horizontal = 1;
place = "{740, -20}";
target = down;
type = TopGhost;
},
{
horizontal = 1;
place = "{0, 21}";
target = up;
type = BottomGhost;
},
{
place = "{220, 126}";
type = Stem;
},
{
place = "{346, 66}";
type = Stem;
},
{
place = "{220, 192}";
type = Stem;
},
{
horizontal = 1;
place = "{984, -20}";
target = down;
type = TopGhost;
},
{
horizontal = 1;
place = "{984, 21}";
target = up;
type = BottomGhost;
}
);
layerId = "C9474598-BCEA-4A64-AEC8-6AD11FF1C3BE";
width = 769;
}
);
leftKerningGroup = B;
rightKerningGroup = H;
unicode = 00D1;
},
{
glyphname = Ocircumflex;
leftMetricsKey = O;
rightMetricsKey = O;
layers = (
{
anchors = (
{
name = top;
position = "{404, 730}";
}
);
guideLines = (
{
angle = 90;
position = "{404, 0}";
showMeasurement = 1;
}
);
hints = (
{
place = "{42, 86}";
type = Stem;
},
{
place = "{680, 86}";
type = Stem;
},
{
horizontal = 1;
place = "{-15, 82}";
type = Stem;
},
{
horizontal = 1;
place = "{673, 82}";
type = Stem;
}
);
layerId = "2B03D00A-B4C8-4D37-BEFC-80CF5F8B5BB8";
paths = (
{
closed = 1;
nodes = (
"128 157 OFFCURVE",
"267 67 OFFCURVE",
"404 67 CURVE SMOOTH",
"541 67 OFFCURVE",
"680 157 OFFCURVE",
"680 371 CURVE SMOOTH",
"680 583 OFFCURVE",
"541 673 OFFCURVE",
"404 673 CURVE SMOOTH",
"267 673 OFFCURVE",
"128 583 OFFCURVE",
"128 371 CURVE SMOOTH"
);
},
{
closed = 1;
nodes = (
"42 602 OFFCURVE",
"188 755 OFFCURVE",
"404 755 CURVE SMOOTH",
"620 755 OFFCURVE",
"766 602 OFFCURVE",
"766 371 CURVE SMOOTH",
"766 138 OFFCURVE",
"620 -15 OFFCURVE",
"404 -15 CURVE SMOOTH",
"188 -15 OFFCURVE",
"42 138 OFFCURVE",
"42 371 CURVE SMOOTH"
);
},
{
closed = 1;
nodes = (
"434 970 LINE",
"356 970 LINE",
"261 811 LINE",
"344 811 LINE"
);
},
{
closed = 1;
nodes = (
"372 970 LINE",
"450 970 LINE",
"545 811 LINE",
"462 811 LINE"
);
}
);
width = 808;
},
{
anchors = (
{
name = top;
position = "{438, 730}";
}
);
components = (
{
name = O;
alignment = -1;
},
{
name = circumflex;
transform = "{1, 0, 0, 1, 229, 220}";
alignment = -1;
}
);
hints = (
{
place = "{76, 86}";
type = Stem;
},
{
place = "{714, 86}";
type = Stem;
},
{
horizontal = 1;
place = "{-15, 82}";
type = Stem;
},
{
horizontal = 1;
place = "{673, 82}";
type = Stem;
}
);
layerId = "C9474598-BCEA-4A64-AEC8-6AD11FF1C3BE";
width = 876;
}
);
leftKerningGroup = O;
rightKerningGroup = O1;
unicode = 00D4;
},
{
glyphname = Oslash;
layers = (
{
anchors = (
{
name = top;
position = "{406, 730}";
}
);
components = (
{
name = O;
alignment = -1;
},
{
name = slash;
transform = "{1, 0, 0, 1, 226, 0}";
alignment = -1;
}
);
hints = (
{
place = "{23, 128}";
type = Stem;
},
{
place = "{661, 128}";
type = Stem;
},
{
horizontal = 1;
place = "{-36, 124}";
type = Stem;
},
{
horizontal = 1;
place = "{652, 124}";
type = Stem;
},
{
horizontal = 1;
place = "{0, 21}";
type = Stem;
},
{
horizontal = 1;
place = "{740, -20}";
target = down;
type = TopGhost;
},
{
horizontal = 1;
place = "{0, 21}";
target = up;
type = BottomGhost;
}
);
layerId = "2B03D00A-B4C8-4D37-BEFC-80CF5F8B5BB8";
width = 809;
},
{
anchors = (
{
name = top;
position = "{438, 730}";
}
);
components = (
{
name = O;
alignment = -1;
}
);
hints = (
{
place = "{76, 86}";
type = Stem;
},
{
place = "{714, 86}";
type = Stem;
},
{
horizontal = 1;
place = "{-15, 82}";
type = Stem;
},
{
horizontal = 1;
place = "{673, 82}";
type = Stem;
},
{
horizontal = 1;
place = "{0, 21}";
type = Stem;
},
{
horizontal = 1;
place = "{740, -20}";
target = down;
type = TopGhost;
}
);
layerId = "C9474598-BCEA-4A64-AEC8-6AD11FF1C3BE";
paths = (
{
closed = 1;
nodes = (
"265 -81 LINE",
"329 -81 LINE",
"625 797 LINE",
"561 797 LINE"
);
}
);
width = 876;
}
);
unicode = 00D8;
},
